<ttFont>
    <TTGlyph name="A" xMin="-23" yMin="-50" xMax="551" yMax="727">
      <contour>
        <pt x="445" y="208" on="1"/>
        <pt x="449" y="196" on="0"/>
        <pt x="455" y="182" on="0"/>
        <pt x="453" y="175" on="1"/>
        <pt x="456" y="168" on="0"/>
        <pt x="459" y="153" on="0"/>
        <pt x="462" y="146" on="1"/>
        <pt x="463" y="139" on="0"/>
        <pt x="469" y="125" on="0"/>
        <pt x="471" y="119" on="1"/>
        <pt x="472" y="111" on="0"/>
        <pt x="477" y="101" on="0"/>
        <pt x="478" y="94" on="1"/>
        <pt x="485" y="82" on="0"/>
        <pt x="490" y="71" on="0"/>
        <pt x="493" y="66" on="1"/>
        <pt x="495" y="60" on="0"/>
        <pt x="503" y="54" on="0"/>
        <pt x="506" y="49" on="1"/>
        <pt x="508" y="45" on="0"/>
        <pt x="509" y="36" on="0"/>
        <pt x="513" y="33" on="1"/>
        <pt x="514" y="28" on="0"/>
        <pt x="517" y="19" on="0"/>
        <pt x="519" y="14" on="1"/>
        <pt x="518" y="11" on="0"/>
        <pt x="519" y="6" on="0"/>
        <pt x="520" y="2" on="1"/>
        <pt x="515" y="-12" on="0"/>
        <pt x="500" y="-35" on="0"/>
        <pt x="487" y="-39" on="1"/>
        <pt x="482" y="-41" on="0"/>
        <pt x="473" y="-41" on="0"/>
        <pt x="471" y="-46" on="1"/>
        <pt x="465" y="-45" on="0"/>
        <pt x="452" y="-50" on="0"/>
        <pt x="446" y="-48" on="1"/>
        <pt x="438" y="-43" on="0"/>
        <pt x="436" y="-40" on="0"/>
        <pt x="435" y="-40" on="1"/>
        <pt x="429" y="-36" on="0"/>
        <pt x="424" y="-36" on="0"/>
        <pt x="422" y="-34" on="1"/>
        <pt x="415" y="-28" on="0"/>
        <pt x="406" y="-10" on="0"/>
        <pt x="404" y="-1" on="1"/>
        <pt x="396" y="6" on="0"/>
        <pt x="394" y="18" on="0"/>
        <pt x="390" y="23" on="1"/>
        <pt x="389" y="40" on="0"/>
        <pt x="391" y="75" on="0"/>
        <pt x="386" y="91" on="1"/>
        <pt x="384" y="96" on="0"/>
        <pt x="380" y="106" on="0"/>
        <pt x="378" y="112" on="1"/>
        <pt x="376" y="126" on="0"/>
        <pt x="366" y="140" on="0"/>
        <pt x="364" y="148" on="1"/>
        <pt x="354" y="150" on="0"/>
        <pt x="332" y="151" on="0"/>
        <pt x="321" y="152" on="1"/>
        <pt x="314" y="153" on="0"/>
        <pt x="303" y="154" on="0"/>
        <pt x="296" y="153" on="1"/>
        <pt x="287" y="152" on="0"/>
        <pt x="267" y="157" on="0"/>
        <pt x="256" y="158" on="1"/>
        <pt x="248" y="159" on="0"/>
        <pt x="231" y="158" on="0"/>
        <pt x="223" y="159" on="1"/>
        <pt x="212" y="160" on="0"/>
        <pt x="207" y="159" on="0"/>
        <pt x="204" y="159" on="1"/>
        <pt x="193" y="160" on="0"/>
        <pt x="172" y="160" on="0"/>
        <pt x="164" y="156" on="1"/>
        <pt x="153" y="149" on="0"/>
        <pt x="144" y="147" on="0"/>
        <pt x="139" y="145" on="1"/>
        <pt x="134" y="143" on="0"/>
        <pt x="127" y="133" on="0"/>
        <pt x="126" y="130" on="1"/>
        <pt x="124" y="123" on="0"/>
        <pt x="127" y="113" on="0"/>
        <pt x="125" y="108" on="1"/>
        <pt x="127" y="96" on="0"/>
        <pt x="124" y="66" on="0"/>
        <pt x="121" y="53" on="1"/>
        <pt x="126" y="42" on="0"/>
        <pt x="120" y="18" on="0"/>
        <pt x="120" y="7" on="1"/>
        <pt x="114" y="-7" on="0"/>
        <pt x="91" y="-24" on="0"/>
        <pt x="79" y="-32" on="1"/>
        <pt x="71" y="-33" on="0"/>
        <pt x="58" y="-38" on="0"/>
        <pt x="55" y="-43" on="1"/>
        <pt x="48" y="-44" on="0"/>
        <pt x="39" y="-38" on="0"/>
        <pt x="31" y="-39" on="1"/>
        <pt x="19" y="-45" on="0"/>
        <pt x="-1" y="-33" on="0"/>
        <pt x="-10" y="-29" on="1"/>
        <pt x="-12" y="-24" on="0"/>
        <pt x="-14" y="-13" on="0"/>
        <pt x="-18" y="-8" on="1"/>
        <pt x="-23" y="2" on="0"/>
        <pt x="-16" y="20" on="0"/>
        <pt x="-18" y="29" on="1"/>
        <pt x="-18" y="43" on="0"/>
        <pt x="-10" y="61" on="0"/>
        <pt x="-4" y="70" on="1"/>
        <pt x="-5" y="72" on="0"/>
        <pt x="-4" y="78" on="0"/>
        <pt x="-5" y="81" on="1"/>
        <pt x="-2" y="83" on="0"/>
        <pt x="5" y="87" on="0"/>
        <pt x="3" y="92" on="1"/>
        <pt x="7" y="99" on="0"/>
        <pt x="16" y="110" on="0"/>
        <pt x="15" y="117" on="1"/>
        <pt x="24" y="132" on="0"/>
        <pt x="33" y="143" on="0"/>
        <pt x="37" y="150" on="1"/>
        <pt x="35" y="158" on="0"/>
        <pt x="33" y="162" on="1"/>
        <pt x="31" y="167" on="0"/>
        <pt x="23" y="182" on="0"/>
        <pt x="23" y="190" on="1"/>
        <pt x="23" y="193" on="0"/>
        <pt x="25" y="208" on="0"/>
        <pt x="27" y="210" on="1"/>
        <pt x="35" y="223" on="0"/>
        <pt x="45" y="228" on="0"/>
        <pt x="48" y="232" on="1"/>
        <pt x="51" y="241" on="0"/>
        <pt x="56" y="260" on="0"/>
        <pt x="57" y="269" on="1"/>
        <pt x="59" y="281" on="0"/>
        <pt x="57" y="300" on="0"/>
        <pt x="65" y="307" on="1"/>
        <pt x="71" y="317" on="0"/>
        <pt x="73" y="322" on="1"/>
        <pt x="72" y="328" on="0"/>
        <pt x="77" y="343" on="0"/>
        <pt x="81" y="348" on="1"/>
        <pt x="83" y="357" on="0"/>
        <pt x="88" y="378" on="0"/>
        <pt x="92" y="386" on="1"/>
        <pt x="92" y="391" on="0"/>
        <pt x="97" y="399" on="0"/>
        <pt x="95" y="404" on="1"/>
        <pt x="100" y="415" on="0"/>
        <pt x="103" y="443" on="0"/>
        <pt x="109" y="453" on="1"/>
        <pt x="110" y="458" on="0"/>
        <pt x="109" y="465" on="0"/>
        <pt x="110" y="468" on="1"/>
        <pt x="112" y="476" on="0"/>
        <pt x="122" y="487" on="0"/>
        <pt x="124" y="495" on="1"/>
        <pt x="128" y="507" on="0"/>
        <pt x="132" y="517" on="0"/>
        <pt x="132" y="522" on="1"/>
        <pt x="132" y="526" on="0"/>
        <pt x="127" y="533" on="0"/>
        <pt x="127" y="538" on="1"/>
        <pt x="126" y="543" on="0"/>
        <pt x="128" y="554" on="0"/>
        <pt x="127" y="561" on="1"/>
        <pt x="137" y="579" on="0"/>
        <pt x="141" y="602" on="0"/>
        <pt x="144" y="614" on="1"/>
        <pt x="142" y="621" on="0"/>
        <pt x="140" y="632" on="0"/>
        <pt x="138" y="637" on="1"/>
        <pt x="133" y="640" on="0"/>
        <pt x="129" y="652" on="0"/>
        <pt x="127" y="658" on="1"/>
        <pt x="130" y="665" on="0"/>
        <pt x="134" y="678" on="0"/>
        <pt x="139" y="681" on="1"/>
        <pt x="140" y="686" on="0"/>
        <pt x="145" y="692" on="0"/>
        <pt x="150" y="695" on="1"/>
        <pt x="152" y="706" on="0"/>
        <pt x="171" y="711" on="0"/>
        <pt x="183" y="712" on="1"/>
        <pt x="189" y="714" on="0"/>
        <pt x="193" y="715" on="0"/>
        <pt x="194" y="714" on="1"/>
        <pt x="196" y="719" on="0"/>
        <pt x="206" y="716" on="0"/>
        <pt x="210" y="717" on="1"/>
        <pt x="226" y="724" on="0"/>
        <pt x="227" y="725" on="1"/>
        <pt x="242" y="727" on="0"/>
        <pt x="262" y="720" on="0"/>
        <pt x="276" y="718" on="1"/>
        <pt x="284" y="714" on="0"/>
        <pt x="288" y="713" on="1"/>
        <pt x="294" y="708" on="0"/>
        <pt x="305" y="694" on="0"/>
        <pt x="308" y="686" on="1"/>
        <pt x="311" y="674" on="0"/>
        <pt x="308" y="654" on="0"/>
        <pt x="306" y="643" on="1"/>
        <pt x="306" y="633" on="0"/>
        <pt x="309" y="619" on="0"/>
        <pt x="311" y="613" on="1"/>
        <pt x="313" y="601" on="0"/>
        <pt x="316" y="595" on="0"/>
        <pt x="316" y="593" on="1"/>
        <pt x="316" y="588" on="0"/>
        <pt x="319" y="582" on="0"/>
        <pt x="321" y="579" on="1"/>
        <pt x="322" y="574" on="0"/>
        <pt x="322" y="567" on="0"/>
        <pt x="323" y="564" on="1"/>
        <pt x="325" y="559" on="0"/>
        <pt x="329" y="552" on="0"/>
        <pt x="331" y="547" on="1"/>
        <pt x="333" y="528" on="0"/>
        <pt x="340" y="522" on="1"/>
        <pt x="342" y="513" on="0"/>
        <pt x="346" y="510" on="1"/>
        <pt x="349" y="499" on="0"/>
        <pt x="354" y="476" on="0"/>
        <pt x="358" y="465" on="1"/>
        <pt x="360" y="461" on="0"/>
        <pt x="364" y="454" on="0"/>
        <pt x="366" y="450" on="1"/>
        <pt x="368" y="445" on="0"/>
        <pt x="374" y="434" on="0"/>
        <pt x="375" y="429" on="1"/>
        <pt x="375" y="420" on="0"/>
        <pt x="377" y="415" on="0"/>
        <pt x="378" y="413" on="1"/>
        <pt x="380" y="404" on="0"/>
        <pt x="383" y="390" on="0"/>
        <pt x="387" y="383" on="1"/>
        <pt x="387" y="378" on="0"/>
        <pt x="391" y="371" on="0"/>
        <pt x="391" y="366" on="1"/>
        <pt x="398" y="349" on="0"/>
        <pt x="413" y="331" on="0"/>
        <pt x="417" y="318" on="1"/>
        <pt x="420" y="314" on="0"/>
        <pt x="424" y="307" on="0"/>
        <pt x="425" y="301" on="1"/>
        <pt x="430" y="289" on="0"/>
        <pt x="429" y="286" on="0"/>
        <pt x="430" y="284" on="1"/>
        <pt x="432" y="279" on="0"/>
        <pt x="435" y="268" on="0"/>
        <pt x="437" y="263" on="1"/>
        <pt x="439" y="251" on="0"/>
        <pt x="441" y="246" on="0"/>
        <pt x="441" y="244" on="1"/>
        <pt x="443" y="239" on="0"/>
        <pt x="441" y="226" on="0"/>
        <pt x="442" y="220" on="1"/>
        <pt x="443" y="217" on="0"/>
        <pt x="446" y="212" on="0"/>
      </contour>
      <contour>
        <pt x="226" y="494" on="1"/>
        <pt x="220" y="489" on="0"/>
        <pt x="216" y="474" on="0"/>
        <pt x="216" y="466" on="1"/>
        <pt x="214" y="463" on="0"/>
        <pt x="211" y="455" on="0"/>
        <pt x="209" y="451" on="1"/>
        <pt x="208" y="443" on="0"/>
        <pt x="207" y="423" on="0"/>
        <pt x="204" y="414" on="1"/>
        <pt x="195" y="399" on="0"/>
        <pt x="195" y="380" on="1"/>
        <pt x="195" y="377" on="0"/>
        <pt x="197" y="370" on="0"/>
        <pt x="195" y="367" on="1"/>
        <pt x="194" y="363" on="0"/>
        <pt x="190" y="359" on="0"/>
        <pt x="189" y="357" on="1"/>
        <pt x="187" y="350" on="0"/>
        <pt x="185" y="337" on="0"/>
        <pt x="183" y="330" on="1"/>
        <pt x="181" y="320" on="0"/>
        <pt x="174" y="304" on="0"/>
        <pt x="170" y="296" on="1"/>
        <pt x="167" y="289" on="0"/>
        <pt x="167" y="272" on="0"/>
        <pt x="169" y="265" on="1"/>
        <pt x="174" y="260" on="0"/>
        <pt x="179" y="247" on="0"/>
        <pt x="189" y="246" on="1"/>
        <pt x="199" y="242" on="0"/>
        <pt x="205" y="234" on="0"/>
        <pt x="210" y="232" on="1"/>
        <pt x="214" y="230" on="0"/>
        <pt x="220" y="231" on="0"/>
        <pt x="222" y="229" on="1"/>
        <pt x="227" y="229" on="0"/>
        <pt x="235" y="225" on="0"/>
        <pt x="241" y="224" on="1"/>
        <pt x="251" y="222" on="0"/>
        <pt x="271" y="226" on="0"/>
        <pt x="281" y="224" on="1"/>
        <pt x="286" y="226" on="0"/>
        <pt x="299" y="226" on="0"/>
        <pt x="306" y="229" on="1"/>
        <pt x="314" y="229" on="0"/>
        <pt x="322" y="235" on="0"/>
        <pt x="324" y="240" on="1"/>
        <pt x="326" y="246" on="0"/>
        <pt x="322" y="263" on="0"/>
        <pt x="324" y="271" on="1"/>
        <pt x="318" y="282" on="0"/>
        <pt x="314" y="305" on="0"/>
        <pt x="307" y="315" on="1"/>
        <pt x="301" y="333" on="0"/>
        <pt x="291" y="348" on="0"/>
        <pt x="289" y="358" on="1"/>
        <pt x="288" y="371" on="0"/>
        <pt x="282" y="383" on="0"/>
        <pt x="284" y="390" on="1"/>
        <pt x="282" y="395" on="0"/>
        <pt x="280" y="403" on="0"/>
        <pt x="278" y="409" on="1"/>
        <pt x="273" y="411" on="0"/>
        <pt x="272" y="422" on="0"/>
        <pt x="270" y="426" on="1"/>
        <pt x="264" y="445" on="0"/>
        <pt x="260" y="480" on="0"/>
        <pt x="249" y="492" on="1"/>
        <pt x="241" y="492" on="0"/>
        <pt x="232" y="494" on="0"/>
      </contour>
      <contour>
        <pt x="93" y="578" on="1"/>
        <pt x="97" y="573" on="0"/>
        <pt x="97" y="561" on="0"/>
        <pt x="95" y="554" on="1"/>
        <pt x="93" y="552" on="0"/>
        <pt x="88" y="546" on="0"/>
        <pt x="89" y="543" on="1"/>
        <pt x="82" y="544" on="0"/>
        <pt x="73" y="545" on="0"/>
        <pt x="69" y="545" on="1"/>
        <pt x="61" y="548" on="0"/>
        <pt x="58" y="566" on="0"/>
        <pt x="59" y="574" on="1"/>
        <pt x="67" y="582" on="0"/>
        <pt x="74" y="584" on="0"/>
        <pt x="76" y="586" on="1"/>
        <pt x="87" y="586" on="0"/>
      </contour>
      <contour>
        <pt x="404" y="492" on="1"/>
        <pt x="402" y="494" on="0"/>
        <pt x="398" y="499" on="0"/>
        <pt x="394" y="500" on="1"/>
        <pt x="388" y="505" on="0"/>
        <pt x="385" y="524" on="0"/>
        <pt x="387" y="532" on="1"/>
        <pt x="389" y="537" on="0"/>
        <pt x="397" y="547" on="0"/>
        <pt x="403" y="549" on="1"/>
        <pt x="408" y="551" on="0"/>
        <pt x="414" y="545" on="0"/>
        <pt x="419" y="543" on="1"/>
        <pt x="423" y="536" on="0"/>
        <pt x="431" y="522" on="0"/>
        <pt x="429" y="514" on="1"/>
        <pt x="427" y="510" on="0"/>
        <pt x="422" y="506" on="0"/>
        <pt x="419" y="504" on="1"/>
        <pt x="415" y="499" on="0"/>
        <pt x="412" y="494" on="0"/>
      </contour>
      <contour>
        <pt x="425" y="470" on="1"/>
        <pt x="430" y="465" on="0"/>
        <pt x="428" y="447" on="0"/>
        <pt x="420" y="446" on="1"/>
        <pt x="412" y="445" on="0"/>
        <pt x="402" y="461" on="0"/>
        <pt x="407" y="469" on="1"/>
        <pt x="412" y="471" on="0"/>
        <pt x="421" y="470" on="0"/>
      </contour>
      <contour>
        <pt x="524" y="138" on="1"/>
        <pt x="536" y="133" on="0"/>
        <pt x="551" y="105" on="0"/>
        <pt x="547" y="88" on="1"/>
        <pt x="544" y="86" on="0"/>
        <pt x="541" y="81" on="0"/>
        <pt x="537" y="79" on="1"/>
        <pt x="529" y="80" on="0"/>
        <pt x="525" y="78" on="1"/>
        <pt x="522" y="79" on="0"/>
        <pt x="517" y="83" on="0"/>
        <pt x="512" y="82" on="1"/>
        <pt x="500" y="97" on="0"/>
        <pt x="500" y="121" on="0"/>
        <pt x="504" y="130" on="1"/>
        <pt x="509" y="133" on="0"/>
        <pt x="519" y="135" on="0"/>
      </contour>
      <contour>
        <pt x="226" y="100" on="1"/>
        <pt x="225" y="103" on="0"/>
        <pt x="221" y="109" on="0"/>
        <pt x="222" y="113" on="1"/>
        <pt x="231" y="131" on="0"/>
        <pt x="252" y="124" on="0"/>
        <pt x="250" y="111" on="1"/>
        <pt x="243" y="97" on="0"/>
      </contour>
      <contour>
        <pt x="286" y="100" on="1"/>
        <pt x="295" y="110" on="0"/>
        <pt x="300" y="115" on="0"/>
        <pt x="303" y="117" on="1"/>
        <pt x="313" y="120" on="0"/>
        <pt x="337" y="122" on="0"/>
        <pt x="345" y="114" on="1"/>
        <pt x="350" y="108" on="0"/>
        <pt x="356" y="91" on="0"/>
        <pt x="350" y="83" on="1"/>
        <pt x="344" y="81" on="0"/>
        <pt x="335" y="73" on="0"/>
        <pt x="327" y="74" on="1"/>
        <pt x="313" y="75" on="0"/>
        <pt x="300" y="82" on="1"/>
        <pt x="291" y="84" on="0"/>
        <pt x="288" y="92" on="0"/>
        <pt x="288" y="97" on="1"/>
      </contour>
    </TTGlyph>
    <TTGlyph name="AE" xMin="-48" yMin="-43" xMax="893" yMax="741">
      <contour>
        <pt x="253" y="684" on="1"/>
        <pt x="261" y="692" on="0"/>
        <pt x="269" y="711" on="0"/>
        <pt x="283" y="713" on="1"/>
        <pt x="290" y="718" on="0"/>
        <pt x="298" y="704" on="0"/>
        <pt x="299" y="697" on="1"/>
        <pt x="296" y="681" on="0"/>
        <pt x="282" y="654" on="0"/>
        <pt x="265" y="655" on="1"/>
        <pt x="262" y="658" on="0"/>
        <pt x="256" y="666" on="0"/>
        <pt x="256" y="673" on="1"/>
        <pt x="252" y="674" on="0"/>
        <pt x="254" y="681" on="0"/>
      </contour>
      <contour>
        <pt x="842" y="640" on="1"/>
        <pt x="833" y="634" on="0"/>
        <pt x="816" y="647" on="0"/>
        <pt x="821" y="658" on="1"/>
        <pt x="831" y="666" on="0"/>
        <pt x="846" y="650" on="0"/>
      </contour>
      <contour>
        <pt x="826" y="615" on="1"/>
        <pt x="830" y="609" on="0"/>
        <pt x="827" y="597" on="0"/>
        <pt x="817" y="588" on="0"/>
        <pt x="803" y="585" on="0"/>
        <pt x="796" y="588" on="1"/>
        <pt x="790" y="595" on="0"/>
        <pt x="792" y="610" on="0"/>
        <pt x="797" y="617" on="1"/>
        <pt x="802" y="622" on="0"/>
        <pt x="818" y="625" on="0"/>
        <pt x="824" y="620" on="1"/>
      </contour>
      <contour>
        <pt x="577" y="431" on="1"/>
        <pt x="586" y="428" on="0"/>
        <pt x="591" y="422" on="0"/>
        <pt x="593" y="420" on="1"/>
        <pt x="595" y="409" on="0"/>
        <pt x="582" y="390" on="0"/>
        <pt x="572" y="389" on="1"/>
        <pt x="555" y="397" on="1"/>
        <pt x="553" y="402" on="0"/>
        <pt x="552" y="419" on="0"/>
        <pt x="554" y="424" on="1"/>
        <pt x="570" y="431" on="0"/>
      </contour>
      <contour>
        <pt x="284" y="245" on="1"/>
        <pt x="283" y="248" on="0"/>
        <pt x="282" y="257" on="0"/>
        <pt x="287" y="262" on="1"/>
        <pt x="293" y="265" on="0"/>
        <pt x="296" y="270" on="0"/>
        <pt x="301" y="270" on="1"/>
        <pt x="311" y="267" on="0"/>
        <pt x="313" y="265" on="1"/>
        <pt x="318" y="256" on="0"/>
        <pt x="313" y="243" on="1"/>
        <pt x="308" y="240" on="0"/>
        <pt x="289" y="241" on="0"/>
      </contour>
      <contour>
        <pt x="248" y="263" on="1"/>
        <pt x="250" y="261" on="0"/>
        <pt x="258" y="258" on="0"/>
        <pt x="260" y="255" on="1"/>
        <pt x="263" y="247" on="0"/>
        <pt x="250" y="228" on="0"/>
        <pt x="248" y="222" on="1"/>
        <pt x="242" y="220" on="0"/>
        <pt x="231" y="212" on="0"/>
        <pt x="225" y="210" on="1"/>
        <pt x="222" y="207" on="0"/>
        <pt x="216" y="199" on="0"/>
        <pt x="209" y="201" on="1"/>
        <pt x="207" y="205" on="0"/>
        <pt x="204" y="214" on="0"/>
        <pt x="201" y="217" on="1"/>
        <pt x="201" y="230" on="0"/>
        <pt x="210" y="233" on="1"/>
        <pt x="216" y="247" on="0"/>
        <pt x="225" y="255" on="1"/>
        <pt x="229" y="256" on="0"/>
        <pt x="236" y="256" on="1"/>
        <pt x="238" y="258" on="0"/>
        <pt x="243" y="263" on="0"/>
      </contour>
      <contour>
        <pt x="886" y="-17" on="1"/>
        <pt x="880" y="-22" on="0"/>
        <pt x="859" y="-25" on="0"/>
        <pt x="852" y="-19" on="1"/>
        <pt x="850" y="-6" on="0"/>
        <pt x="860" y="9" on="0"/>
        <pt x="868" y="14" on="1"/>
        <pt x="871" y="16" on="0"/>
        <pt x="879" y="21" on="0"/>
        <pt x="885" y="19" on="1"/>
        <pt x="890" y="17" on="0"/>
        <pt x="893" y="8" on="0"/>
        <pt x="891" y="-3" on="0"/>
        <pt x="887" y="-14" on="0"/>
      </contour>
      <contour>
        <pt x="269" y="580" on="1"/>
        <pt x="273" y="588" on="0"/>
        <pt x="286" y="598" on="0"/>
        <pt x="286" y="605" on="1"/>
        <pt x="294" y="610" on="0"/>
        <pt x="302" y="625" on="0"/>
        <pt x="305" y="633" on="1"/>
        <pt x="310" y="642" on="0"/>
        <pt x="316" y="651" on="0"/>
        <pt x="318" y="659" on="1"/>
        <pt x="321" y="668" on="0"/>
        <pt x="326" y="671" on="1"/>
        <pt x="332" y="682" on="0"/>
        <pt x="340" y="699" on="0"/>
        <pt x="348" y="705" on="1"/>
        <pt x="362" y="723" on="0"/>
        <pt x="380" y="730" on="1"/>
        <pt x="385" y="737" on="0"/>
        <pt x="402" y="736" on="0"/>
        <pt x="411" y="737" on="1"/>
        <pt x="416" y="738" on="0"/>
        <pt x="425" y="741" on="0"/>
        <pt x="430" y="740" on="1"/>
        <pt x="451" y="735" on="0"/>
        <pt x="484" y="739" on="0"/>
        <pt x="505" y="735" on="1"/>
        <pt x="509" y="736" on="0"/>
        <pt x="513" y="733" on="0"/>
        <pt x="516" y="733" on="1"/>
        <pt x="521" y="732" on="0"/>
        <pt x="535" y="733" on="0"/>
        <pt x="540" y="731" on="1"/>
        <pt x="553" y="736" on="0"/>
        <pt x="577" y="732" on="0"/>
        <pt x="592" y="734" on="1"/>
        <pt x="606" y="734" on="0"/>
        <pt x="629" y="735" on="0"/>
        <pt x="637" y="733" on="1"/>
        <pt x="639" y="735" on="0"/>
        <pt x="647" y="735" on="0"/>
        <pt x="649" y="734" on="1"/>
        <pt x="660" y="736" on="0"/>
        <pt x="679" y="737" on="0"/>
        <pt x="687" y="736" on="1"/>
        <pt x="694" y="736" on="0"/>
        <pt x="701" y="736" on="0"/>
        <pt x="706" y="735" on="1"/>
        <pt x="711" y="735" on="0"/>
        <pt x="719" y="731" on="0"/>
        <pt x="722" y="731" on="1"/>
        <pt x="725" y="731" on="0"/>
        <pt x="730" y="734" on="0"/>
        <pt x="733" y="734" on="1"/>
        <pt x="736" y="735" on="0"/>
        <pt x="743" y="732" on="0"/>
        <pt x="748" y="732" on="1"/>
        <pt x="752" y="732" on="0"/>
        <pt x="758" y="733" on="0"/>
        <pt x="761" y="731" on="1"/>
        <pt x="768" y="731" on="0"/>
        <pt x="774" y="733" on="0"/>
        <pt x="778" y="731" on="1"/>
        <pt x="791" y="728" on="0"/>
        <pt x="804" y="706" on="0"/>
        <pt x="807" y="692" on="1"/>
        <pt x="803" y="682" on="0"/>
        <pt x="797" y="656" on="0"/>
        <pt x="795" y="644" on="1"/>
        <pt x="795" y="635" on="0"/>
        <pt x="788" y="633" on="1"/>
        <pt x="783" y="624" on="0"/>
        <pt x="774" y="610" on="0"/>
        <pt x="768" y="605" on="1"/>
        <pt x="765" y="603" on="0"/>
        <pt x="757" y="601" on="0"/>
        <pt x="755" y="597" on="1"/>
        <pt x="753" y="597" on="0"/>
        <pt x="744" y="597" on="0"/>
        <pt x="741" y="596" on="1"/>
        <pt x="730" y="595" on="0"/>
        <pt x="716" y="602" on="0"/>
        <pt x="709" y="602" on="1"/>
        <pt x="703" y="605" on="0"/>
        <pt x="691" y="611" on="0"/>
        <pt x="688" y="618" on="1"/>
        <pt x="681" y="618" on="0"/>
        <pt x="675" y="627" on="0"/>
        <pt x="670" y="629" on="1"/>
        <pt x="663" y="629" on="0"/>
        <pt x="661" y="631" on="0"/>
        <pt x="659" y="631" on="1"/>
        <pt x="641" y="634" on="1"/>
        <pt x="631" y="630" on="0"/>
        <pt x="610" y="638" on="0"/>
        <pt x="600" y="638" on="1"/>
        <pt x="596" y="639" on="0"/>
        <pt x="588" y="639" on="0"/>
        <pt x="585" y="642" on="1"/>
        <pt x="583" y="641" on="0"/>
        <pt x="578" y="643" on="0"/>
        <pt x="574" y="642" on="1"/>
        <pt x="561" y="642" on="0"/>
        <pt x="542" y="643" on="0"/>
        <pt x="534" y="638" on="1"/>
        <pt x="527" y="615" on="0"/>
        <pt x="526" y="570" on="0"/>
        <pt x="531" y="547" on="1"/>
        <pt x="535" y="535" on="0"/>
        <pt x="537" y="518" on="0"/>
        <pt x="537" y="508" on="1"/>
        <pt x="535" y="504" on="0"/>
        <pt x="534" y="495" on="0"/>
        <pt x="530" y="492" on="1"/>
        <pt x="532" y="487" on="0"/>
        <pt x="528" y="478" on="0"/>
        <pt x="527" y="473" on="1"/>
        <pt x="522" y="460" on="0"/>
        <pt x="522" y="442" on="1"/>
        <pt x="523" y="438" on="0"/>
        <pt x="526" y="430" on="0"/>
        <pt x="526" y="425" on="1"/>
        <pt x="526" y="418" on="0"/>
        <pt x="523" y="404" on="0"/>
        <pt x="523" y="396" on="1"/>
        <pt x="523" y="383" on="0"/>
        <pt x="531" y="372" on="1"/>
        <pt x="536" y="370" on="0"/>
        <pt x="545" y="372" on="0"/>
        <pt x="550" y="372" on="1"/>
        <pt x="555" y="376" on="0"/>
        <pt x="573" y="378" on="0"/>
        <pt x="579" y="374" on="1"/>
        <pt x="588" y="375" on="0"/>
        <pt x="610" y="373" on="0"/>
        <pt x="618" y="372" on="1"/>
        <pt x="628" y="374" on="0"/>
        <pt x="636" y="371" on="0"/>
        <pt x="640" y="371" on="1"/>
        <pt x="648" y="372" on="0"/>
        <pt x="658" y="374" on="0"/>
        <pt x="665" y="375" on="1"/>
        <pt x="679" y="378" on="0"/>
        <pt x="685" y="382" on="0"/>
        <pt x="690" y="384" on="1"/>
        <pt x="697" y="385" on="0"/>
        <pt x="709" y="383" on="0"/>
        <pt x="717" y="382" on="1"/>
        <pt x="737" y="383" on="0"/>
        <pt x="761" y="375" on="0"/>
        <pt x="769" y="368" on="1"/>
        <pt x="775" y="358" on="0"/>
        <pt x="777" y="353" on="0"/>
        <pt x="778" y="351" on="1"/>
        <pt x="779" y="343" on="0"/>
        <pt x="782" y="325" on="0"/>
        <pt x="780" y="317" on="1"/>
        <pt x="779" y="313" on="0"/>
        <pt x="774" y="307" on="0"/>
        <pt x="773" y="302" on="1"/>
        <pt x="768" y="293" on="0"/>
        <pt x="767" y="288" on="1"/>
        <pt x="761" y="285" on="0"/>
        <pt x="754" y="275" on="0"/>
        <pt x="749" y="271" on="1"/>
        <pt x="744" y="269" on="0"/>
        <pt x="738" y="267" on="0"/>
        <pt x="731" y="268" on="1"/>
        <pt x="729" y="268" on="0"/>
        <pt x="719" y="268" on="0"/>
        <pt x="716" y="269" on="1"/>
        <pt x="713" y="271" on="0"/>
        <pt x="702" y="274" on="0"/>
        <pt x="698" y="278" on="1"/>
        <pt x="680" y="271" on="0"/>
        <pt x="663" y="283" on="1"/>
        <pt x="655" y="280" on="0"/>
        <pt x="651" y="285" on="1"/>
        <pt x="640" y="286" on="0"/>
        <pt x="619" y="288" on="0"/>
        <pt x="607" y="286" on="1"/>
        <pt x="589" y="287" on="0"/>
        <pt x="568" y="286" on="0"/>
        <pt x="554" y="284" on="1"/>
        <pt x="544" y="293" on="0"/>
        <pt x="542" y="296" on="0"/>
        <pt x="540" y="298" on="1"/>
        <pt x="532" y="295" on="0"/>
        <pt x="529" y="292" on="1"/>
        <pt x="519" y="290" on="0"/>
        <pt x="515" y="287" on="1"/>
        <pt x="515" y="272" on="0"/>
        <pt x="515" y="239" on="0"/>
        <pt x="517" y="222" on="1"/>
        <pt x="521" y="209" on="0"/>
        <pt x="519" y="199" on="0"/>
        <pt x="519" y="193" on="1"/>
        <pt x="524" y="172" on="0"/>
        <pt x="527" y="146" on="0"/>
        <pt x="528" y="129" on="1"/>
        <pt x="523" y="119" on="0"/>
        <pt x="524" y="93" on="0"/>
        <pt x="531" y="85" on="1"/>
        <pt x="534" y="82" on="0"/>
        <pt x="537" y="79" on="0"/>
        <pt x="540" y="78" on="1"/>
        <pt x="545" y="76" on="0"/>
        <pt x="556" y="79" on="0"/>
        <pt x="561" y="81" on="1"/>
        <pt x="565" y="81" on="0"/>
        <pt x="572" y="81" on="0"/>
        <pt x="575" y="83" on="1"/>
        <pt x="579" y="81" on="0"/>
        <pt x="587" y="81" on="0"/>
        <pt x="590" y="81" on="1"/>
        <pt x="598" y="81" on="0"/>
        <pt x="614" y="82" on="0"/>
        <pt x="622" y="80" on="1"/>
        <pt x="627" y="79" on="0"/>
        <pt x="639" y="79" on="0"/>
        <pt x="644" y="78" on="1"/>
        <pt x="647" y="78" on="0"/>
        <pt x="653" y="76" on="0"/>
        <pt x="655" y="76" on="1"/>
        <pt x="669" y="75" on="0"/>
        <pt x="691" y="83" on="0"/>
        <pt x="702" y="83" on="1"/>
        <pt x="706" y="86" on="0"/>
        <pt x="716" y="88" on="0"/>
        <pt x="718" y="92" on="1"/>
        <pt x="724" y="94" on="0"/>
        <pt x="732" y="97" on="0"/>
        <pt x="737" y="99" on="1"/>
        <pt x="748" y="103" on="0"/>
        <pt x="768" y="115" on="0"/>
        <pt x="779" y="111" on="1"/>
        <pt x="782" y="113" on="0"/>
        <pt x="793" y="111" on="0"/>
        <pt x="795" y="109" on="1"/>
        <pt x="803" y="110" on="0"/>
        <pt x="809" y="102" on="0"/>
        <pt x="814" y="101" on="1"/>
        <pt x="821" y="94" on="0"/>
        <pt x="823" y="94" on="0"/>
        <pt x="824" y="93" on="1"/>
        <pt x="833" y="84" on="0"/>
        <pt x="837" y="78" on="0"/>
        <pt x="838" y="72" on="1"/>
        <pt x="839" y="69" on="0"/>
        <pt x="837" y="65" on="0"/>
        <pt x="836" y="61" on="1"/>
        <pt x="836" y="51" on="0"/>
        <pt x="830" y="27" on="0"/>
        <pt x="834" y="19" on="1"/>
        <pt x="829" y="-1" on="0"/>
        <pt x="816" y="-17" on="0"/>
        <pt x="809" y="-25" on="1"/>
        <pt x="803" y="-25" on="0"/>
        <pt x="798" y="-28" on="0"/>
        <pt x="793" y="-26" on="1"/>
        <pt x="789" y="-29" on="0"/>
        <pt x="783" y="-27" on="0"/>
        <pt x="779" y="-27" on="1"/>
        <pt x="771" y="-28" on="0"/>
        <pt x="758" y="-20" on="0"/>
        <pt x="749" y="-22" on="1"/>
        <pt x="742" y="-23" on="0"/>
        <pt x="737" y="-20" on="0"/>
        <pt x="734" y="-20" on="1"/>
        <pt x="728" y="-19" on="0"/>
        <pt x="716" y="-22" on="0"/>
        <pt x="709" y="-22" on="1"/>
        <pt x="694" y="-26" on="0"/>
        <pt x="685" y="-28" on="0"/>
        <pt x="680" y="-29" on="1"/>
        <pt x="672" y="-31" on="0"/>
        <pt x="654" y="-26" on="0"/>
        <pt x="646" y="-30" on="1"/>
        <pt x="625" y="-35" on="0"/>
        <pt x="597" y="-39" on="0"/>
        <pt x="583" y="-36" on="1"/>
        <pt x="580" y="-40" on="0"/>
        <pt x="568" y="-38" on="0"/>
        <pt x="563" y="-41" on="1"/>
        <pt x="558" y="-39" on="0"/>
        <pt x="549" y="-42" on="0"/>
        <pt x="546" y="-39" on="1"/>
        <pt x="544" y="-41" on="0"/>
        <pt x="538" y="-40" on="0"/>
        <pt x="534" y="-40" on="1"/>
        <pt x="521" y="-42" on="0"/>
        <pt x="513" y="-42" on="0"/>
        <pt x="507" y="-43" on="1"/>
        <pt x="501" y="-40" on="0"/>
        <pt x="488" y="-38" on="0"/>
        <pt x="476" y="-36" on="0"/>
        <pt x="465" y="-31" on="0"/>
        <pt x="462" y="-26" on="1"/>
        <pt x="457" y="-26" on="0"/>
        <pt x="450" y="-24" on="0"/>
        <pt x="446" y="-22" on="1"/>
        <pt x="437" y="-20" on="0"/>
        <pt x="428" y="-14" on="0"/>
        <pt x="426" y="-9" on="1"/>
        <pt x="419" y="-1" on="0"/>
        <pt x="419" y="7" on="1"/>
        <pt x="414" y="20" on="0"/>
        <pt x="416" y="35" on="1"/>
        <pt x="413" y="44" on="0"/>
        <pt x="414" y="63" on="0"/>
        <pt x="413" y="72" on="1"/>
        <pt x="412" y="81" on="0"/>
        <pt x="411" y="88" on="0"/>
        <pt x="411" y="92" on="1"/>
        <pt x="411" y="97" on="0"/>
        <pt x="413" y="107" on="0"/>
        <pt x="413" y="112" on="1"/>
        <pt x="412" y="121" on="0"/>
        <pt x="407" y="139" on="0"/>
        <pt x="407" y="150" on="1"/>
        <pt x="411" y="155" on="0"/>
        <pt x="406" y="167" on="0"/>
        <pt x="411" y="169" on="1"/>
        <pt x="410" y="178" on="0"/>
        <pt x="415" y="188" on="0"/>
        <pt x="416" y="194" on="1"/>
        <pt x="417" y="203" on="0"/>
        <pt x="419" y="204" on="0"/>
        <pt x="419" y="205" on="1"/>
        <pt x="420" y="209" on="0"/>
        <pt x="418" y="214" on="0"/>
        <pt x="420" y="217" on="1"/>
        <pt x="418" y="225" on="0"/>
        <pt x="420" y="238" on="0"/>
        <pt x="422" y="246" on="1"/>
        <pt x="419" y="254" on="0"/>
        <pt x="422" y="272" on="0"/>
        <pt x="420" y="280" on="1"/>
        <pt x="425" y="284" on="0"/>
        <pt x="416" y="295" on="0"/>
        <pt x="413" y="298" on="1"/>
        <pt x="407" y="299" on="0"/>
        <pt x="394" y="305" on="0"/>
        <pt x="390" y="306" on="1"/>
        <pt x="385" y="307" on="0"/>
        <pt x="378" y="305" on="0"/>
        <pt x="373" y="304" on="1"/>
        <pt x="364" y="303" on="0"/>
        <pt x="350" y="303" on="0"/>
        <pt x="343" y="301" on="1"/>
        <pt x="338" y="299" on="0"/>
        <pt x="326" y="297" on="0"/>
        <pt x="321" y="295" on="1"/>
        <pt x="300" y="293" on="0"/>
        <pt x="278" y="303" on="0"/>
        <pt x="266" y="297" on="1"/>
        <pt x="249" y="297" on="0"/>
        <pt x="224" y="291" on="0"/>
        <pt x="212" y="284" on="1"/>
        <pt x="201" y="278" on="0"/>
        <pt x="197" y="267" on="1"/>
        <pt x="191" y="260" on="0"/>
        <pt x="188" y="260" on="0"/>
        <pt x="186" y="259" on="1"/>
        <pt x="179" y="248" on="0"/>
        <pt x="164" y="230" on="0"/>
        <pt x="154" y="222" on="1"/>
        <pt x="148" y="211" on="0"/>
        <pt x="138" y="202" on="1"/>
        <pt x="133" y="196" on="0"/>
        <pt x="124" y="181" on="0"/>
        <pt x="119" y="176" on="1"/>
        <pt x="113" y="170" on="0"/>
        <pt x="113" y="161" on="1"/>
        <pt x="111" y="154" on="0"/>
        <pt x="110" y="141" on="0"/>
        <pt x="104" y="136" on="1"/>
        <pt x="106" y="128" on="0"/>
        <pt x="97" y="117" on="0"/>
        <pt x="97" y="110" on="1"/>
        <pt x="97" y="105" on="0"/>
        <pt x="100" y="98" on="0"/>
        <pt x="99" y="93" on="1"/>
        <pt x="98" y="87" on="0"/>
        <pt x="95" y="78" on="0"/>
        <pt x="96" y="75" on="1"/>
        <pt x="91" y="67" on="0"/>
        <pt x="85" y="55" on="0"/>
        <pt x="86" y="46" on="1"/>
        <pt x="81" y="38" on="0"/>
        <pt x="73" y="30" on="0"/>
        <pt x="69" y="22" on="1"/>
        <pt x="62" y="15" on="0"/>
        <pt x="55" y="11" on="0"/>
        <pt x="53" y="7" on="1"/>
        <pt x="45" y="1" on="0"/>
        <pt x="39" y="1" on="0"/>
        <pt x="35" y="0" on="1"/>
        <pt x="31" y="0" on="0"/>
        <pt x="18" y="4" on="0"/>
        <pt x="12" y="6" on="1"/>
        <pt x="6" y="7" on="0"/>
        <pt x="-3" y="7" on="0"/>
        <pt x="-8" y="9" on="1"/>
        <pt x="-10" y="10" on="0"/>
        <pt x="-16" y="12" on="0"/>
        <pt x="-18" y="16" on="1"/>
        <pt x="-27" y="32" on="0"/>
        <pt x="-36" y="37" on="1"/>
        <pt x="-36" y="42" on="0"/>
        <pt x="-41" y="46" on="0"/>
        <pt x="-41" y="51" on="1"/>
        <pt x="-43" y="56" on="0"/>
        <pt x="-48" y="71" on="0"/>
        <pt x="-43" y="76" on="1"/>
        <pt x="-45" y="80" on="0"/>
        <pt x="-44" y="90" on="0"/>
        <pt x="-46" y="93" on="1"/>
        <pt x="-42" y="97" on="0"/>
        <pt x="-41" y="118" on="0"/>
        <pt x="-35" y="121" on="1"/>
        <pt x="-31" y="131" on="0"/>
        <pt x="-30" y="133" on="1"/>
        <pt x="-27" y="136" on="0"/>
        <pt x="-23" y="145" on="0"/>
        <pt x="-18" y="150" on="1"/>
        <pt x="-10" y="154" on="0"/>
        <pt x="9" y="159" on="0"/>
        <pt x="19" y="164" on="1"/>
        <pt x="37" y="186" on="0"/>
        <pt x="52" y="215" on="1"/>
        <pt x="59" y="226" on="0"/>
        <pt x="70" y="235" on="0"/>
        <pt x="73" y="242" on="1"/>
        <pt x="77" y="246" on="0"/>
        <pt x="80" y="251" on="0"/>
        <pt x="79" y="254" on="1"/>
        <pt x="86" y="262" on="0"/>
        <pt x="94" y="285" on="0"/>
        <pt x="103" y="291" on="1"/>
        <pt x="109" y="299" on="0"/>
        <pt x="114" y="303" on="0"/>
        <pt x="117" y="305" on="1"/>
        <pt x="122" y="315" on="0"/>
        <pt x="136" y="333" on="0"/>
        <pt x="142" y="344" on="1"/>
        <pt x="144" y="349" on="0"/>
        <pt x="149" y="359" on="0"/>
        <pt x="155" y="362" on="1"/>
        <pt x="156" y="367" on="0"/>
        <pt x="160" y="371" on="0"/>
        <pt x="162" y="374" on="1"/>
        <pt x="166" y="378" on="0"/>
        <pt x="173" y="386" on="0"/>
        <pt x="176" y="390" on="1"/>
        <pt x="188" y="400" on="0"/>
        <pt x="202" y="418" on="0"/>
        <pt x="210" y="427" on="1"/>
        <pt x="210" y="432" on="0"/>
        <pt x="213" y="438" on="0"/>
        <pt x="214" y="442" on="1"/>
        <pt x="216" y="454" on="1"/>
        <pt x="220" y="464" on="0"/>
        <pt x="223" y="465" on="1"/>
        <pt x="231" y="479" on="0"/>
        <pt x="236" y="494" on="0"/>
        <pt x="241" y="500" on="1"/>
        <pt x="243" y="506" on="0"/>
        <pt x="250" y="516" on="0"/>
        <pt x="250" y="524" on="1"/>
        <pt x="255" y="537" on="0"/>
        <pt x="258" y="561" on="0"/>
        <pt x="266" y="569" on="1"/>
        <pt x="264" y="573" on="0"/>
        <pt x="269" y="576" on="0"/>
      </contour>
      <contour>
        <pt x="426" y="454" on="1"/>
        <pt x="426" y="462" on="0"/>
        <pt x="425" y="478" on="0"/>
        <pt x="425" y="487" on="1"/>
        <pt x="424" y="499" on="0"/>
        <pt x="424" y="526" on="0"/>
        <pt x="422" y="537" on="1"/>
        <pt x="416" y="543" on="0"/>
        <pt x="407" y="559" on="0"/>
        <pt x="396" y="560" on="1"/>
        <pt x="394" y="557" on="0"/>
        <pt x="387" y="554" on="0"/>
        <pt x="384" y="552" on="1"/>
        <pt x="373" y="542" on="0"/>
        <pt x="358" y="519" on="0"/>
        <pt x="351" y="508" on="1"/>
        <pt x="341" y="491" on="0"/>
        <pt x="324" y="463" on="0"/>
        <pt x="315" y="449" on="1"/>
        <pt x="313" y="446" on="0"/>
        <pt x="308" y="441" on="0"/>
        <pt x="307" y="436" on="1"/>
        <pt x="298" y="424" on="0"/>
        <pt x="281" y="403" on="0"/>
        <pt x="273" y="391" on="1"/>
        <pt x="271" y="383" on="0"/>
        <pt x="273" y="371" on="0"/>
        <pt x="275" y="367" on="1"/>
        <pt x="280" y="363" on="0"/>
        <pt x="290" y="365" on="0"/>
        <pt x="295" y="364" on="1"/>
        <pt x="307" y="362" on="0"/>
        <pt x="329" y="358" on="0"/>
        <pt x="337" y="362" on="1"/>
        <pt x="343" y="365" on="0"/>
        <pt x="354" y="366" on="0"/>
        <pt x="360" y="366" on="1"/>
        <pt x="377" y="367" on="0"/>
        <pt x="404" y="375" on="0"/>
        <pt x="421" y="375" on="1"/>
        <pt x="426" y="391" on="0"/>
        <pt x="426" y="406" on="0"/>
        <pt x="428" y="411" on="1"/>
        <pt x="423" y="419" on="0"/>
        <pt x="427" y="436" on="0"/>
        <pt x="426" y="447" on="1"/>
      </contour>
    </TTGlyph>
    <TTGlyph name="Aacute" xMin="-23" yMin="-50" xMax="551" yMax="964">
      <component glyphName="A" x="0" y="0" flags="0x204"/>
      <component glyphName="acute" x="-50" y="195" flags="0x4"/>
    </TTGlyph>
    <TTGlyph name="Acircumflex" xMin="-23" yMin="-50" xMax="551" yMax="941">
      <component glyphName="A" x="0" y="0" flags="0x204"/>
      <component glyphName="circumflex" x="-91" y="184" flags="0x4"/>
    </TTGlyph>
    <TTGlyph name="Adieresis" xMin="-23" yMin="-50" xMax="551" yMax="890">
      <component glyphName="A" x="0" y="0" flags="0x204"/>
      <component glyphName="dieresis" x="-101" y="164" flags="0x4"/>
    </TTGlyph>
    <TTGlyph name="Agrave" xMin="-23" yMin="-50" xMax="551" yMax="973">
      <component glyphName="A" x="0" y="0" flags="0x204"/>
      <component glyphName="grave" x="-153" y="205" flags="0x4"/>
    </TTGlyph>
    <TTGlyph name="Aring" xMin="-23" yMin="-50" xMax="551" yMax="923">
      <contour>
        <pt x="226" y="494" on="1"/>
        <pt x="220" y="489" on="0"/>
        <pt x="216" y="474" on="0"/>
        <pt x="216" y="466" on="1"/>
        <pt x="214" y="463" on="0"/>
        <pt x="211" y="455" on="0"/>
        <pt x="209" y="451" on="1"/>
        <pt x="208" y="443" on="0"/>
        <pt x="207" y="423" on="0"/>
        <pt x="204" y="414" on="1"/>
        <pt x="195" y="399" on="0"/>
        <pt x="195" y="380" on="1"/>
        <pt x="195" y="377" on="0"/>
        <pt x="197" y="370" on="0"/>
        <pt x="195" y="367" on="1"/>
        <pt x="194" y="363" on="0"/>
        <pt x="190" y="359" on="0"/>
        <pt x="189" y="357" on="1"/>
        <pt x="187" y="350" on="0"/>
        <pt x="186" y="337" on="0"/>
        <pt x="184" y="330" on="1"/>
        <pt x="181" y="320" on="0"/>
        <pt x="174" y="304" on="0"/>
        <pt x="170" y="296" on="1"/>
        <pt x="167" y="289" on="0"/>
        <pt x="167" y="272" on="0"/>
        <pt x="169" y="265" on="1"/>
        <pt x="174" y="260" on="0"/>
        <pt x="179" y="247" on="0"/>
        <pt x="189" y="246" on="1"/>
        <pt x="200" y="242" on="0"/>
        <pt x="205" y="234" on="0"/>
        <pt x="210" y="232" on="1"/>
        <pt x="214" y="230" on="0"/>
        <pt x="220" y="231" on="0"/>
        <pt x="222" y="229" on="1"/>
        <pt x="227" y="229" on="0"/>
        <pt x="235" y="225" on="0"/>
        <pt x="241" y="224" on="1"/>
        <pt x="251" y="222" on="0"/>
        <pt x="271" y="226" on="0"/>
        <pt x="281" y="224" on="1"/>
        <pt x="286" y="226" on="0"/>
        <pt x="300" y="226" on="0"/>
        <pt x="306" y="229" on="1"/>
        <pt x="314" y="229" on="0"/>
        <pt x="322" y="235" on="0"/>
        <pt x="324" y="240" on="1"/>
        <pt x="326" y="246" on="0"/>
        <pt x="322" y="263" on="0"/>
        <pt x="324" y="271" on="1"/>
        <pt x="318" y="282" on="0"/>
        <pt x="314" y="305" on="0"/>
        <pt x="307" y="315" on="1"/>
        <pt x="301" y="333" on="0"/>
        <pt x="291" y="348" on="0"/>
        <pt x="289" y="358" on="1"/>
        <pt x="288" y="371" on="0"/>
        <pt x="282" y="383" on="0"/>
        <pt x="284" y="390" on="1"/>
        <pt x="282" y="395" on="0"/>
        <pt x="280" y="403" on="0"/>
        <pt x="278" y="409" on="1"/>
        <pt x="273" y="411" on="0"/>
        <pt x="272" y="422" on="0"/>
        <pt x="270" y="426" on="1"/>
        <pt x="264" y="445" on="0"/>
        <pt x="260" y="480" on="0"/>
        <pt x="249" y="492" on="1"/>
        <pt x="241" y="492" on="0"/>
        <pt x="232" y="494" on="0"/>
      </contour>
      <contour>
        <pt x="316" y="893" on="1"/>
        <pt x="326" y="882" on="0"/>
        <pt x="338" y="864" on="0"/>
        <pt x="343" y="853" on="1"/>
        <pt x="350" y="851" on="0"/>
        <pt x="350" y="832" on="0"/>
        <pt x="353" y="824" on="1"/>
        <pt x="349" y="813" on="0"/>
        <pt x="349" y="783" on="0"/>
        <pt x="343" y="772" on="1"/>
        <pt x="338" y="764" on="0"/>
        <pt x="334" y="755" on="0"/>
        <pt x="332" y="750" on="1"/>
        <pt x="330" y="748" on="0"/>
        <pt x="325" y="745" on="0"/>
        <pt x="322" y="744" on="1"/>
        <pt x="319" y="736" on="0"/>
        <pt x="307" y="728" on="0"/>
        <pt x="306" y="719" on="1"/>
        <pt x="303" y="716" on="0"/>
        <pt x="296" y="711" on="0"/>
        <pt x="293" y="708" on="1"/>
        <pt x="298" y="703" on="0"/>
        <pt x="306" y="693" on="0"/>
        <pt x="308" y="686" on="1"/>
        <pt x="311" y="674" on="0"/>
        <pt x="308" y="654" on="0"/>
        <pt x="306" y="643" on="1"/>
        <pt x="306" y="633" on="0"/>
        <pt x="309" y="619" on="0"/>
        <pt x="311" y="613" on="1"/>
        <pt x="313" y="601" on="0"/>
        <pt x="316" y="595" on="0"/>
        <pt x="316" y="593" on="1"/>
        <pt x="316" y="588" on="0"/>
        <pt x="319" y="582" on="0"/>
        <pt x="321" y="579" on="1"/>
        <pt x="322" y="574" on="0"/>
        <pt x="322" y="567" on="0"/>
        <pt x="323" y="564" on="1"/>
        <pt x="325" y="559" on="0"/>
        <pt x="329" y="552" on="0"/>
        <pt x="331" y="547" on="1"/>
        <pt x="333" y="528" on="0"/>
        <pt x="340" y="522" on="1"/>
        <pt x="342" y="513" on="0"/>
        <pt x="346" y="511" on="1"/>
        <pt x="349" y="500" on="0"/>
        <pt x="354" y="476" on="0"/>
        <pt x="358" y="465" on="1"/>
        <pt x="360" y="461" on="0"/>
        <pt x="364" y="455" on="0"/>
        <pt x="366" y="450" on="1"/>
        <pt x="368" y="445" on="0"/>
        <pt x="374" y="434" on="0"/>
        <pt x="375" y="429" on="1"/>
        <pt x="375" y="420" on="0"/>
        <pt x="377" y="415" on="0"/>
        <pt x="378" y="413" on="1"/>
        <pt x="380" y="404" on="0"/>
        <pt x="383" y="390" on="0"/>
        <pt x="387" y="383" on="1"/>
        <pt x="387" y="378" on="0"/>
        <pt x="391" y="371" on="0"/>
        <pt x="391" y="366" on="1"/>
        <pt x="398" y="349" on="0"/>
        <pt x="413" y="331" on="0"/>
        <pt x="417" y="318" on="1"/>
        <pt x="420" y="314" on="0"/>
        <pt x="424" y="307" on="0"/>
        <pt x="425" y="301" on="1"/>
        <pt x="430" y="289" on="0"/>
        <pt x="429" y="286" on="0"/>
        <pt x="430" y="284" on="1"/>
        <pt x="432" y="279" on="0"/>
        <pt x="435" y="269" on="0"/>
        <pt x="437" y="264" on="1"/>
        <pt x="439" y="251" on="0"/>
        <pt x="441" y="246" on="0"/>
        <pt x="441" y="244" on="1"/>
        <pt x="443" y="239" on="0"/>
        <pt x="441" y="226" on="0"/>
        <pt x="443" y="220" on="1"/>
        <pt x="443" y="217" on="0"/>
        <pt x="446" y="212" on="0"/>
        <pt x="445" y="208" on="1"/>
        <pt x="449" y="196" on="0"/>
        <pt x="455" y="182" on="0"/>
        <pt x="453" y="175" on="1"/>
        <pt x="456" y="168" on="0"/>
        <pt x="459" y="153" on="0"/>
        <pt x="462" y="146" on="1"/>
        <pt x="463" y="139" on="0"/>
        <pt x="469" y="125" on="0"/>
        <pt x="471" y="119" on="1"/>
        <pt x="472" y="111" on="0"/>
        <pt x="477" y="101" on="0"/>
        <pt x="478" y="94" on="1"/>
        <pt x="485" y="82" on="0"/>
        <pt x="490" y="71" on="0"/>
        <pt x="493" y="66" on="1"/>
        <pt x="495" y="60" on="0"/>
        <pt x="503" y="54" on="0"/>
        <pt x="506" y="49" on="1"/>
        <pt x="508" y="45" on="0"/>
        <pt x="509" y="36" on="0"/>
        <pt x="513" y="33" on="1"/>
        <pt x="514" y="28" on="0"/>
        <pt x="517" y="19" on="0"/>
        <pt x="519" y="14" on="1"/>
        <pt x="518" y="11" on="0"/>
        <pt x="519" y="6" on="0"/>
        <pt x="520" y="2" on="1"/>
        <pt x="515" y="-12" on="0"/>
        <pt x="500" y="-35" on="0"/>
        <pt x="487" y="-39" on="1"/>
        <pt x="482" y="-41" on="0"/>
        <pt x="473" y="-41" on="0"/>
        <pt x="471" y="-46" on="1"/>
        <pt x="465" y="-45" on="0"/>
        <pt x="452" y="-50" on="0"/>
        <pt x="447" y="-48" on="1"/>
        <pt x="438" y="-43" on="0"/>
        <pt x="436" y="-40" on="0"/>
        <pt x="435" y="-40" on="1"/>
        <pt x="429" y="-36" on="0"/>
        <pt x="424" y="-36" on="0"/>
        <pt x="422" y="-34" on="1"/>
        <pt x="415" y="-29" on="0"/>
        <pt x="406" y="-10" on="0"/>
        <pt x="404" y="-1" on="1"/>
        <pt x="396" y="7" on="0"/>
        <pt x="394" y="18" on="0"/>
        <pt x="390" y="23" on="1"/>
        <pt x="389" y="40" on="0"/>
        <pt x="391" y="75" on="0"/>
        <pt x="386" y="91" on="1"/>
        <pt x="384" y="96" on="0"/>
        <pt x="380" y="106" on="0"/>
        <pt x="378" y="112" on="1"/>
        <pt x="376" y="126" on="0"/>
        <pt x="366" y="140" on="0"/>
        <pt x="364" y="148" on="1"/>
        <pt x="354" y="150" on="0"/>
        <pt x="332" y="151" on="0"/>
        <pt x="321" y="152" on="1"/>
        <pt x="314" y="153" on="0"/>
        <pt x="303" y="154" on="0"/>
        <pt x="297" y="153" on="1"/>
        <pt x="287" y="152" on="0"/>
        <pt x="267" y="157" on="0"/>
        <pt x="256" y="158" on="1"/>
        <pt x="248" y="159" on="0"/>
        <pt x="231" y="158" on="0"/>
        <pt x="223" y="159" on="1"/>
        <pt x="212" y="160" on="0"/>
        <pt x="207" y="159" on="0"/>
        <pt x="204" y="159" on="1"/>
        <pt x="193" y="160" on="0"/>
        <pt x="172" y="160" on="0"/>
        <pt x="164" y="156" on="1"/>
        <pt x="153" y="149" on="0"/>
        <pt x="144" y="147" on="0"/>
        <pt x="139" y="145" on="1"/>
        <pt x="134" y="143" on="0"/>
        <pt x="127" y="133" on="0"/>
        <pt x="126" y="130" on="1"/>
        <pt x="124" y="123" on="0"/>
        <pt x="127" y="113" on="0"/>
        <pt x="125" y="108" on="1"/>
        <pt x="127" y="96" on="0"/>
        <pt x="124" y="66" on="0"/>
        <pt x="121" y="53" on="1"/>
        <pt x="126" y="42" on="0"/>
        <pt x="120" y="18" on="0"/>
        <pt x="120" y="7" on="1"/>
        <pt x="114" y="-7" on="0"/>
        <pt x="91" y="-24" on="0"/>
        <pt x="79" y="-32" on="1"/>
        <pt x="71" y="-33" on="0"/>
        <pt x="58" y="-38" on="0"/>
        <pt x="55" y="-43" on="1"/>
        <pt x="48" y="-44" on="0"/>
        <pt x="39" y="-38" on="0"/>
        <pt x="31" y="-39" on="1"/>
        <pt x="19" y="-45" on="0"/>
        <pt x="-1" y="-33" on="0"/>
        <pt x="-10" y="-29" on="1"/>
        <pt x="-12" y="-24" on="0"/>
        <pt x="-14" y="-13" on="0"/>
        <pt x="-18" y="-8" on="1"/>
        <pt x="-23" y="2" on="0"/>
        <pt x="-16" y="20" on="0"/>
        <pt x="-18" y="29" on="1"/>
        <pt x="-18" y="44" on="0"/>
        <pt x="-10" y="61" on="0"/>
        <pt x="-4" y="70" on="1"/>
        <pt x="-5" y="72" on="0"/>
        <pt x="-4" y="78" on="0"/>
        <pt x="-5" y="81" on="1"/>
        <pt x="-2" y="83" on="0"/>
        <pt x="5" y="87" on="0"/>
        <pt x="3" y="92" on="1"/>
        <pt x="7" y="99" on="0"/>
        <pt x="15" y="110" on="0"/>
        <pt x="15" y="117" on="1"/>
        <pt x="24" y="132" on="0"/>
        <pt x="33" y="143" on="0"/>
        <pt x="38" y="150" on="1"/>
        <pt x="36" y="154" on="0"/>
        <pt x="34" y="162" on="1"/>
        <pt x="32" y="167" on="0"/>
        <pt x="23" y="182" on="0"/>
        <pt x="23" y="190" on="1"/>
        <pt x="23" y="193" on="0"/>
        <pt x="25" y="208" on="0"/>
        <pt x="27" y="210" on="1"/>
        <pt x="35" y="223" on="0"/>
        <pt x="45" y="228" on="0"/>
        <pt x="48" y="232" on="1"/>
        <pt x="51" y="241" on="0"/>
        <pt x="56" y="260" on="0"/>
        <pt x="57" y="269" on="1"/>
        <pt x="59" y="281" on="0"/>
        <pt x="57" y="300" on="0"/>
        <pt x="65" y="307" on="1"/>
        <pt x="71" y="317" on="0"/>
        <pt x="73" y="322" on="1"/>
        <pt x="72" y="328" on="0"/>
        <pt x="77" y="343" on="0"/>
        <pt x="81" y="348" on="1"/>
        <pt x="83" y="357" on="0"/>
        <pt x="88" y="378" on="0"/>
        <pt x="92" y="386" on="1"/>
        <pt x="92" y="391" on="0"/>
        <pt x="97" y="399" on="0"/>
        <pt x="95" y="404" on="1"/>
        <pt x="99" y="415" on="0"/>
        <pt x="103" y="443" on="0"/>
        <pt x="109" y="453" on="1"/>
        <pt x="110" y="458" on="0"/>
        <pt x="109" y="465" on="0"/>
        <pt x="110" y="469" on="1"/>
        <pt x="112" y="477" on="0"/>
        <pt x="122" y="487" on="0"/>
        <pt x="124" y="495" on="1"/>
        <pt x="128" y="507" on="0"/>
        <pt x="132" y="517" on="0"/>
        <pt x="132" y="522" on="1"/>
        <pt x="132" y="526" on="0"/>
        <pt x="127" y="533" on="0"/>
        <pt x="127" y="538" on="1"/>
        <pt x="126" y="543" on="0"/>
        <pt x="128" y="554" on="0"/>
        <pt x="127" y="561" on="1"/>
        <pt x="137" y="579" on="0"/>
        <pt x="141" y="602" on="0"/>
        <pt x="144" y="614" on="1"/>
        <pt x="142" y="621" on="0"/>
        <pt x="140" y="632" on="0"/>
        <pt x="138" y="637" on="1"/>
        <pt x="133" y="640" on="0"/>
        <pt x="129" y="652" on="0"/>
        <pt x="127" y="658" on="1"/>
        <pt x="130" y="665" on="0"/>
        <pt x="134" y="678" on="0"/>
        <pt x="139" y="681" on="1"/>
        <pt x="140" y="690" on="0"/>
        <pt x="150" y="695" on="1"/>
        <pt x="142" y="709" on="0"/>
        <pt x="133" y="725" on="0"/>
        <pt x="131" y="736" on="1"/>
        <pt x="122" y="754" on="0"/>
        <pt x="110" y="770" on="0"/>
        <pt x="109" y="783" on="1"/>
        <pt x="109" y="791" on="0"/>
        <pt x="109" y="804" on="0"/>
        <pt x="105" y="809" on="1"/>
        <pt x="108" y="820" on="0"/>
        <pt x="107" y="830" on="0"/>
        <pt x="109" y="836" on="1"/>
        <pt x="118" y="857" on="0"/>
        <pt x="137" y="881" on="0"/>
        <pt x="148" y="889" on="1"/>
        <pt x="160" y="891" on="0"/>
        <pt x="173" y="901" on="0"/>
        <pt x="183" y="906" on="1"/>
        <pt x="191" y="915" on="0"/>
        <pt x="214" y="916" on="0"/>
        <pt x="223" y="922" on="1"/>
        <pt x="230" y="922" on="0"/>
        <pt x="245" y="923" on="0"/>
        <pt x="251" y="922" on="1"/>
        <pt x="264" y="919" on="0"/>
        <pt x="271" y="914" on="0"/>
        <pt x="276" y="911" on="1"/>
        <pt x="284" y="907" on="0"/>
        <pt x="300" y="902" on="0"/>
        <pt x="304" y="896" on="1"/>
        <pt x="307" y="897" on="0"/>
        <pt x="313" y="893" on="0"/>
      </contour>
      <contour>
        <pt x="236" y="853" on="1"/>
        <pt x="228" y="857" on="0"/>
        <pt x="214" y="855" on="0"/>
        <pt x="202" y="846" on="0"/>
        <pt x="191" y="833" on="0"/>
        <pt x="187" y="827" on="1"/>
        <pt x="184" y="819" on="0"/>
        <pt x="184" y="802" on="0"/>
        <pt x="184" y="793" on="1"/>
        <pt x="184" y="788" on="0"/>
        <pt x="181" y="780" on="0"/>
        <pt x="182" y="775" on="1"/>
        <pt x="187" y="759" on="0"/>
        <pt x="206" y="740" on="0"/>
        <pt x="219" y="741" on="1"/>
        <pt x="223" y="741" on="0"/>
        <pt x="240" y="748" on="0"/>
        <pt x="243" y="749" on="1"/>
        <pt x="245" y="751" on="0"/>
        <pt x="251" y="757" on="0"/>
        <pt x="254" y="759" on="1"/>
        <pt x="264" y="764" on="0"/>
        <pt x="275" y="783" on="0"/>
        <pt x="282" y="790" on="1"/>
        <pt x="289" y="798" on="0"/>
        <pt x="280" y="814" on="0"/>
        <pt x="280" y="825" on="1"/>
        <pt x="272" y="829" on="0"/>
        <pt x="263" y="844" on="0"/>
        <pt x="255" y="847" on="1"/>
        <pt x="239" y="846" on="0"/>
      </contour>
      <contour>
        <pt x="93" y="578" on="1"/>
        <pt x="97" y="573" on="0"/>
        <pt x="97" y="561" on="0"/>
        <pt x="95" y="554" on="1"/>
        <pt x="93" y="552" on="0"/>
        <pt x="88" y="546" on="0"/>
        <pt x="89" y="543" on="1"/>
        <pt x="82" y="544" on="0"/>
        <pt x="73" y="545" on="0"/>
        <pt x="69" y="545" on="1"/>
        <pt x="61" y="548" on="0"/>
        <pt x="58" y="566" on="0"/>
        <pt x="59" y="574" on="1"/>
        <pt x="67" y="582" on="0"/>
        <pt x="74" y="584" on="0"/>
        <pt x="76" y="586" on="1"/>
        <pt x="87" y="586" on="0"/>
      </contour>
      <contour>
        <pt x="406" y="492" on="1"/>
        <pt x="402" y="494" on="0"/>
        <pt x="398" y="499" on="0"/>
        <pt x="394" y="500" on="1"/>
        <pt x="388" y="505" on="0"/>
        <pt x="385" y="524" on="0"/>
        <pt x="387" y="532" on="1"/>
        <pt x="389" y="537" on="0"/>
        <pt x="397" y="547" on="0"/>
        <pt x="403" y="549" on="1"/>
        <pt x="408" y="551" on="0"/>
        <pt x="414" y="545" on="0"/>
        <pt x="419" y="543" on="1"/>
        <pt x="423" y="536" on="0"/>
        <pt x="431" y="522" on="0"/>
        <pt x="429" y="514" on="1"/>
        <pt x="427" y="510" on="0"/>
        <pt x="421" y="506" on="0"/>
        <pt x="419" y="504" on="1"/>
        <pt x="415" y="499" on="0"/>
        <pt x="412" y="494" on="0"/>
      </contour>
      <contour>
        <pt x="425" y="470" on="1"/>
        <pt x="430" y="465" on="0"/>
        <pt x="428" y="447" on="0"/>
        <pt x="420" y="446" on="1"/>
        <pt x="412" y="445" on="0"/>
        <pt x="402" y="461" on="0"/>
        <pt x="407" y="469" on="1"/>
        <pt x="412" y="471" on="0"/>
        <pt x="421" y="470" on="0"/>
      </contour>
      <contour>
        <pt x="524" y="138" on="1"/>
        <pt x="536" y="133" on="0"/>
        <pt x="551" y="105" on="0"/>
        <pt x="547" y="88" on="1"/>
        <pt x="544" y="86" on="0"/>
        <pt x="541" y="81" on="0"/>
        <pt x="537" y="79" on="1"/>
        <pt x="529" y="80" on="0"/>
        <pt x="525" y="78" on="1"/>
        <pt x="522" y="79" on="0"/>
        <pt x="517" y="83" on="0"/>
        <pt x="512" y="82" on="1"/>
        <pt x="500" y="97" on="0"/>
        <pt x="500" y="121" on="0"/>
        <pt x="504" y="130" on="1"/>
        <pt x="509" y="133" on="0"/>
        <pt x="519" y="135" on="0"/>
      </contour>
      <contour>
        <pt x="226" y="100" on="1"/>
        <pt x="225" y="103" on="0"/>
        <pt x="221" y="109" on="0"/>
        <pt x="222" y="113" on="1"/>
        <pt x="231" y="131" on="0"/>
        <pt x="252" y="124" on="0"/>
        <pt x="250" y="111" on="1"/>
        <pt x="243" y="97" on="0"/>
      </contour>
      <contour>
        <pt x="286" y="101" on="1"/>
        <pt x="295" y="110" on="0"/>
        <pt x="300" y="115" on="0"/>
        <pt x="303" y="117" on="1"/>
        <pt x="313" y="120" on="0"/>
        <pt x="337" y="122" on="0"/>
        <pt x="345" y="114" on="1"/>
        <pt x="350" y="108" on="0"/>
        <pt x="356" y="91" on="0"/>
        <pt x="351" y="83" on="1"/>
        <pt x="344" y="81" on="0"/>
        <pt x="335" y="73" on="0"/>
        <pt x="327" y="74" on="1"/>
        <pt x="319" y="75" on="0"/>
        <pt x="307" y="79" on="0"/>
        <pt x="300" y="82" on="1"/>
        <pt x="291" y="84" on="0"/>
        <pt x="288" y="92" on="0"/>
        <pt x="288" y="97" on="1"/>
      </contour>
    </TTGlyph>
    <TTGlyph name="Atilde" xMin="-23" yMin="-50" xMax="551" yMax="916">
      <component glyphName="A" x="0" y="0" flags="0x204"/>
      <component glyphName="tilde" x="-91" y="184" flags="0x4"/>
    </TTGlyph>
    <TTGlyph name="B" xMin="-59" yMin="-33" xMax="523" yMax="757">
      <contour>
        <pt x="201" y="725" on="1"/>
        <pt x="225" y="724" on="0"/>
        <pt x="262" y="723" on="0"/>
        <pt x="282" y="724" on="1"/>
        <pt x="296" y="731" on="0"/>
        <pt x="339" y="727" on="0"/>
        <pt x="353" y="724" on="1"/>
        <pt x="357" y="726" on="0"/>
        <pt x="366" y="722" on="0"/>
        <pt x="371" y="724" on="1"/>
        <pt x="381" y="724" on="0"/>
        <pt x="402" y="708" on="0"/>
        <pt x="404" y="699" on="1"/>
        <pt x="410" y="693" on="0"/>
        <pt x="420" y="682" on="0"/>
        <pt x="425" y="675" on="1"/>
        <pt x="428" y="669" on="0"/>
        <pt x="432" y="664" on="0"/>
        <pt x="435" y="662" on="1"/>
        <pt x="437" y="654" on="0"/>
        <pt x="443" y="643" on="0"/>
        <pt x="445" y="636" on="1"/>
        <pt x="450" y="619" on="0"/>
        <pt x="451" y="582" on="0"/>
        <pt x="446" y="565" on="1"/>
        <pt x="445" y="547" on="0"/>
        <pt x="448" y="505" on="0"/>
        <pt x="440" y="488" on="1"/>
        <pt x="442" y="467" on="0"/>
        <pt x="422" y="442" on="0"/>
        <pt x="411" y="430" on="1"/>
        <pt x="405" y="424" on="0"/>
        <pt x="394" y="415" on="0"/>
        <pt x="389" y="413" on="1"/>
        <pt x="387" y="411" on="0"/>
        <pt x="381" y="411" on="0"/>
        <pt x="378" y="410" on="1"/>
        <pt x="375" y="409" on="0"/>
        <pt x="368" y="404" on="0"/>
        <pt x="364" y="402" on="1"/>
        <pt x="361" y="401" on="0"/>
        <pt x="355" y="401" on="0"/>
        <pt x="353" y="400" on="1"/>
        <pt x="342" y="396" on="0"/>
        <pt x="339" y="397" on="0"/>
        <pt x="337" y="396" on="1"/>
        <pt x="333" y="395" on="0"/>
        <pt x="326" y="391" on="0"/>
        <pt x="322" y="393" on="1"/>
        <pt x="311" y="387" on="0"/>
        <pt x="298" y="379" on="0"/>
        <pt x="293" y="374" on="1"/>
        <pt x="303" y="371" on="0"/>
        <pt x="314" y="361" on="0"/>
        <pt x="322" y="359" on="1"/>
        <pt x="337" y="358" on="0"/>
        <pt x="346" y="352" on="0"/>
        <pt x="351" y="350" on="1"/>
        <pt x="353" y="348" on="0"/>
        <pt x="360" y="349" on="0"/>
        <pt x="364" y="348" on="1"/>
        <pt x="372" y="347" on="0"/>
        <pt x="388" y="342" on="0"/>
        <pt x="393" y="335" on="1"/>
        <pt x="406" y="331" on="0"/>
        <pt x="425" y="318" on="0"/>
        <pt x="437" y="313" on="1"/>
        <pt x="444" y="303" on="0"/>
        <pt x="452" y="298" on="1"/>
        <pt x="454" y="291" on="0"/>
        <pt x="465" y="282" on="0"/>
        <pt x="463" y="273" on="1"/>
        <pt x="465" y="271" on="0"/>
        <pt x="466" y="265" on="0"/>
        <pt x="467" y="260" on="1"/>
        <pt x="467" y="257" on="0"/>
        <pt x="470" y="252" on="0"/>
        <pt x="470" y="249" on="1"/>
        <pt x="475" y="241" on="0"/>
        <pt x="477" y="215" on="0"/>
        <pt x="482" y="207" on="1"/>
        <pt x="490" y="183" on="0"/>
        <pt x="488" y="171" on="1"/>
        <pt x="486" y="158" on="0"/>
        <pt x="483" y="150" on="0"/>
        <pt x="482" y="146" on="1"/>
        <pt x="480" y="139" on="0"/>
        <pt x="479" y="126" on="0"/>
        <pt x="475" y="122" on="1"/>
        <pt x="475" y="116" on="0"/>
        <pt x="472" y="108" on="0"/>
        <pt x="470" y="103" on="1"/>
        <pt x="471" y="90" on="0"/>
        <pt x="454" y="69" on="0"/>
        <pt x="454" y="56" on="1"/>
        <pt x="448" y="48" on="0"/>
        <pt x="441" y="36" on="0"/>
        <pt x="436" y="31" on="1"/>
        <pt x="429" y="23" on="0"/>
        <pt x="420" y="21" on="0"/>
        <pt x="417" y="17" on="1"/>
        <pt x="412" y="15" on="0"/>
        <pt x="400" y="12" on="0"/>
        <pt x="396" y="9" on="1"/>
        <pt x="388" y="6" on="0"/>
        <pt x="372" y="4" on="0"/>
        <pt x="365" y="2" on="1"/>
        <pt x="362" y="1" on="0"/>
        <pt x="359" y="-1" on="0"/>
        <pt x="354" y="0" on="1"/>
        <pt x="345" y="2" on="0"/>
        <pt x="341" y="0" on="0"/>
        <pt x="339" y="2" on="1"/>
        <pt x="336" y="-2" on="0"/>
        <pt x="324" y="-1" on="0"/>
        <pt x="319" y="-4" on="1"/>
        <pt x="312" y="-5" on="0"/>
        <pt x="304" y="-5" on="0"/>
        <pt x="301" y="-7" on="1"/>
        <pt x="292" y="-9" on="0"/>
        <pt x="279" y="-9" on="0"/>
        <pt x="271" y="-7" on="1"/>
        <pt x="263" y="-5" on="0"/>
        <pt x="255" y="-1" on="0"/>
        <pt x="250" y="0" on="1"/>
        <pt x="236" y="0" on="0"/>
        <pt x="225" y="2" on="0"/>
        <pt x="220" y="3" on="1"/>
        <pt x="210" y="3" on="0"/>
        <pt x="205" y="6" on="0"/>
        <pt x="203" y="6" on="1"/>
        <pt x="197" y="7" on="0"/>
        <pt x="186" y="6" on="0"/>
        <pt x="181" y="10" on="1"/>
        <pt x="176" y="8" on="0"/>
        <pt x="169" y="12" on="0"/>
        <pt x="165" y="13" on="1"/>
        <pt x="162" y="14" on="0"/>
        <pt x="156" y="14" on="0"/>
        <pt x="154" y="16" on="1"/>
        <pt x="148" y="14" on="0"/>
        <pt x="138" y="20" on="0"/>
        <pt x="132" y="22" on="1"/>
        <pt x="126" y="22" on="0"/>
        <pt x="112" y="20" on="0"/>
        <pt x="108" y="25" on="1"/>
        <pt x="99" y="24" on="0"/>
        <pt x="97" y="24" on="0"/>
        <pt x="97" y="26" on="1"/>
        <pt x="86" y="27" on="0"/>
        <pt x="66" y="28" on="0"/>
        <pt x="54" y="29" on="1"/>
        <pt x="47" y="28" on="0"/>
        <pt x="43" y="30" on="0"/>
        <pt x="40" y="30" on="1"/>
        <pt x="36" y="35" on="0"/>
        <pt x="26" y="41" on="0"/>
        <pt x="24" y="49" on="1"/>
        <pt x="13" y="65" on="0"/>
        <pt x="13" y="70" on="1"/>
        <pt x="13" y="79" on="0"/>
        <pt x="16" y="82" on="1"/>
        <pt x="14" y="87" on="0"/>
        <pt x="23" y="94" on="0"/>
        <pt x="22" y="99" on="1"/>
        <pt x="31" y="108" on="0"/>
        <pt x="33" y="116" on="1"/>
        <pt x="38" y="118" on="0"/>
        <pt x="48" y="124" on="0"/>
        <pt x="54" y="124" on="1"/>
        <pt x="56" y="127" on="0"/>
        <pt x="62" y="131" on="0"/>
        <pt x="65" y="134" on="1"/>
        <pt x="67" y="143" on="0"/>
        <pt x="73" y="162" on="0"/>
        <pt x="74" y="173" on="1"/>
        <pt x="75" y="181" on="0"/>
        <pt x="77" y="199" on="0"/>
        <pt x="78" y="207" on="1"/>
        <pt x="78" y="211" on="0"/>
        <pt x="80" y="216" on="0"/>
        <pt x="81" y="219" on="1"/>
        <pt x="81" y="222" on="0"/>
        <pt x="79" y="229" on="0"/>
        <pt x="82" y="231" on="1"/>
        <pt x="84" y="239" on="0"/>
        <pt x="82" y="251" on="0"/>
        <pt x="85" y="258" on="1"/>
        <pt x="85" y="269" on="0"/>
        <pt x="84" y="297" on="0"/>
        <pt x="84" y="308" on="1"/>
        <pt x="82" y="319" on="0"/>
        <pt x="82" y="337" on="0"/>
        <pt x="83" y="348" on="1"/>
        <pt x="79" y="350" on="0"/>
        <pt x="82" y="360" on="0"/>
        <pt x="82" y="366" on="1"/>
        <pt x="82" y="371" on="0"/>
        <pt x="76" y="379" on="0"/>
        <pt x="80" y="384" on="1"/>
        <pt x="77" y="394" on="0"/>
        <pt x="79" y="407" on="1"/>
        <pt x="77" y="415" on="0"/>
        <pt x="77" y="434" on="0"/>
        <pt x="75" y="443" on="1"/>
        <pt x="76" y="459" on="0"/>
        <pt x="80" y="487" on="0"/>
        <pt x="83" y="513" on="0"/>
        <pt x="82" y="539" on="0"/>
        <pt x="78" y="551" on="1"/>
        <pt x="74" y="554" on="0"/>
        <pt x="70" y="562" on="0"/>
        <pt x="68" y="567" on="1"/>
        <pt x="70" y="576" on="0"/>
        <pt x="74" y="593" on="0"/>
        <pt x="76" y="603" on="1"/>
        <pt x="75" y="606" on="0"/>
        <pt x="71" y="612" on="0"/>
        <pt x="69" y="616" on="1"/>
        <pt x="67" y="621" on="0"/>
        <pt x="64" y="629" on="0"/>
        <pt x="59" y="631" on="1"/>
        <pt x="56" y="632" on="0"/>
        <pt x="48" y="630" on="0"/>
        <pt x="45" y="631" on="1"/>
        <pt x="29" y="638" on="0"/>
        <pt x="2" y="647" on="0"/>
        <pt x="-3" y="660" on="1"/>
        <pt x="-5" y="663" on="0"/>
        <pt x="-9" y="666" on="0"/>
        <pt x="-10" y="670" on="1"/>
        <pt x="-23" y="683" on="0"/>
        <pt x="-18" y="699" on="0"/>
        <pt x="-16" y="709" on="1"/>
        <pt x="-12" y="721" on="0"/>
        <pt x="3" y="729" on="0"/>
        <pt x="3" y="737" on="1"/>
        <pt x="12" y="741" on="0"/>
        <pt x="22" y="748" on="0"/>
        <pt x="30" y="749" on="1"/>
        <pt x="44" y="757" on="0"/>
        <pt x="77" y="749" on="0"/>
        <pt x="92" y="751" on="1"/>
        <pt x="95" y="751" on="0"/>
        <pt x="101" y="752" on="0"/>
        <pt x="105" y="750" on="1"/>
        <pt x="111" y="747" on="0"/>
        <pt x="122" y="740" on="0"/>
        <pt x="127" y="738" on="1"/>
        <pt x="140" y="736" on="0"/>
        <pt x="152" y="734" on="0"/>
        <pt x="155" y="731" on="1"/>
        <pt x="164" y="732" on="0"/>
        <pt x="168" y="728" on="1"/>
        <pt x="180" y="726" on="0"/>
        <pt x="196" y="730" on="0"/>
      </contour>
      <contour>
        <pt x="249" y="673" on="1"/>
        <pt x="235" y="665" on="0"/>
        <pt x="204" y="658" on="0"/>
        <pt x="194" y="646" on="1"/>
        <pt x="190" y="641" on="0"/>
        <pt x="184" y="631" on="0"/>
        <pt x="179" y="628" on="1"/>
        <pt x="171" y="620" on="0"/>
        <pt x="168" y="619" on="0"/>
        <pt x="167" y="617" on="1"/>
        <pt x="165" y="615" on="0"/>
        <pt x="163" y="608" on="0"/>
        <pt x="161" y="603" on="1"/>
        <pt x="155" y="588" on="0"/>
        <pt x="152" y="577" on="1"/>
        <pt x="151" y="569" on="0"/>
        <pt x="154" y="553" on="0"/>
        <pt x="153" y="545" on="1"/>
        <pt x="152" y="540" on="0"/>
        <pt x="154" y="530" on="0"/>
        <pt x="154" y="525" on="1"/>
        <pt x="154" y="521" on="0"/>
        <pt x="151" y="513" on="0"/>
        <pt x="151" y="509" on="1"/>
        <pt x="151" y="504" on="0"/>
        <pt x="153" y="495" on="0"/>
        <pt x="154" y="489" on="1"/>
        <pt x="155" y="485" on="0"/>
        <pt x="155" y="475" on="0"/>
        <pt x="157" y="470" on="1"/>
        <pt x="159" y="456" on="0"/>
        <pt x="160" y="448" on="0"/>
        <pt x="159" y="443" on="1"/>
        <pt x="158" y="438" on="0"/>
        <pt x="155" y="428" on="0"/>
        <pt x="157" y="423" on="1"/>
        <pt x="152" y="417" on="0"/>
        <pt x="154" y="406" on="1"/>
        <pt x="164" y="397" on="0"/>
        <pt x="171" y="393" on="0"/>
        <pt x="175" y="391" on="1"/>
        <pt x="186" y="389" on="0"/>
        <pt x="206" y="401" on="0"/>
        <pt x="217" y="399" on="1"/>
        <pt x="221" y="402" on="0"/>
        <pt x="233" y="408" on="0"/>
        <pt x="238" y="409" on="1"/>
        <pt x="241" y="413" on="0"/>
        <pt x="248" y="420" on="0"/>
        <pt x="253" y="422" on="1"/>
        <pt x="264" y="436" on="0"/>
        <pt x="270" y="447" on="0"/>
        <pt x="278" y="447" on="1"/>
        <pt x="283" y="453" on="0"/>
        <pt x="298" y="457" on="0"/>
        <pt x="303" y="462" on="1"/>
        <pt x="308" y="472" on="0"/>
        <pt x="315" y="479" on="1"/>
        <pt x="319" y="492" on="0"/>
        <pt x="329" y="502" on="1"/>
        <pt x="330" y="510" on="0"/>
        <pt x="336" y="522" on="0"/>
        <pt x="338" y="530" on="1"/>
        <pt x="339" y="535" on="0"/>
        <pt x="338" y="543" on="0"/>
        <pt x="339" y="548" on="1"/>
        <pt x="339" y="552" on="0"/>
        <pt x="341" y="558" on="0"/>
        <pt x="341" y="561" on="1"/>
        <pt x="340" y="579" on="0"/>
        <pt x="345" y="593" on="0"/>
        <pt x="345" y="601" on="1"/>
        <pt x="345" y="609" on="0"/>
        <pt x="343" y="623" on="0"/>
        <pt x="342" y="631" on="1"/>
        <pt x="340" y="634" on="0"/>
        <pt x="337" y="639" on="0"/>
        <pt x="337" y="643" on="1"/>
        <pt x="332" y="653" on="0"/>
        <pt x="323" y="662" on="0"/>
        <pt x="319" y="668" on="1"/>
        <pt x="312" y="672" on="0"/>
        <pt x="293" y="679" on="0"/>
        <pt x="283" y="679" on="1"/>
        <pt x="273" y="679" on="0"/>
        <pt x="267" y="678" on="0"/>
        <pt x="265" y="678" on="1"/>
        <pt x="260" y="676" on="0"/>
        <pt x="254" y="673" on="0"/>
      </contour>
      <contour>
        <pt x="169" y="291" on="1"/>
        <pt x="164" y="289" on="0"/>
        <pt x="159" y="287" on="0"/>
        <pt x="157" y="285" on="1"/>
        <pt x="155" y="282" on="0"/>
        <pt x="154" y="273" on="0"/>
        <pt x="153" y="269" on="1"/>
        <pt x="152" y="265" on="0"/>
        <pt x="148" y="259" on="0"/>
        <pt x="148" y="256" on="1"/>
        <pt x="148" y="253" on="0"/>
        <pt x="151" y="247" on="0"/>
        <pt x="151" y="244" on="1"/>
        <pt x="151" y="222" on="0"/>
        <pt x="145" y="176" on="0"/>
        <pt x="157" y="165" on="1"/>
        <pt x="157" y="160" on="0"/>
        <pt x="162" y="152" on="0"/>
        <pt x="163" y="146" on="1"/>
        <pt x="163" y="140" on="0"/>
        <pt x="160" y="127" on="0"/>
        <pt x="158" y="121" on="1"/>
        <pt x="161" y="115" on="0"/>
        <pt x="167" y="100" on="0"/>
        <pt x="171" y="93" on="1"/>
        <pt x="176" y="85" on="0"/>
        <pt x="200" y="69" on="0"/>
        <pt x="211" y="69" on="1"/>
        <pt x="218" y="70" on="0"/>
        <pt x="228" y="73" on="0"/>
        <pt x="233" y="75" on="1"/>
        <pt x="239" y="75" on="0"/>
        <pt x="243" y="78" on="0"/>
        <pt x="245" y="78" on="1"/>
        <pt x="250" y="79" on="0"/>
        <pt x="262" y="74" on="0"/>
        <pt x="267" y="76" on="1"/>
        <pt x="269" y="73" on="0"/>
        <pt x="275" y="75" on="0"/>
        <pt x="278" y="76" on="1"/>
        <pt x="285" y="78" on="0"/>
        <pt x="300" y="78" on="0"/>
        <pt x="305" y="82" on="1"/>
        <pt x="310" y="80" on="0"/>
        <pt x="320" y="83" on="0"/>
        <pt x="326" y="85" on="1"/>
        <pt x="330" y="83" on="0"/>
        <pt x="341" y="87" on="0"/>
        <pt x="352" y="94" on="0"/>
        <pt x="359" y="103" on="0"/>
        <pt x="360" y="106" on="1"/>
        <pt x="361" y="113" on="0"/>
        <pt x="360" y="130" on="0"/>
        <pt x="360" y="138" on="1"/>
        <pt x="360" y="145" on="0"/>
        <pt x="362" y="162" on="0"/>
        <pt x="360" y="169" on="1"/>
        <pt x="357" y="178" on="0"/>
        <pt x="358" y="184" on="0"/>
        <pt x="357" y="187" on="1"/>
        <pt x="356" y="192" on="0"/>
        <pt x="354" y="199" on="0"/>
        <pt x="354" y="203" on="1"/>
        <pt x="355" y="209" on="0"/>
        <pt x="361" y="219" on="0"/>
        <pt x="361" y="226" on="1"/>
        <pt x="359" y="229" on="0"/>
        <pt x="358" y="239" on="0"/>
        <pt x="357" y="244" on="1"/>
        <pt x="355" y="248" on="0"/>
        <pt x="348" y="256" on="0"/>
        <pt x="345" y="261" on="1"/>
        <pt x="342" y="270" on="0"/>
        <pt x="332" y="278" on="0"/>
        <pt x="328" y="283" on="1"/>
        <pt x="323" y="288" on="0"/>
        <pt x="315" y="295" on="0"/>
        <pt x="307" y="293" on="1"/>
        <pt x="302" y="295" on="0"/>
        <pt x="294" y="295" on="1"/>
        <pt x="289" y="299" on="0"/>
        <pt x="276" y="301" on="0"/>
        <pt x="269" y="301" on="1"/>
        <pt x="244" y="313" on="0"/>
        <pt x="187" y="305" on="0"/>
      </contour>
      <contour>
        <pt x="-34" y="654" on="1"/>
        <pt x="-27" y="645" on="0"/>
        <pt x="-28" y="640" on="0"/>
        <pt x="-27" y="638" on="1"/>
        <pt x="-26" y="634" on="0"/>
        <pt x="-21" y="627" on="0"/>
        <pt x="-26" y="623" on="1"/>
        <pt x="-31" y="618" on="0"/>
        <pt x="-41" y="623" on="0"/>
        <pt x="-46" y="623" on="1"/>
        <pt x="-52" y="627" on="0"/>
        <pt x="-59" y="647" on="0"/>
        <pt x="-48" y="650" on="1"/>
        <pt x="-46" y="653" on="0"/>
        <pt x="-39" y="657" on="0"/>
        <pt x="-37" y="653" on="1"/>
      </contour>
      <contour>
        <pt x="-1" y="615" on="1"/>
        <pt x="4" y="614" on="0"/>
        <pt x="20" y="612" on="0"/>
        <pt x="27" y="610" on="1"/>
        <pt x="30" y="607" on="0"/>
        <pt x="38" y="600" on="0"/>
        <pt x="37" y="594" on="1"/>
        <pt x="37" y="592" on="0"/>
        <pt x="32" y="584" on="0"/>
        <pt x="30" y="581" on="1"/>
        <pt x="29" y="579" on="0"/>
        <pt x="25" y="572" on="0"/>
        <pt x="24" y="571" on="1"/>
        <pt x="18" y="566" on="0"/>
        <pt x="5" y="568" on="0"/>
        <pt x="0" y="569" on="1"/>
        <pt x="-5" y="576" on="0"/>
        <pt x="-13" y="588" on="0"/>
        <pt x="-14" y="596" on="1"/>
        <pt x="-14" y="601" on="0"/>
        <pt x="-8" y="606" on="0"/>
        <pt x="-8" y="611" on="1"/>
      </contour>
      <contour>
        <pt x="209" y="609" on="1"/>
        <pt x="217" y="601" on="0"/>
        <pt x="220" y="591" on="1"/>
        <pt x="220" y="584" on="0"/>
        <pt x="213" y="572" on="0"/>
        <pt x="209" y="567" on="1"/>
        <pt x="205" y="567" on="0"/>
        <pt x="199" y="562" on="0"/>
        <pt x="194" y="562" on="1"/>
        <pt x="189" y="562" on="0"/>
        <pt x="182" y="568" on="0"/>
        <pt x="182" y="573" on="1"/>
        <pt x="183" y="588" on="0"/>
        <pt x="192" y="604" on="0"/>
        <pt x="195" y="606" on="1"/>
        <pt x="198" y="608" on="0"/>
        <pt x="204" y="608" on="0"/>
      </contour>
      <contour>
        <pt x="437" y="401" on="1"/>
        <pt x="446" y="395" on="0"/>
        <pt x="445" y="379" on="0"/>
        <pt x="435" y="365" on="0"/>
        <pt x="416" y="356" on="0"/>
        <pt x="407" y="357" on="1"/>
        <pt x="396" y="362" on="0"/>
        <pt x="397" y="364" on="0"/>
        <pt x="396" y="365" on="1"/>
        <pt x="392" y="370" on="0"/>
        <pt x="381" y="378" on="0"/>
        <pt x="389" y="384" on="1"/>
        <pt x="403" y="391" on="0"/>
        <pt x="407" y="393" on="1"/>
        <pt x="409" y="395" on="0"/>
        <pt x="414" y="398" on="0"/>
        <pt x="417" y="399" on="1"/>
        <pt x="430" y="398" on="0"/>
        <pt x="434" y="401" on="0"/>
      </contour>
      <contour>
        <pt x="237" y="106" on="1"/>
        <pt x="234" y="104" on="0"/>
        <pt x="227" y="99" on="0"/>
        <pt x="222" y="100" on="1"/>
        <pt x="217" y="94" on="0"/>
        <pt x="213" y="91" on="1"/>
        <pt x="208" y="93" on="0"/>
        <pt x="200" y="93" on="0"/>
        <pt x="195" y="95" on="1"/>
        <pt x="191" y="105" on="0"/>
        <pt x="187" y="110" on="0"/>
        <pt x="187" y="113" on="1"/>
        <pt x="186" y="118" on="0"/>
        <pt x="189" y="126" on="0"/>
        <pt x="187" y="131" on="1"/>
        <pt x="193" y="139" on="0"/>
        <pt x="216" y="140" on="0"/>
        <pt x="225" y="138" on="1"/>
        <pt x="229" y="134" on="0"/>
        <pt x="239" y="126" on="0"/>
        <pt x="239" y="116" on="1"/>
      </contour>
      <contour>
        <pt x="294" y="129" on="1"/>
        <pt x="297" y="118" on="0"/>
        <pt x="287" y="106" on="0"/>
        <pt x="272" y="102" on="0"/>
        <pt x="256" y="105" on="0"/>
        <pt x="251" y="111" on="1"/>
        <pt x="254" y="123" on="0"/>
        <pt x="273" y="128" on="1"/>
        <pt x="278" y="129" on="0"/>
        <pt x="289" y="134" on="0"/>
      </contour>
      <contour>
        <pt x="504" y="52" on="1"/>
        <pt x="497" y="48" on="0"/>
        <pt x="491" y="50" on="0"/>
        <pt x="486" y="51" on="1"/>
        <pt x="484" y="53" on="0"/>
        <pt x="481" y="66" on="0"/>
        <pt x="484" y="68" on="1"/>
        <pt x="487" y="85" on="0"/>
        <pt x="489" y="93" on="1"/>
        <pt x="496" y="98" on="0"/>
        <pt x="511" y="94" on="0"/>
        <pt x="515" y="89" on="1"/>
        <pt x="520" y="82" on="0"/>
        <pt x="523" y="64" on="0"/>
        <pt x="516" y="56" on="1"/>
        <pt x="511" y="56" on="0"/>
        <pt x="509" y="50" on="0"/>
      </contour>
      <contour>
        <pt x="76" y="5" on="1"/>
        <pt x="87" y="3" on="0"/>
        <pt x="86" y="2" on="0"/>
        <pt x="87" y="1" on="1"/>
        <pt x="91" y="0" on="0"/>
        <pt x="99" y="-2" on="0"/>
        <pt x="100" y="-7" on="1"/>
        <pt x="101" y="-19" on="0"/>
        <pt x="75" y="-30" on="0"/>
        <pt x="66" y="-33" on="1"/>
        <pt x="56" y="-31" on="0"/>
        <pt x="53" y="-31" on="1"/>
        <pt x="48" y="-28" on="0"/>
        <pt x="40" y="-15" on="0"/>
        <pt x="43" y="-8" on="1"/>
        <pt x="45" y="-3" on="0"/>
        <pt x="66" y="5" on="0"/>
        <pt x="75" y="3" on="1"/>
      </contour>
    </TTGlyph>
    <TTGlyph name="C" xMin="20" yMin="-2" xMax="519" yMax="785">
      <contour>
        <pt x="346" y="568" on="1"/>
        <pt x="339" y="574" on="0"/>
        <pt x="340" y="594" on="0"/>
        <pt x="336" y="599" on="1"/>
        <pt x="334" y="604" on="0"/>
        <pt x="337" y="613" on="0"/>
        <pt x="337" y="618" on="1"/>
        <pt x="336" y="625" on="0"/>
        <pt x="327" y="634" on="0"/>
        <pt x="328" y="641" on="1"/>
        <pt x="315" y="645" on="0"/>
        <pt x="306" y="657" on="0"/>
        <pt x="298" y="659" on="1"/>
        <pt x="292" y="668" on="0"/>
        <pt x="289" y="674" on="0"/>
        <pt x="288" y="677" on="1"/>
        <pt x="276" y="685" on="0"/>
        <pt x="253" y="676" on="0"/>
        <pt x="241" y="671" on="1"/>
        <pt x="231" y="669" on="0"/>
        <pt x="224" y="664" on="0"/>
        <pt x="219" y="665" on="1"/>
        <pt x="212" y="659" on="0"/>
        <pt x="206" y="652" on="0"/>
        <pt x="203" y="654" on="1"/>
        <pt x="187" y="640" on="0"/>
        <pt x="168" y="627" on="0"/>
        <pt x="163" y="615" on="1"/>
        <pt x="155" y="607" on="0"/>
        <pt x="142" y="592" on="0"/>
        <pt x="139" y="581" on="1"/>
        <pt x="135" y="567" on="0"/>
        <pt x="126" y="548" on="0"/>
        <pt x="124" y="537" on="1"/>
        <pt x="122" y="531" on="0"/>
        <pt x="117" y="522" on="0"/>
        <pt x="118" y="515" on="1"/>
        <pt x="114" y="502" on="0"/>
        <pt x="108" y="471" on="0"/>
        <pt x="108" y="459" on="1"/>
        <pt x="110" y="454" on="0"/>
        <pt x="110" y="436" on="0"/>
        <pt x="115" y="431" on="1"/>
        <pt x="114" y="420" on="0"/>
        <pt x="126" y="406" on="0"/>
        <pt x="130" y="398" on="1"/>
        <pt x="131" y="395" on="0"/>
        <pt x="131" y="388" on="0"/>
        <pt x="133" y="384" on="1"/>
        <pt x="135" y="379" on="0"/>
        <pt x="139" y="372" on="0"/>
        <pt x="140" y="367" on="1"/>
        <pt x="142" y="362" on="0"/>
        <pt x="142" y="352" on="0"/>
        <pt x="143" y="348" on="1"/>
        <pt x="145" y="340" on="0"/>
        <pt x="150" y="310" on="0"/>
        <pt x="147" y="301" on="1"/>
        <pt x="142" y="290" on="0"/>
        <pt x="142" y="273" on="0"/>
        <pt x="144" y="270" on="1"/>
        <pt x="146" y="266" on="0"/>
        <pt x="161" y="266" on="0"/>
        <pt x="163" y="263" on="1"/>
        <pt x="163" y="257" on="0"/>
        <pt x="167" y="248" on="0"/>
        <pt x="169" y="243" on="1"/>
        <pt x="170" y="238" on="0"/>
        <pt x="168" y="227" on="0"/>
        <pt x="170" y="222" on="1"/>
        <pt x="171" y="216" on="0"/>
        <pt x="179" y="203" on="0"/>
        <pt x="182" y="196" on="1"/>
        <pt x="183" y="188" on="0"/>
        <pt x="185" y="187" on="0"/>
        <pt x="186" y="185" on="1"/>
        <pt x="188" y="182" on="0"/>
        <pt x="188" y="174" on="0"/>
        <pt x="189" y="169" on="1"/>
        <pt x="192" y="167" on="0"/>
        <pt x="195" y="160" on="0"/>
        <pt x="198" y="158" on="1"/>
        <pt x="200" y="152" on="0"/>
        <pt x="201" y="138" on="0"/>
        <pt x="204" y="133" on="1"/>
        <pt x="202" y="130" on="0"/>
        <pt x="206" y="125" on="0"/>
        <pt x="205" y="121" on="1"/>
        <pt x="205" y="107" on="0"/>
        <pt x="218" y="100" on="0"/>
        <pt x="223" y="96" on="1"/>
        <pt x="234" y="94" on="0"/>
        <pt x="257" y="88" on="0"/>
        <pt x="269" y="88" on="1"/>
        <pt x="278" y="84" on="0"/>
        <pt x="292" y="90" on="0"/>
        <pt x="305" y="97" on="0"/>
        <pt x="318" y="105" on="0"/>
        <pt x="327" y="106" on="1"/>
        <pt x="338" y="110" on="0"/>
        <pt x="343" y="130" on="0"/>
        <pt x="345" y="140" on="1"/>
        <pt x="348" y="152" on="0"/>
        <pt x="352" y="154" on="1"/>
        <pt x="355" y="172" on="0"/>
        <pt x="370" y="202" on="0"/>
        <pt x="375" y="219" on="1"/>
        <pt x="378" y="221" on="0"/>
        <pt x="379" y="230" on="0"/>
        <pt x="382" y="232" on="1"/>
        <pt x="382" y="241" on="0"/>
        <pt x="393" y="253" on="0"/>
        <pt x="394" y="262" on="1"/>
        <pt x="405" y="273" on="0"/>
        <pt x="414" y="285" on="0"/>
        <pt x="420" y="289" on="1"/>
        <pt x="425" y="290" on="0"/>
        <pt x="433" y="293" on="0"/>
        <pt x="438" y="295" on="1"/>
        <pt x="448" y="294" on="0"/>
        <pt x="456" y="293" on="0"/>
        <pt x="458" y="291" on="1"/>
        <pt x="466" y="291" on="0"/>
        <pt x="473" y="285" on="0"/>
        <pt x="480" y="283" on="1"/>
        <pt x="483" y="279" on="0"/>
        <pt x="487" y="270" on="0"/>
        <pt x="490" y="267" on="1"/>
        <pt x="494" y="254" on="0"/>
        <pt x="489" y="234" on="0"/>
        <pt x="487" y="224" on="1"/>
        <pt x="486" y="220" on="0"/>
        <pt x="482" y="214" on="1"/>
        <pt x="480" y="209" on="0"/>
        <pt x="479" y="198" on="0"/>
        <pt x="474" y="196" on="1"/>
        <pt x="474" y="188" on="0"/>
        <pt x="464" y="180" on="0"/>
        <pt x="460" y="175" on="1"/>
        <pt x="457" y="170" on="0"/>
        <pt x="452" y="161" on="0"/>
        <pt x="446" y="158" on="1"/>
        <pt x="441" y="156" on="0"/>
        <pt x="432" y="157" on="0"/>
        <pt x="427" y="156" on="1"/>
        <pt x="421" y="153" on="0"/>
        <pt x="418" y="153" on="0"/>
        <pt x="416" y="151" on="1"/>
        <pt x="413" y="146" on="0"/>
        <pt x="408" y="128" on="0"/>
        <pt x="406" y="122" on="1"/>
        <pt x="401" y="112" on="0"/>
        <pt x="402" y="105" on="0"/>
        <pt x="401" y="102" on="1"/>
        <pt x="400" y="97" on="0"/>
        <pt x="397" y="87" on="0"/>
        <pt x="395" y="83" on="1"/>
        <pt x="389" y="74" on="0"/>
        <pt x="384" y="71" on="0"/>
        <pt x="383" y="69" on="1"/>
        <pt x="380" y="62" on="0"/>
        <pt x="376" y="59" on="0"/>
        <pt x="376" y="55" on="1"/>
        <pt x="359" y="47" on="0"/>
        <pt x="336" y="20" on="0"/>
        <pt x="317" y="13" on="1"/>
        <pt x="308" y="8" on="0"/>
        <pt x="287" y="5" on="0"/>
        <pt x="276" y="3" on="1"/>
        <pt x="269" y="1" on="0"/>
        <pt x="256" y="1" on="0"/>
        <pt x="251" y="1" on="1"/>
        <pt x="235" y="-2" on="0"/>
        <pt x="215" y="5" on="0"/>
        <pt x="203" y="7" on="1"/>
        <pt x="197" y="6" on="0"/>
        <pt x="184" y="6" on="0"/>
        <pt x="179" y="10" on="1"/>
        <pt x="174" y="13" on="0"/>
        <pt x="166" y="11" on="0"/>
        <pt x="162" y="13" on="1"/>
        <pt x="158" y="15" on="0"/>
        <pt x="150" y="23" on="0"/>
        <pt x="143" y="24" on="1"/>
        <pt x="136" y="35" on="0"/>
        <pt x="117" y="50" on="0"/>
        <pt x="110" y="61" on="1"/>
        <pt x="105" y="63" on="0"/>
        <pt x="100" y="69" on="0"/>
        <pt x="97" y="71" on="1"/>
        <pt x="92" y="83" on="0"/>
        <pt x="88" y="89" on="0"/>
        <pt x="86" y="93" on="1"/>
        <pt x="87" y="99" on="0"/>
        <pt x="85" y="112" on="0"/>
        <pt x="85" y="116" on="1"/>
        <pt x="80" y="119" on="0"/>
        <pt x="79" y="132" on="0"/>
        <pt x="74" y="135" on="1"/>
        <pt x="63" y="159" on="0"/>
        <pt x="56" y="193" on="0"/>
        <pt x="52" y="210" on="1"/>
        <pt x="47" y="227" on="0"/>
        <pt x="39" y="247" on="0"/>
        <pt x="30" y="267" on="0"/>
        <pt x="21" y="287" on="0"/>
        <pt x="20" y="299" on="1"/>
        <pt x="25" y="307" on="0"/>
        <pt x="25" y="328" on="0"/>
        <pt x="27" y="336" on="1"/>
        <pt x="21" y="365" on="0"/>
        <pt x="31" y="421" on="0"/>
        <pt x="31" y="450" on="1"/>
        <pt x="32" y="458" on="0"/>
        <pt x="35" y="466" on="0"/>
        <pt x="35" y="470" on="1"/>
        <pt x="32" y="484" on="0"/>
        <pt x="38" y="503" on="0"/>
        <pt x="40" y="510" on="1"/>
        <pt x="41" y="513" on="0"/>
        <pt x="40" y="520" on="0"/>
        <pt x="41" y="523" on="1"/>
        <pt x="43" y="532" on="0"/>
        <pt x="46" y="541" on="1"/>
        <pt x="51" y="555" on="0"/>
        <pt x="53" y="564" on="0"/>
        <pt x="52" y="567" on="1"/>
        <pt x="52" y="570" on="0"/>
        <pt x="49" y="576" on="0"/>
        <pt x="49" y="581" on="1"/>
        <pt x="53" y="593" on="0"/>
        <pt x="56" y="603" on="0"/>
        <pt x="61" y="607" on="1"/>
        <pt x="62" y="615" on="0"/>
        <pt x="70" y="623" on="0"/>
        <pt x="71" y="631" on="1"/>
        <pt x="77" y="648" on="0"/>
        <pt x="91" y="671" on="0"/>
        <pt x="97" y="682" on="1"/>
        <pt x="102" y="685" on="0"/>
        <pt x="105" y="693" on="0"/>
        <pt x="109" y="695" on="1"/>
        <pt x="111" y="711" on="0"/>
        <pt x="132" y="725" on="0"/>
        <pt x="140" y="735" on="1"/>
        <pt x="148" y="740" on="0"/>
        <pt x="158" y="742" on="0"/>
        <pt x="161" y="746" on="1"/>
        <pt x="178" y="758" on="0"/>
        <pt x="199" y="767" on="0"/>
        <pt x="208" y="772" on="1"/>
        <pt x="214" y="775" on="0"/>
        <pt x="226" y="776" on="0"/>
        <pt x="229" y="779" on="1"/>
        <pt x="241" y="780" on="0"/>
        <pt x="252" y="782" on="0"/>
        <pt x="259" y="781" on="1"/>
        <pt x="271" y="782" on="0"/>
        <pt x="295" y="785" on="0"/>
        <pt x="305" y="782" on="1"/>
        <pt x="316" y="780" on="0"/>
        <pt x="333" y="778" on="0"/>
        <pt x="342" y="777" on="1"/>
        <pt x="347" y="773" on="0"/>
        <pt x="359" y="771" on="0"/>
        <pt x="367" y="771" on="1"/>
        <pt x="369" y="766" on="0"/>
        <pt x="376" y="762" on="0"/>
        <pt x="380" y="760" on="1"/>
        <pt x="386" y="753" on="0"/>
        <pt x="390" y="751" on="0"/>
        <pt x="392" y="749" on="1"/>
        <pt x="395" y="744" on="0"/>
        <pt x="400" y="734" on="0"/>
        <pt x="406" y="732" on="1"/>
        <pt x="407" y="727" on="0"/>
        <pt x="414" y="721" on="0"/>
        <pt x="418" y="718" on="1"/>
        <pt x="418" y="712" on="0"/>
        <pt x="425" y="706" on="0"/>
        <pt x="429" y="703" on="1"/>
        <pt x="447" y="703" on="0"/>
        <pt x="455" y="694" on="0"/>
        <pt x="462" y="692" on="1"/>
        <pt x="470" y="691" on="0"/>
        <pt x="478" y="685" on="0"/>
        <pt x="485" y="683" on="1"/>
        <pt x="496" y="680" on="0"/>
        <pt x="506" y="667" on="0"/>
        <pt x="514" y="671" on="1"/>
        <pt x="519" y="669" on="0"/>
        <pt x="518" y="659" on="0"/>
        <pt x="518" y="655" on="1"/>
        <pt x="518" y="649" on="0"/>
        <pt x="518" y="630" on="0"/>
        <pt x="515" y="624" on="1"/>
        <pt x="516" y="614" on="0"/>
        <pt x="509" y="599" on="0"/>
        <pt x="507" y="591" on="1"/>
        <pt x="505" y="585" on="0"/>
        <pt x="501" y="581" on="0"/>
        <pt x="501" y="577" on="1"/>
        <pt x="496" y="573" on="0"/>
        <pt x="492" y="564" on="0"/>
        <pt x="487" y="561" on="1"/>
        <pt x="481" y="557" on="0"/>
        <pt x="468" y="553" on="0"/>
        <pt x="463" y="548" on="1"/>
        <pt x="451" y="547" on="0"/>
        <pt x="449" y="545" on="0"/>
        <pt x="447" y="545" on="1"/>
        <pt x="445" y="547" on="0"/>
        <pt x="435" y="543" on="0"/>
        <pt x="432" y="542" on="1"/>
        <pt x="426" y="541" on="0"/>
        <pt x="415" y="547" on="0"/>
        <pt x="410" y="547" on="1"/>
        <pt x="402" y="544" on="0"/>
        <pt x="387" y="547" on="0"/>
        <pt x="380" y="545" on="1"/>
        <pt x="372" y="550" on="0"/>
        <pt x="353" y="556" on="0"/>
        <pt x="350" y="565" on="1"/>
      </contour>
      <contour>
        <pt x="219" y="611" on="1"/>
        <pt x="216" y="618" on="0"/>
        <pt x="218" y="629" on="0"/>
        <pt x="225" y="639" on="0"/>
        <pt x="234" y="647" on="0"/>
        <pt x="237" y="651" on="1"/>
        <pt x="241" y="655" on="0"/>
        <pt x="251" y="657" on="0"/>
        <pt x="254" y="660" on="1"/>
        <pt x="266" y="660" on="0"/>
        <pt x="273" y="646" on="0"/>
        <pt x="274" y="641" on="1"/>
        <pt x="275" y="622" on="0"/>
        <pt x="246" y="608" on="0"/>
        <pt x="230" y="609" on="1"/>
        <pt x="225" y="612" on="0"/>
      </contour>
      <contour>
        <pt x="278" y="598" on="1"/>
        <pt x="290" y="589" on="0"/>
        <pt x="288" y="579" on="0"/>
        <pt x="281" y="571" on="0"/>
        <pt x="272" y="566" on="0"/>
        <pt x="268" y="567" on="1"/>
        <pt x="262" y="571" on="0"/>
        <pt x="252" y="575" on="0"/>
        <pt x="251" y="580" on="1"/>
        <pt x="249" y="588" on="0"/>
        <pt x="270" y="598" on="0"/>
      </contour>
      <contour>
        <pt x="434" y="101" on="1"/>
        <pt x="435" y="107" on="0"/>
        <pt x="433" y="116" on="0"/>
        <pt x="435" y="122" on="1"/>
        <pt x="440" y="128" on="0"/>
        <pt x="463" y="130" on="0"/>
        <pt x="468" y="122" on="1"/>
        <pt x="471" y="108" on="0"/>
        <pt x="458" y="90" on="0"/>
        <pt x="444" y="92" on="1"/>
        <pt x="441" y="97" on="0"/>
      </contour>
      <contour>
        <pt x="58" y="76" on="1"/>
        <pt x="56" y="71" on="0"/>
        <pt x="50" y="63" on="0"/>
        <pt x="42" y="65" on="1"/>
        <pt x="37" y="68" on="0"/>
        <pt x="27" y="77" on="0"/>
        <pt x="24" y="85" on="1"/>
        <pt x="22" y="90" on="0"/>
        <pt x="21" y="96" on="0"/>
        <pt x="23" y="101" on="1"/>
        <pt x="27" y="112" on="0"/>
        <pt x="44" y="113" on="0"/>
        <pt x="52" y="105" on="1"/>
        <pt x="58" y="100" on="0"/>
        <pt x="59" y="86" on="0"/>
      </contour>
      <contour>
        <pt x="440" y="82" on="1"/>
        <pt x="447" y="77" on="0"/>
        <pt x="460" y="70" on="0"/>
        <pt x="462" y="62" on="1"/>
        <pt x="457" y="51" on="0"/>
        <pt x="440" y="36" on="0"/>
        <pt x="426" y="38" on="1"/>
        <pt x="423" y="40" on="0"/>
        <pt x="417" y="40" on="0"/>
        <pt x="413" y="41" on="1"/>
        <pt x="412" y="45" on="0"/>
        <pt x="407" y="48" on="0"/>
        <pt x="406" y="51" on="1"/>
        <pt x="401" y="63" on="0"/>
        <pt x="418" y="77" on="0"/>
        <pt x="427" y="75" on="1"/>
        <pt x="435" y="79" on="0"/>
        <pt x="439" y="80" on="1"/>
      </contour>
    </TTGlyph>
    <TTGlyph name="Ccedilla" xMin="20" yMin="-198" xMax="519" yMax="785">
      <contour>
        <pt x="219" y="611" on="1"/>
        <pt x="216" y="618" on="0"/>
        <pt x="218" y="629" on="0"/>
        <pt x="225" y="639" on="0"/>
        <pt x="234" y="647" on="0"/>
        <pt x="237" y="651" on="1"/>
        <pt x="241" y="655" on="0"/>
        <pt x="251" y="657" on="0"/>
        <pt x="254" y="660" on="1"/>
        <pt x="266" y="660" on="0"/>
        <pt x="273" y="646" on="0"/>
        <pt x="274" y="641" on="1"/>
        <pt x="275" y="622" on="0"/>
        <pt x="246" y="608" on="0"/>
        <pt x="230" y="609" on="1"/>
        <pt x="225" y="612" on="0"/>
      </contour>
      <contour>
        <pt x="278" y="598" on="1"/>
        <pt x="290" y="589" on="0"/>
        <pt x="288" y="580" on="0"/>
        <pt x="281" y="572" on="0"/>
        <pt x="272" y="567" on="0"/>
        <pt x="268" y="567" on="1"/>
        <pt x="262" y="572" on="0"/>
        <pt x="252" y="575" on="0"/>
        <pt x="251" y="580" on="1"/>
        <pt x="249" y="588" on="0"/>
        <pt x="270" y="598" on="0"/>
      </contour>
      <contour>
        <pt x="434" y="101" on="1"/>
        <pt x="435" y="107" on="0"/>
        <pt x="433" y="116" on="0"/>
        <pt x="435" y="122" on="1"/>
        <pt x="440" y="128" on="0"/>
        <pt x="463" y="130" on="0"/>
        <pt x="468" y="122" on="1"/>
        <pt x="471" y="108" on="0"/>
        <pt x="458" y="90" on="0"/>
        <pt x="444" y="92" on="1"/>
        <pt x="441" y="97" on="0"/>
      </contour>
      <contour>
        <pt x="58" y="76" on="1"/>
        <pt x="56" y="71" on="0"/>
        <pt x="50" y="63" on="0"/>
        <pt x="42" y="65" on="1"/>
        <pt x="37" y="68" on="0"/>
        <pt x="27" y="77" on="0"/>
        <pt x="24" y="85" on="1"/>
        <pt x="22" y="90" on="0"/>
        <pt x="21" y="96" on="0"/>
        <pt x="23" y="101" on="1"/>
        <pt x="27" y="112" on="0"/>
        <pt x="44" y="113" on="0"/>
        <pt x="52" y="105" on="1"/>
        <pt x="58" y="100" on="0"/>
        <pt x="59" y="86" on="0"/>
      </contour>
      <contour>
        <pt x="440" y="82" on="1"/>
        <pt x="447" y="77" on="0"/>
        <pt x="460" y="70" on="0"/>
        <pt x="462" y="62" on="1"/>
        <pt x="457" y="51" on="0"/>
        <pt x="440" y="36" on="0"/>
        <pt x="426" y="38" on="1"/>
        <pt x="423" y="40" on="0"/>
        <pt x="418" y="40" on="0"/>
        <pt x="413" y="41" on="1"/>
        <pt x="412" y="45" on="0"/>
        <pt x="407" y="48" on="0"/>
        <pt x="406" y="51" on="1"/>
        <pt x="401" y="63" on="0"/>
        <pt x="418" y="77" on="0"/>
        <pt x="427" y="75" on="1"/>
        <pt x="435" y="79" on="0"/>
        <pt x="439" y="80" on="1"/>
      </contour>
      <contour>
        <pt x="208" y="-24" on="1"/>
        <pt x="204" y="-11" on="0"/>
        <pt x="209" y="0" on="0"/>
        <pt x="212" y="5" on="1"/>
        <pt x="197" y="6" on="0"/>
        <pt x="184" y="6" on="0"/>
        <pt x="179" y="10" on="1"/>
        <pt x="174" y="13" on="0"/>
        <pt x="166" y="12" on="0"/>
        <pt x="162" y="13" on="1"/>
        <pt x="158" y="15" on="0"/>
        <pt x="150" y="23" on="0"/>
        <pt x="143" y="24" on="1"/>
        <pt x="136" y="35" on="0"/>
        <pt x="117" y="50" on="0"/>
        <pt x="110" y="61" on="1"/>
        <pt x="105" y="63" on="0"/>
        <pt x="100" y="69" on="0"/>
        <pt x="97" y="71" on="1"/>
        <pt x="92" y="83" on="0"/>
        <pt x="88" y="89" on="0"/>
        <pt x="86" y="93" on="1"/>
        <pt x="87" y="99" on="0"/>
        <pt x="85" y="112" on="0"/>
        <pt x="85" y="116" on="1"/>
        <pt x="80" y="119" on="0"/>
        <pt x="79" y="132" on="0"/>
        <pt x="74" y="135" on="1"/>
        <pt x="63" y="159" on="0"/>
        <pt x="56" y="193" on="0"/>
        <pt x="52" y="210" on="1"/>
        <pt x="47" y="227" on="0"/>
        <pt x="39" y="247" on="0"/>
        <pt x="30" y="267" on="0"/>
        <pt x="21" y="287" on="0"/>
        <pt x="20" y="299" on="1"/>
        <pt x="25" y="307" on="0"/>
        <pt x="25" y="328" on="0"/>
        <pt x="27" y="336" on="1"/>
        <pt x="21" y="365" on="0"/>
        <pt x="31" y="421" on="0"/>
        <pt x="31" y="450" on="1"/>
        <pt x="32" y="458" on="0"/>
        <pt x="35" y="466" on="0"/>
        <pt x="35" y="470" on="1"/>
        <pt x="32" y="484" on="0"/>
        <pt x="38" y="503" on="0"/>
        <pt x="40" y="510" on="1"/>
        <pt x="41" y="513" on="0"/>
        <pt x="40" y="520" on="0"/>
        <pt x="41" y="523" on="1"/>
        <pt x="43" y="534" on="0"/>
        <pt x="47" y="541" on="1"/>
        <pt x="51" y="555" on="0"/>
        <pt x="53" y="564" on="0"/>
        <pt x="52" y="567" on="1"/>
        <pt x="52" y="570" on="0"/>
        <pt x="49" y="576" on="0"/>
        <pt x="49" y="581" on="1"/>
        <pt x="53" y="593" on="0"/>
        <pt x="56" y="603" on="0"/>
        <pt x="61" y="607" on="1"/>
        <pt x="62" y="615" on="0"/>
        <pt x="70" y="623" on="0"/>
        <pt x="71" y="631" on="1"/>
        <pt x="77" y="648" on="0"/>
        <pt x="91" y="671" on="0"/>
        <pt x="97" y="682" on="1"/>
        <pt x="102" y="685" on="0"/>
        <pt x="105" y="693" on="0"/>
        <pt x="110" y="695" on="1"/>
        <pt x="112" y="712" on="0"/>
        <pt x="132" y="725" on="0"/>
        <pt x="140" y="735" on="1"/>
        <pt x="148" y="740" on="0"/>
        <pt x="158" y="742" on="0"/>
        <pt x="161" y="746" on="1"/>
        <pt x="178" y="758" on="0"/>
        <pt x="199" y="767" on="0"/>
        <pt x="208" y="772" on="1"/>
        <pt x="214" y="775" on="0"/>
        <pt x="226" y="776" on="0"/>
        <pt x="229" y="779" on="1"/>
        <pt x="241" y="780" on="0"/>
        <pt x="252" y="782" on="0"/>
        <pt x="259" y="781" on="1"/>
        <pt x="271" y="782" on="0"/>
        <pt x="295" y="785" on="0"/>
        <pt x="305" y="782" on="1"/>
        <pt x="316" y="780" on="0"/>
        <pt x="333" y="778" on="0"/>
        <pt x="342" y="777" on="1"/>
        <pt x="347" y="773" on="0"/>
        <pt x="359" y="771" on="0"/>
        <pt x="367" y="771" on="1"/>
        <pt x="369" y="766" on="0"/>
        <pt x="376" y="762" on="0"/>
        <pt x="380" y="760" on="1"/>
        <pt x="386" y="753" on="0"/>
        <pt x="390" y="751" on="0"/>
        <pt x="392" y="749" on="1"/>
        <pt x="395" y="744" on="0"/>
        <pt x="400" y="734" on="0"/>
        <pt x="406" y="732" on="1"/>
        <pt x="407" y="727" on="0"/>
        <pt x="414" y="721" on="0"/>
        <pt x="418" y="718" on="1"/>
        <pt x="418" y="712" on="0"/>
        <pt x="425" y="706" on="0"/>
        <pt x="429" y="703" on="1"/>
        <pt x="447" y="703" on="0"/>
        <pt x="455" y="694" on="0"/>
        <pt x="462" y="692" on="1"/>
        <pt x="470" y="691" on="0"/>
        <pt x="478" y="685" on="0"/>
        <pt x="485" y="683" on="1"/>
        <pt x="496" y="680" on="0"/>
        <pt x="506" y="667" on="0"/>
        <pt x="514" y="671" on="1"/>
        <pt x="519" y="669" on="0"/>
        <pt x="518" y="659" on="0"/>
        <pt x="518" y="655" on="1"/>
        <pt x="518" y="649" on="0"/>
        <pt x="518" y="630" on="0"/>
        <pt x="515" y="624" on="1"/>
        <pt x="516" y="614" on="0"/>
        <pt x="509" y="599" on="0"/>
        <pt x="507" y="591" on="1"/>
        <pt x="505" y="585" on="0"/>
        <pt x="501" y="581" on="0"/>
        <pt x="501" y="577" on="1"/>
        <pt x="496" y="573" on="0"/>
        <pt x="492" y="564" on="0"/>
        <pt x="487" y="561" on="1"/>
        <pt x="481" y="557" on="0"/>
        <pt x="468" y="553" on="0"/>
        <pt x="463" y="548" on="1"/>
        <pt x="451" y="547" on="0"/>
        <pt x="449" y="545" on="0"/>
        <pt x="447" y="545" on="1"/>
        <pt x="445" y="547" on="0"/>
        <pt x="435" y="543" on="0"/>
        <pt x="432" y="542" on="1"/>
        <pt x="426" y="541" on="0"/>
        <pt x="415" y="547" on="0"/>
        <pt x="410" y="547" on="1"/>
        <pt x="402" y="544" on="0"/>
        <pt x="387" y="547" on="0"/>
        <pt x="380" y="545" on="1"/>
        <pt x="372" y="550" on="0"/>
        <pt x="353" y="556" on="0"/>
        <pt x="350" y="565" on="1"/>
        <pt x="339" y="574" on="0"/>
        <pt x="340" y="594" on="0"/>
        <pt x="336" y="599" on="1"/>
        <pt x="334" y="604" on="0"/>
        <pt x="337" y="613" on="0"/>
        <pt x="337" y="618" on="1"/>
        <pt x="336" y="625" on="0"/>
        <pt x="327" y="634" on="0"/>
        <pt x="328" y="641" on="1"/>
        <pt x="315" y="645" on="0"/>
        <pt x="306" y="657" on="0"/>
        <pt x="298" y="659" on="1"/>
        <pt x="292" y="669" on="0"/>
        <pt x="289" y="674" on="0"/>
        <pt x="288" y="677" on="1"/>
        <pt x="276" y="685" on="0"/>
        <pt x="253" y="676" on="0"/>
        <pt x="241" y="671" on="1"/>
        <pt x="231" y="669" on="0"/>
        <pt x="224" y="664" on="0"/>
        <pt x="219" y="665" on="1"/>
        <pt x="212" y="659" on="0"/>
        <pt x="206" y="652" on="0"/>
        <pt x="203" y="654" on="1"/>
        <pt x="187" y="640" on="0"/>
        <pt x="168" y="627" on="0"/>
        <pt x="163" y="615" on="1"/>
        <pt x="155" y="607" on="0"/>
        <pt x="142" y="592" on="0"/>
        <pt x="139" y="581" on="1"/>
        <pt x="135" y="567" on="0"/>
        <pt x="126" y="548" on="0"/>
        <pt x="124" y="537" on="1"/>
        <pt x="122" y="531" on="0"/>
        <pt x="118" y="522" on="0"/>
        <pt x="118" y="515" on="1"/>
        <pt x="114" y="502" on="0"/>
        <pt x="108" y="471" on="0"/>
        <pt x="108" y="459" on="1"/>
        <pt x="110" y="454" on="0"/>
        <pt x="110" y="436" on="0"/>
        <pt x="115" y="431" on="1"/>
        <pt x="114" y="420" on="0"/>
        <pt x="126" y="406" on="0"/>
        <pt x="130" y="398" on="1"/>
        <pt x="131" y="395" on="0"/>
        <pt x="131" y="388" on="0"/>
        <pt x="133" y="384" on="1"/>
        <pt x="135" y="379" on="0"/>
        <pt x="139" y="372" on="0"/>
        <pt x="140" y="367" on="1"/>
        <pt x="142" y="362" on="0"/>
        <pt x="142" y="352" on="0"/>
        <pt x="143" y="348" on="1"/>
        <pt x="145" y="340" on="0"/>
        <pt x="150" y="310" on="0"/>
        <pt x="147" y="301" on="1"/>
        <pt x="142" y="290" on="0"/>
        <pt x="142" y="273" on="0"/>
        <pt x="144" y="270" on="1"/>
        <pt x="146" y="266" on="0"/>
        <pt x="161" y="266" on="0"/>
        <pt x="163" y="263" on="1"/>
        <pt x="163" y="257" on="0"/>
        <pt x="167" y="248" on="0"/>
        <pt x="169" y="243" on="1"/>
        <pt x="170" y="238" on="0"/>
        <pt x="168" y="227" on="0"/>
        <pt x="170" y="222" on="1"/>
        <pt x="171" y="216" on="0"/>
        <pt x="179" y="203" on="0"/>
        <pt x="182" y="196" on="1"/>
        <pt x="188" y="182" on="0"/>
        <pt x="188" y="174" on="0"/>
        <pt x="189" y="170" on="1"/>
        <pt x="192" y="167" on="0"/>
        <pt x="195" y="160" on="0"/>
        <pt x="198" y="158" on="1"/>
        <pt x="200" y="150" on="0"/>
        <pt x="201" y="138" on="0"/>
        <pt x="204" y="133" on="1"/>
        <pt x="202" y="130" on="0"/>
        <pt x="206" y="125" on="0"/>
        <pt x="205" y="121" on="1"/>
        <pt x="205" y="107" on="0"/>
        <pt x="218" y="100" on="0"/>
        <pt x="223" y="96" on="1"/>
        <pt x="234" y="94" on="0"/>
        <pt x="257" y="88" on="0"/>
        <pt x="269" y="88" on="1"/>
        <pt x="279" y="84" on="0"/>
        <pt x="292" y="90" on="0"/>
        <pt x="305" y="97" on="0"/>
        <pt x="318" y="105" on="0"/>
        <pt x="327" y="106" on="1"/>
        <pt x="338" y="110" on="0"/>
        <pt x="343" y="130" on="0"/>
        <pt x="345" y="140" on="1"/>
        <pt x="348" y="152" on="0"/>
        <pt x="352" y="154" on="1"/>
        <pt x="355" y="172" on="0"/>
        <pt x="370" y="202" on="0"/>
        <pt x="375" y="219" on="1"/>
        <pt x="378" y="221" on="0"/>
        <pt x="379" y="230" on="0"/>
        <pt x="382" y="232" on="1"/>
        <pt x="382" y="241" on="0"/>
        <pt x="393" y="253" on="0"/>
        <pt x="395" y="262" on="1"/>
        <pt x="405" y="273" on="0"/>
        <pt x="414" y="285" on="0"/>
        <pt x="420" y="289" on="1"/>
        <pt x="428" y="290" on="0"/>
        <pt x="438" y="295" on="1"/>
        <pt x="448" y="294" on="0"/>
        <pt x="456" y="293" on="0"/>
        <pt x="458" y="291" on="1"/>
        <pt x="466" y="291" on="0"/>
        <pt x="473" y="285" on="0"/>
        <pt x="480" y="283" on="1"/>
        <pt x="483" y="279" on="0"/>
        <pt x="487" y="270" on="0"/>
        <pt x="490" y="267" on="1"/>
        <pt x="495" y="254" on="0"/>
        <pt x="489" y="234" on="0"/>
        <pt x="487" y="224" on="1"/>
        <pt x="486" y="220" on="0"/>
        <pt x="482" y="214" on="1"/>
        <pt x="480" y="209" on="0"/>
        <pt x="479" y="198" on="0"/>
        <pt x="474" y="196" on="1"/>
        <pt x="474" y="188" on="0"/>
        <pt x="464" y="180" on="0"/>
        <pt x="461" y="175" on="1"/>
        <pt x="457" y="170" on="0"/>
        <pt x="452" y="161" on="0"/>
        <pt x="446" y="158" on="1"/>
        <pt x="441" y="156" on="0"/>
        <pt x="432" y="157" on="0"/>
        <pt x="428" y="156" on="1"/>
        <pt x="421" y="153" on="0"/>
        <pt x="418" y="153" on="0"/>
        <pt x="416" y="151" on="1"/>
        <pt x="412" y="146" on="0"/>
        <pt x="408" y="128" on="0"/>
        <pt x="406" y="122" on="1"/>
        <pt x="401" y="112" on="0"/>
        <pt x="402" y="105" on="0"/>
        <pt x="401" y="102" on="1"/>
        <pt x="400" y="97" on="0"/>
        <pt x="397" y="87" on="0"/>
        <pt x="395" y="83" on="1"/>
        <pt x="389" y="74" on="0"/>
        <pt x="384" y="71" on="0"/>
        <pt x="383" y="69" on="1"/>
        <pt x="380" y="62" on="0"/>
        <pt x="376" y="59" on="0"/>
        <pt x="376" y="55" on="1"/>
        <pt x="359" y="47" on="0"/>
        <pt x="336" y="20" on="0"/>
        <pt x="317" y="13" on="1"/>
        <pt x="309" y="8" on="0"/>
        <pt x="289" y="5" on="0"/>
        <pt x="280" y="3" on="1"/>
        <pt x="271" y="-12" on="0"/>
        <pt x="267" y="-33" on="0"/>
        <pt x="279" y="-38" on="1"/>
        <pt x="291" y="-39" on="0"/>
        <pt x="314" y="-42" on="0"/>
        <pt x="325" y="-46" on="1"/>
        <pt x="339" y="-51" on="0"/>
        <pt x="353" y="-53" on="0"/>
        <pt x="356" y="-58" on="1"/>
        <pt x="366" y="-60" on="0"/>
        <pt x="374" y="-70" on="0"/>
        <pt x="379" y="-74" on="1"/>
        <pt x="379" y="-77" on="0"/>
        <pt x="385" y="-82" on="0"/>
        <pt x="385" y="-85" on="1"/>
        <pt x="383" y="-99" on="0"/>
        <pt x="379" y="-109" on="0"/>
        <pt x="379" y="-113" on="1"/>
        <pt x="377" y="-136" on="0"/>
        <pt x="362" y="-157" on="0"/>
        <pt x="352" y="-165" on="1"/>
        <pt x="347" y="-170" on="0"/>
        <pt x="343" y="-176" on="0"/>
        <pt x="337" y="-177" on="1"/>
        <pt x="334" y="-182" on="0"/>
        <pt x="315" y="-187" on="0"/>
        <pt x="307" y="-188" on="1"/>
        <pt x="289" y="-195" on="0"/>
        <pt x="265" y="-198" on="1"/>
        <pt x="255" y="-198" on="0"/>
        <pt x="246" y="-198" on="0"/>
        <pt x="241" y="-196" on="1"/>
        <pt x="224" y="-192" on="0"/>
        <pt x="203" y="-190" on="0"/>
        <pt x="197" y="-188" on="1"/>
        <pt x="182" y="-182" on="0"/>
        <pt x="172" y="-178" on="0"/>
        <pt x="166" y="-176" on="1"/>
        <pt x="144" y="-170" on="0"/>
        <pt x="135" y="-151" on="0"/>
        <pt x="139" y="-141" on="1"/>
        <pt x="141" y="-135" on="0"/>
        <pt x="147" y="-126" on="0"/>
        <pt x="154" y="-124" on="1"/>
        <pt x="159" y="-122" on="0"/>
        <pt x="174" y="-123" on="0"/>
        <pt x="176" y="-125" on="1"/>
        <pt x="194" y="-127" on="0"/>
        <pt x="203" y="-135" on="0"/>
        <pt x="211" y="-136" on="1"/>
        <pt x="213" y="-137" on="0"/>
        <pt x="224" y="-135" on="0"/>
        <pt x="226" y="-135" on="1"/>
        <pt x="228" y="-136" on="0"/>
        <pt x="242" y="-141" on="0"/>
        <pt x="246" y="-141" on="1"/>
        <pt x="251" y="-141" on="0"/>
        <pt x="268" y="-137" on="0"/>
        <pt x="270" y="-134" on="1"/>
        <pt x="274" y="-132" on="0"/>
        <pt x="282" y="-130" on="0"/>
        <pt x="285" y="-128" on="1"/>
        <pt x="287" y="-127" on="0"/>
        <pt x="296" y="-122" on="0"/>
        <pt x="298" y="-120" on="1"/>
        <pt x="300" y="-117" on="0"/>
        <pt x="300" y="-109" on="0"/>
        <pt x="302" y="-104" on="1"/>
        <pt x="296" y="-92" on="0"/>
        <pt x="288" y="-87" on="0"/>
        <pt x="284" y="-84" on="1"/>
        <pt x="278" y="-82" on="0"/>
        <pt x="257" y="-80" on="0"/>
        <pt x="253" y="-77" on="1"/>
        <pt x="239" y="-78" on="0"/>
        <pt x="237" y="-80" on="0"/>
        <pt x="228" y="-78" on="1"/>
        <pt x="205" y="-78" on="0"/>
        <pt x="196" y="-59" on="0"/>
        <pt x="197" y="-51" on="1"/>
        <pt x="190" y="-46" on="0"/>
        <pt x="205" y="-34" on="0"/>
      </contour>
    </TTGlyph>
    <TTGlyph name="D" xMin="-1" yMin="-23" xMax="507" yMax="733">
      <contour>
        <pt x="444" y="148" on="1"/>
        <pt x="439" y="148" on="0"/>
        <pt x="435" y="137" on="0"/>
        <pt x="429" y="137" on="1"/>
        <pt x="418" y="127" on="0"/>
        <pt x="413" y="111" on="0"/>
        <pt x="407" y="106" on="1"/>
        <pt x="406" y="97" on="0"/>
        <pt x="391" y="84" on="0"/>
        <pt x="386" y="76" on="1"/>
        <pt x="382" y="69" on="0"/>
        <pt x="378" y="58" on="0"/>
        <pt x="373" y="55" on="1"/>
        <pt x="371" y="53" on="0"/>
        <pt x="364" y="53" on="0"/>
        <pt x="360" y="51" on="1"/>
        <pt x="350" y="46" on="0"/>
        <pt x="338" y="45" on="0"/>
        <pt x="333" y="41" on="1"/>
        <pt x="312" y="39" on="0"/>
        <pt x="281" y="25" on="0"/>
        <pt x="253" y="8" on="0"/>
        <pt x="225" y="-6" on="0"/>
        <pt x="207" y="-8" on="1"/>
        <pt x="202" y="-10" on="0"/>
        <pt x="188" y="-12" on="0"/>
        <pt x="184" y="-14" on="1"/>
        <pt x="176" y="-15" on="0"/>
        <pt x="160" y="-15" on="0"/>
        <pt x="155" y="-17" on="1"/>
        <pt x="152" y="-17" on="0"/>
        <pt x="144" y="-17" on="0"/>
        <pt x="143" y="-20" on="1"/>
        <pt x="140" y="-19" on="0"/>
        <pt x="134" y="-20" on="0"/>
        <pt x="129" y="-20" on="1"/>
        <pt x="115" y="-23" on="0"/>
        <pt x="104" y="-19" on="0"/>
        <pt x="99" y="-19" on="1"/>
        <pt x="91" y="-20" on="0"/>
        <pt x="74" y="-21" on="0"/>
        <pt x="68" y="-16" on="1"/>
        <pt x="63" y="-15" on="0"/>
        <pt x="54" y="-17" on="0"/>
        <pt x="49" y="-15" on="1"/>
        <pt x="47" y="-14" on="0"/>
        <pt x="43" y="-8" on="0"/>
        <pt x="41" y="-5" on="1"/>
        <pt x="37" y="2" on="0"/>
        <pt x="33" y="7" on="0"/>
        <pt x="31" y="9" on="1"/>
        <pt x="26" y="21" on="0"/>
        <pt x="26" y="23" on="1"/>
        <pt x="25" y="26" on="0"/>
        <pt x="27" y="33" on="0"/>
        <pt x="26" y="35" on="1"/>
        <pt x="30" y="48" on="0"/>
        <pt x="33" y="56" on="0"/>
        <pt x="37" y="58" on="1"/>
        <pt x="37" y="65" on="0"/>
        <pt x="47" y="74" on="0"/>
        <pt x="50" y="79" on="1"/>
        <pt x="54" y="84" on="0"/>
        <pt x="60" y="87" on="0"/>
        <pt x="63" y="89" on="1"/>
        <pt x="68" y="91" on="0"/>
        <pt x="76" y="100" on="0"/>
        <pt x="81" y="102" on="1"/>
        <pt x="88" y="134" on="0"/>
        <pt x="88" y="166" on="1"/>
        <pt x="90" y="179" on="0"/>
        <pt x="97" y="192" on="0"/>
        <pt x="97" y="203" on="1"/>
        <pt x="95" y="208" on="0"/>
        <pt x="95" y="222" on="0"/>
        <pt x="96" y="227" on="1"/>
        <pt x="93" y="231" on="0"/>
        <pt x="94" y="242" on="0"/>
        <pt x="89" y="246" on="1"/>
        <pt x="90" y="263" on="0"/>
        <pt x="87" y="280" on="0"/>
        <pt x="89" y="288" on="1"/>
        <pt x="88" y="302" on="0"/>
        <pt x="87" y="331" on="0"/>
        <pt x="86" y="362" on="0"/>
        <pt x="86" y="394" on="0"/>
        <pt x="86" y="407" on="1"/>
        <pt x="86" y="417" on="0"/>
        <pt x="89" y="423" on="1"/>
        <pt x="87" y="431" on="0"/>
        <pt x="88" y="441" on="0"/>
        <pt x="90" y="443" on="1"/>
        <pt x="90" y="455" on="0"/>
        <pt x="95" y="471" on="0"/>
        <pt x="97" y="479" on="1"/>
        <pt x="97" y="492" on="0"/>
        <pt x="89" y="515" on="0"/>
        <pt x="89" y="528" on="1"/>
        <pt x="86" y="534" on="0"/>
        <pt x="81" y="546" on="0"/>
        <pt x="81" y="554" on="1"/>
        <pt x="75" y="563" on="0"/>
        <pt x="72" y="586" on="0"/>
        <pt x="70" y="598" on="1"/>
        <pt x="63" y="613" on="0"/>
        <pt x="43" y="625" on="0"/>
        <pt x="32" y="623" on="1"/>
        <pt x="23" y="633" on="0"/>
        <pt x="11" y="641" on="0"/>
        <pt x="5" y="645" on="1"/>
        <pt x="-1" y="661" on="0"/>
        <pt x="6" y="680" on="0"/>
        <pt x="7" y="688" on="1"/>
        <pt x="10" y="692" on="0"/>
        <pt x="11" y="700" on="0"/>
        <pt x="13" y="703" on="1"/>
        <pt x="20" y="709" on="0"/>
        <pt x="20" y="711" on="0"/>
        <pt x="22" y="712" on="1"/>
        <pt x="31" y="722" on="0"/>
        <pt x="39" y="726" on="0"/>
        <pt x="44" y="728" on="1"/>
        <pt x="47" y="729" on="0"/>
        <pt x="51" y="732" on="0"/>
        <pt x="55" y="731" on="1"/>
        <pt x="61" y="732" on="0"/>
        <pt x="75" y="733" on="0"/>
        <pt x="82" y="731" on="1"/>
        <pt x="93" y="726" on="0"/>
        <pt x="101" y="727" on="0"/>
        <pt x="106" y="727" on="1"/>
        <pt x="115" y="726" on="0"/>
        <pt x="130" y="719" on="0"/>
        <pt x="135" y="716" on="1"/>
        <pt x="145" y="714" on="0"/>
        <pt x="174" y="712" on="0"/>
        <pt x="187" y="714" on="1"/>
        <pt x="199" y="709" on="0"/>
        <pt x="227" y="705" on="0"/>
        <pt x="244" y="705" on="1"/>
        <pt x="251" y="703" on="0"/>
        <pt x="259" y="707" on="0"/>
        <pt x="263" y="707" on="1"/>
        <pt x="273" y="706" on="0"/>
        <pt x="274" y="703" on="0"/>
        <pt x="275" y="703" on="1"/>
        <pt x="285" y="703" on="0"/>
        <pt x="292" y="700" on="0"/>
        <pt x="296" y="699" on="1"/>
        <pt x="304" y="699" on="0"/>
        <pt x="307" y="698" on="1"/>
        <pt x="320" y="692" on="0"/>
        <pt x="325" y="693" on="0"/>
        <pt x="327" y="692" on="1"/>
        <pt x="338" y="684" on="0"/>
        <pt x="344" y="683" on="0"/>
        <pt x="346" y="680" on="1"/>
        <pt x="353" y="679" on="0"/>
        <pt x="362" y="674" on="0"/>
        <pt x="368" y="672" on="1"/>
        <pt x="372" y="666" on="0"/>
        <pt x="381" y="654" on="0"/>
        <pt x="383" y="646" on="1"/>
        <pt x="388" y="640" on="0"/>
        <pt x="406" y="634" on="0"/>
        <pt x="412" y="628" on="1"/>
        <pt x="416" y="616" on="0"/>
        <pt x="430" y="598" on="0"/>
        <pt x="432" y="587" on="1"/>
        <pt x="440" y="577" on="0"/>
        <pt x="443" y="574" on="0"/>
        <pt x="445" y="573" on="1"/>
        <pt x="452" y="556" on="0"/>
        <pt x="470" y="538" on="0"/>
        <pt x="469" y="525" on="1"/>
        <pt x="473" y="520" on="0"/>
        <pt x="475" y="503" on="0"/>
        <pt x="476" y="496" on="1"/>
        <pt x="470" y="486" on="0"/>
        <pt x="480" y="469" on="0"/>
        <pt x="481" y="459" on="1"/>
        <pt x="481" y="446" on="0"/>
        <pt x="487" y="437" on="0"/>
        <pt x="489" y="433" on="1"/>
        <pt x="490" y="425" on="0"/>
        <pt x="496" y="411" on="0"/>
        <pt x="500" y="404" on="1"/>
        <pt x="504" y="384" on="0"/>
        <pt x="503" y="349" on="0"/>
        <pt x="501" y="332" on="1"/>
        <pt x="507" y="311" on="0"/>
        <pt x="498" y="286" on="0"/>
        <pt x="502" y="275" on="1"/>
        <pt x="500" y="272" on="0"/>
        <pt x="498" y="265" on="0"/>
        <pt x="496" y="262" on="1"/>
        <pt x="493" y="237" on="0"/>
        <pt x="470" y="199" on="0"/>
        <pt x="462" y="177" on="1"/>
        <pt x="457" y="172" on="0"/>
        <pt x="450" y="158" on="0"/>
        <pt x="443" y="153" on="1"/>
      </contour>
      <contour>
        <pt x="388" y="252" on="1"/>
        <pt x="389" y="255" on="0"/>
        <pt x="391" y="261" on="0"/>
        <pt x="394" y="263" on="1"/>
        <pt x="398" y="269" on="0"/>
        <pt x="401" y="280" on="0"/>
        <pt x="402" y="285" on="1"/>
        <pt x="406" y="288" on="0"/>
        <pt x="408" y="302" on="0"/>
        <pt x="409" y="308" on="1"/>
        <pt x="409" y="324" on="1"/>
        <pt x="411" y="338" on="0"/>
        <pt x="412" y="363" on="0"/>
        <pt x="412" y="377" on="1"/>
        <pt x="413" y="384" on="0"/>
        <pt x="410" y="394" on="0"/>
        <pt x="409" y="400" on="1"/>
        <pt x="409" y="403" on="0"/>
        <pt x="410" y="409" on="0"/>
        <pt x="410" y="411" on="1"/>
        <pt x="404" y="428" on="0"/>
        <pt x="400" y="444" on="0"/>
        <pt x="398" y="452" on="1"/>
        <pt x="396" y="457" on="0"/>
        <pt x="391" y="464" on="0"/>
        <pt x="391" y="468" on="1"/>
        <pt x="390" y="472" on="0"/>
        <pt x="387" y="479" on="0"/>
        <pt x="389" y="483" on="1"/>
        <pt x="384" y="491" on="0"/>
        <pt x="389" y="513" on="0"/>
        <pt x="384" y="521" on="1"/>
        <pt x="377" y="528" on="0"/>
        <pt x="373" y="536" on="0"/>
        <pt x="370" y="539" on="1"/>
        <pt x="365" y="542" on="0"/>
        <pt x="353" y="547" on="0"/>
        <pt x="350" y="552" on="1"/>
        <pt x="342" y="558" on="0"/>
        <pt x="331" y="560" on="0"/>
        <pt x="327" y="564" on="1"/>
        <pt x="314" y="566" on="0"/>
        <pt x="294" y="581" on="0"/>
        <pt x="284" y="586" on="1"/>
        <pt x="269" y="590" on="0"/>
        <pt x="242" y="595" on="0"/>
        <pt x="228" y="600" on="1"/>
        <pt x="209" y="604" on="0"/>
        <pt x="195" y="600" on="1"/>
        <pt x="190" y="595" on="0"/>
        <pt x="189" y="584" on="0"/>
        <pt x="187" y="577" on="1"/>
        <pt x="181" y="559" on="0"/>
        <pt x="180" y="544" on="0"/>
        <pt x="176" y="539" on="1"/>
        <pt x="177" y="531" on="0"/>
        <pt x="172" y="507" on="0"/>
        <pt x="180" y="501" on="1"/>
        <pt x="181" y="497" on="0"/>
        <pt x="179" y="488" on="0"/>
        <pt x="181" y="485" on="1"/>
        <pt x="180" y="479" on="0"/>
        <pt x="179" y="467" on="0"/>
        <pt x="179" y="460" on="1"/>
        <pt x="177" y="455" on="0"/>
        <pt x="172" y="441" on="0"/>
        <pt x="171" y="433" on="1"/>
        <pt x="172" y="426" on="0"/>
        <pt x="170" y="420" on="0"/>
        <pt x="169" y="417" on="1"/>
        <pt x="167" y="400" on="0"/>
        <pt x="175" y="365" on="0"/>
        <pt x="172" y="348" on="1"/>
        <pt x="167" y="331" on="0"/>
        <pt x="171" y="319" on="0"/>
        <pt x="173" y="311" on="1"/>
        <pt x="173" y="299" on="0"/>
        <pt x="175" y="294" on="1"/>
        <pt x="173" y="283" on="0"/>
        <pt x="170" y="265" on="0"/>
        <pt x="168" y="255" on="1"/>
        <pt x="168" y="246" on="0"/>
        <pt x="166" y="226" on="0"/>
        <pt x="171" y="218" on="1"/>
        <pt x="171" y="198" on="0"/>
        <pt x="189" y="165" on="0"/>
        <pt x="188" y="146" on="1"/>
        <pt x="190" y="140" on="0"/>
        <pt x="197" y="127" on="0"/>
        <pt x="195" y="121" on="1"/>
        <pt x="198" y="118" on="0"/>
        <pt x="202" y="112" on="0"/>
        <pt x="205" y="109" on="1"/>
        <pt x="208" y="110" on="0"/>
        <pt x="212" y="105" on="0"/>
        <pt x="215" y="104" on="1"/>
        <pt x="223" y="102" on="0"/>
        <pt x="238" y="98" on="0"/>
        <pt x="245" y="100" on="1"/>
        <pt x="248" y="101" on="0"/>
        <pt x="258" y="107" on="0"/>
        <pt x="263" y="109" on="1"/>
        <pt x="268" y="111" on="0"/>
        <pt x="276" y="115" on="0"/>
        <pt x="278" y="120" on="1"/>
        <pt x="296" y="132" on="0"/>
        <pt x="308" y="149" on="0"/>
        <pt x="315" y="158" on="1"/>
        <pt x="315" y="163" on="0"/>
        <pt x="317" y="168" on="0"/>
        <pt x="318" y="173" on="1"/>
        <pt x="325" y="180" on="0"/>
        <pt x="336" y="197" on="0"/>
        <pt x="344" y="203" on="1"/>
        <pt x="349" y="210" on="0"/>
        <pt x="356" y="217" on="0"/>
        <pt x="361" y="219" on="1"/>
        <pt x="370" y="228" on="0"/>
        <pt x="380" y="246" on="0"/>
      </contour>
      <contour>
        <pt x="467" y="686" on="1"/>
        <pt x="466" y="683" on="0"/>
        <pt x="474" y="676" on="0"/>
        <pt x="476" y="672" on="1"/>
        <pt x="478" y="656" on="0"/>
        <pt x="470" y="648" on="0"/>
        <pt x="468" y="643" on="1"/>
        <pt x="456" y="634" on="0"/>
        <pt x="435" y="643" on="0"/>
        <pt x="428" y="647" on="1"/>
        <pt x="426" y="654" on="0"/>
        <pt x="418" y="668" on="0"/>
        <pt x="419" y="676" on="1"/>
        <pt x="433" y="690" on="0"/>
        <pt x="458" y="693" on="0"/>
        <pt x="464" y="686" on="1"/>
      </contour>
      <contour>
        <pt x="49" y="550" on="1"/>
        <pt x="44" y="546" on="0"/>
        <pt x="38" y="529" on="0"/>
        <pt x="30" y="535" on="1"/>
        <pt x="18" y="540" on="0"/>
        <pt x="12" y="552" on="0"/>
        <pt x="16" y="559" on="1"/>
        <pt x="16" y="565" on="0"/>
        <pt x="19" y="571" on="0"/>
        <pt x="24" y="573" on="1"/>
        <pt x="36" y="575" on="0"/>
        <pt x="45" y="557" on="0"/>
      </contour>
      <contour>
        <pt x="215" y="220" on="1"/>
        <pt x="223" y="211" on="0"/>
        <pt x="226" y="205" on="0"/>
        <pt x="226" y="202" on="1"/>
        <pt x="226" y="192" on="0"/>
        <pt x="212" y="187" on="1"/>
        <pt x="199" y="189" on="0"/>
        <pt x="199" y="204" on="0"/>
        <pt x="201" y="211" on="1"/>
        <pt x="214" y="219" on="0"/>
      </contour>
      <contour>
        <pt x="217" y="162" on="1"/>
        <pt x="228" y="171" on="0"/>
        <pt x="261" y="168" on="0"/>
        <pt x="267" y="155" on="1"/>
        <pt x="270" y="141" on="0"/>
        <pt x="255" y="131" on="0"/>
        <pt x="249" y="124" on="1"/>
        <pt x="239" y="123" on="0"/>
        <pt x="233" y="125" on="1"/>
        <pt x="219" y="138" on="0"/>
      </contour>
      <contour>
        <pt x="280" y="-14" on="1"/>
        <pt x="279" y="-9" on="0"/>
        <pt x="282" y="-2" on="0"/>
        <pt x="284" y="2" on="1"/>
        <pt x="287" y="4" on="0"/>
        <pt x="294" y="6" on="0"/>
        <pt x="296" y="9" on="1"/>
        <pt x="305" y="8" on="0"/>
        <pt x="328" y="18" on="0"/>
        <pt x="336" y="11" on="1"/>
        <pt x="340" y="2" on="0"/>
        <pt x="332" y="-10" on="0"/>
        <pt x="317" y="-18" on="0"/>
        <pt x="298" y="-21" on="0"/>
        <pt x="291" y="-22" on="1"/>
        <pt x="289" y="-20" on="0"/>
        <pt x="282" y="-16" on="0"/>
      </contour>
    </TTGlyph>
    <TTGlyph name="E" xMin="10" yMin="-14" xMax="504" yMax="774">
      <contour>
        <pt x="381" y="746" on="1"/>
        <pt x="388" y="738" on="0"/>
        <pt x="392" y="730" on="1"/>
        <pt x="398" y="726" on="0"/>
        <pt x="403" y="718" on="1"/>
        <pt x="406" y="706" on="0"/>
        <pt x="418" y="691" on="0"/>
        <pt x="423" y="681" on="1"/>
        <pt x="424" y="674" on="0"/>
        <pt x="425" y="657" on="0"/>
        <pt x="427" y="649" on="1"/>
        <pt x="428" y="646" on="0"/>
        <pt x="429" y="639" on="0"/>
        <pt x="428" y="636" on="1"/>
        <pt x="429" y="631" on="0"/>
        <pt x="430" y="614" on="0"/>
        <pt x="428" y="609" on="1"/>
        <pt x="432" y="598" on="0"/>
        <pt x="430" y="576" on="0"/>
        <pt x="429" y="565" on="1"/>
        <pt x="428" y="558" on="0"/>
        <pt x="426" y="545" on="0"/>
        <pt x="425" y="538" on="1"/>
        <pt x="424" y="535" on="0"/>
        <pt x="422" y="527" on="0"/>
        <pt x="422" y="524" on="1"/>
        <pt x="421" y="519" on="0"/>
        <pt x="424" y="509" on="0"/>
        <pt x="422" y="504" on="1"/>
        <pt x="423" y="480" on="0"/>
        <pt x="430" y="456" on="0"/>
        <pt x="429" y="442" on="1"/>
        <pt x="426" y="426" on="0"/>
        <pt x="418" y="395" on="0"/>
        <pt x="410" y="384" on="1"/>
        <pt x="402" y="380" on="0"/>
        <pt x="386" y="372" on="0"/>
        <pt x="380" y="366" on="1"/>
        <pt x="371" y="365" on="0"/>
        <pt x="350" y="357" on="0"/>
        <pt x="340" y="358" on="1"/>
        <pt x="336" y="359" on="0"/>
        <pt x="324" y="357" on="0"/>
        <pt x="321" y="359" on="1"/>
        <pt x="312" y="366" on="0"/>
        <pt x="298" y="362" on="0"/>
        <pt x="294" y="367" on="1"/>
        <pt x="284" y="367" on="0"/>
        <pt x="261" y="369" on="0"/>
        <pt x="247" y="370" on="1"/>
        <pt x="236" y="366" on="0"/>
        <pt x="213" y="369" on="0"/>
        <pt x="205" y="373" on="1"/>
        <pt x="199" y="373" on="0"/>
        <pt x="185" y="376" on="0"/>
        <pt x="179" y="377" on="1"/>
        <pt x="176" y="375" on="0"/>
        <pt x="165" y="373" on="0"/>
        <pt x="163" y="374" on="1"/>
        <pt x="157" y="369" on="0"/>
        <pt x="145" y="356" on="0"/>
        <pt x="143" y="346" on="1"/>
        <pt x="145" y="334" on="0"/>
        <pt x="147" y="311" on="0"/>
        <pt x="147" y="299" on="1"/>
        <pt x="147" y="291" on="0"/>
        <pt x="156" y="277" on="0"/>
        <pt x="157" y="267" on="1"/>
        <pt x="158" y="259" on="0"/>
        <pt x="159" y="248" on="0"/>
        <pt x="162" y="242" on="1"/>
        <pt x="160" y="239" on="0"/>
        <pt x="163" y="230" on="0"/>
        <pt x="161" y="228" on="1"/>
        <pt x="165" y="221" on="0"/>
        <pt x="166" y="202" on="0"/>
        <pt x="172" y="195" on="1"/>
        <pt x="172" y="184" on="0"/>
        <pt x="177" y="169" on="0"/>
        <pt x="181" y="162" on="1"/>
        <pt x="184" y="157" on="0"/>
        <pt x="195" y="154" on="0"/>
        <pt x="199" y="151" on="1"/>
        <pt x="206" y="134" on="0"/>
        <pt x="224" y="127" on="1"/>
        <pt x="234" y="119" on="0"/>
        <pt x="237" y="115" on="1"/>
        <pt x="242" y="115" on="0"/>
        <pt x="248" y="113" on="0"/>
        <pt x="252" y="112" on="1"/>
        <pt x="255" y="112" on="0"/>
        <pt x="261" y="108" on="0"/>
        <pt x="264" y="108" on="1"/>
        <pt x="266" y="109" on="0"/>
        <pt x="274" y="110" on="0"/>
        <pt x="278" y="111" on="1"/>
        <pt x="288" y="115" on="0"/>
        <pt x="296" y="119" on="1"/>
        <pt x="301" y="121" on="0"/>
        <pt x="308" y="128" on="0"/>
        <pt x="311" y="130" on="1"/>
        <pt x="318" y="134" on="0"/>
        <pt x="323" y="139" on="0"/>
        <pt x="326" y="139" on="1"/>
        <pt x="339" y="164" on="0"/>
        <pt x="361" y="195" on="0"/>
        <pt x="372" y="211" on="1"/>
        <pt x="377" y="218" on="0"/>
        <pt x="377" y="226" on="0"/>
        <pt x="380" y="228" on="1"/>
        <pt x="379" y="236" on="0"/>
        <pt x="387" y="245" on="0"/>
        <pt x="386" y="251" on="1"/>
        <pt x="389" y="258" on="0"/>
        <pt x="399" y="265" on="0"/>
        <pt x="402" y="270" on="1"/>
        <pt x="411" y="278" on="0"/>
        <pt x="417" y="280" on="0"/>
        <pt x="420" y="284" on="1"/>
        <pt x="431" y="288" on="0"/>
        <pt x="458" y="289" on="0"/>
        <pt x="469" y="283" on="1"/>
        <pt x="474" y="278" on="0"/>
        <pt x="478" y="266" on="0"/>
        <pt x="485" y="264" on="1"/>
        <pt x="486" y="259" on="0"/>
        <pt x="493" y="255" on="0"/>
        <pt x="496" y="253" on="1"/>
        <pt x="497" y="244" on="0"/>
        <pt x="504" y="226" on="0"/>
        <pt x="504" y="216" on="1"/>
        <pt x="504" y="193" on="0"/>
        <pt x="490" y="166" on="0"/>
        <pt x="481" y="154" on="1"/>
        <pt x="477" y="147" on="0"/>
        <pt x="464" y="145" on="0"/>
        <pt x="462" y="139" on="1"/>
        <pt x="452" y="139" on="0"/>
        <pt x="439" y="139" on="0"/>
        <pt x="431" y="136" on="1"/>
        <pt x="426" y="128" on="0"/>
        <pt x="415" y="116" on="0"/>
        <pt x="411" y="108" on="1"/>
        <pt x="403" y="101" on="0"/>
        <pt x="397" y="91" on="0"/>
        <pt x="392" y="86" on="1"/>
        <pt x="381" y="73" on="0"/>
        <pt x="373" y="54" on="0"/>
        <pt x="365" y="48" on="1"/>
        <pt x="360" y="44" on="0"/>
        <pt x="350" y="39" on="0"/>
        <pt x="348" y="32" on="1"/>
        <pt x="335" y="30" on="0"/>
        <pt x="314" y="21" on="0"/>
        <pt x="303" y="18" on="1"/>
        <pt x="300" y="16" on="0"/>
        <pt x="293" y="11" on="0"/>
        <pt x="291" y="8" on="1"/>
        <pt x="286" y="4" on="0"/>
        <pt x="279" y="-1" on="1"/>
        <pt x="277" y="-2" on="0"/>
        <pt x="272" y="-6" on="0"/>
        <pt x="270" y="-8" on="1"/>
        <pt x="264" y="-8" on="0"/>
        <pt x="255" y="-13" on="0"/>
        <pt x="251" y="-14" on="1"/>
        <pt x="239" y="-13" on="0"/>
        <pt x="233" y="-10" on="0"/>
        <pt x="230" y="-9" on="1"/>
        <pt x="226" y="-9" on="0"/>
        <pt x="212" y="-9" on="0"/>
        <pt x="209" y="-5" on="1"/>
        <pt x="194" y="3" on="0"/>
        <pt x="172" y="17" on="0"/>
        <pt x="163" y="28" on="1"/>
        <pt x="158" y="28" on="0"/>
        <pt x="153" y="36" on="0"/>
        <pt x="150" y="40" on="1"/>
        <pt x="142" y="44" on="0"/>
        <pt x="131" y="52" on="0"/>
        <pt x="133" y="57" on="1"/>
        <pt x="123" y="65" on="0"/>
        <pt x="116" y="82" on="0"/>
        <pt x="114" y="92" on="1"/>
        <pt x="101" y="100" on="0"/>
        <pt x="99" y="111" on="0"/>
        <pt x="97" y="116" on="1"/>
        <pt x="95" y="128" on="0"/>
        <pt x="86" y="155" on="0"/>
        <pt x="83" y="169" on="1"/>
        <pt x="79" y="179" on="0"/>
        <pt x="77" y="198" on="0"/>
        <pt x="77" y="207" on="1"/>
        <pt x="76" y="215" on="0"/>
        <pt x="70" y="226" on="0"/>
        <pt x="68" y="231" on="1"/>
        <pt x="64" y="242" on="0"/>
        <pt x="61" y="258" on="0"/>
        <pt x="57" y="263" on="1"/>
        <pt x="56" y="269" on="0"/>
        <pt x="53" y="274" on="0"/>
        <pt x="55" y="278" on="1"/>
        <pt x="51" y="309" on="0"/>
        <pt x="38" y="359" on="0"/>
        <pt x="34" y="388" on="1"/>
        <pt x="34" y="400" on="0"/>
        <pt x="36" y="409" on="0"/>
        <pt x="37" y="412" on="1"/>
        <pt x="39" y="416" on="0"/>
        <pt x="38" y="428" on="0"/>
        <pt x="40" y="434" on="1"/>
        <pt x="38" y="439" on="0"/>
        <pt x="38" y="451" on="0"/>
        <pt x="36" y="456" on="1"/>
        <pt x="35" y="460" on="0"/>
        <pt x="31" y="466" on="0"/>
        <pt x="30" y="470" on="1"/>
        <pt x="27" y="481" on="0"/>
        <pt x="26" y="486" on="0"/>
        <pt x="28" y="487" on="1"/>
        <pt x="23" y="491" on="0"/>
        <pt x="23" y="499" on="0"/>
        <pt x="22" y="504" on="1"/>
        <pt x="18" y="510" on="0"/>
        <pt x="20" y="513" on="0"/>
        <pt x="19" y="515" on="1"/>
        <pt x="17" y="525" on="0"/>
        <pt x="22" y="538" on="0"/>
        <pt x="23" y="543" on="1"/>
        <pt x="22" y="555" on="1"/>
        <pt x="22" y="571" on="0"/>
        <pt x="30" y="585" on="0"/>
        <pt x="28" y="593" on="1"/>
        <pt x="34" y="607" on="0"/>
        <pt x="44" y="630" on="0"/>
        <pt x="53" y="638" on="1"/>
        <pt x="57" y="645" on="0"/>
        <pt x="62" y="659" on="0"/>
        <pt x="70" y="663" on="1"/>
        <pt x="72" y="669" on="0"/>
        <pt x="79" y="675" on="0"/>
        <pt x="80" y="681" on="1"/>
        <pt x="90" y="689" on="0"/>
        <pt x="98" y="696" on="0"/>
        <pt x="102" y="701" on="1"/>
        <pt x="111" y="710" on="0"/>
        <pt x="111" y="710" on="1"/>
        <pt x="116" y="717" on="0"/>
        <pt x="118" y="717" on="0"/>
        <pt x="119" y="718" on="1"/>
        <pt x="125" y="725" on="0"/>
        <pt x="128" y="729" on="0"/>
        <pt x="130" y="730" on="1"/>
        <pt x="141" y="737" on="0"/>
        <pt x="156" y="743" on="0"/>
        <pt x="162" y="748" on="1"/>
        <pt x="170" y="749" on="0"/>
        <pt x="172" y="753" on="1"/>
        <pt x="190" y="759" on="0"/>
        <pt x="216" y="768" on="0"/>
        <pt x="237" y="770" on="1"/>
        <pt x="249" y="774" on="0"/>
        <pt x="256" y="774" on="0"/>
        <pt x="258" y="772" on="1"/>
        <pt x="268" y="774" on="0"/>
        <pt x="276" y="770" on="1"/>
        <pt x="282" y="768" on="0"/>
        <pt x="294" y="768" on="0"/>
        <pt x="300" y="768" on="1"/>
        <pt x="308" y="768" on="0"/>
        <pt x="323" y="765" on="0"/>
        <pt x="330" y="763" on="1"/>
        <pt x="337" y="761" on="0"/>
        <pt x="349" y="756" on="0"/>
        <pt x="361" y="750" on="0"/>
        <pt x="373" y="746" on="0"/>
      </contour>
      <contour>
        <pt x="333" y="635" on="1"/>
        <pt x="330" y="641" on="0"/>
        <pt x="329" y="654" on="0"/>
        <pt x="327" y="660" on="1"/>
        <pt x="325" y="665" on="0"/>
        <pt x="316" y="674" on="0"/>
        <pt x="317" y="680" on="1"/>
        <pt x="308" y="690" on="0"/>
        <pt x="286" y="708" on="0"/>
        <pt x="271" y="711" on="1"/>
        <pt x="263" y="718" on="0"/>
        <pt x="249" y="711" on="0"/>
        <pt x="241" y="706" on="1"/>
        <pt x="221" y="693" on="0"/>
        <pt x="197" y="672" on="0"/>
        <pt x="193" y="658" on="1"/>
        <pt x="189" y="656" on="0"/>
        <pt x="188" y="648" on="0"/>
        <pt x="184" y="647" on="1"/>
        <pt x="179" y="636" on="0"/>
        <pt x="181" y="612" on="0"/>
        <pt x="180" y="600" on="1"/>
        <pt x="179" y="593" on="0"/>
        <pt x="170" y="577" on="0"/>
        <pt x="168" y="572" on="1"/>
        <pt x="167" y="567" on="0"/>
        <pt x="164" y="562" on="0"/>
        <pt x="163" y="560" on="1"/>
        <pt x="161" y="557" on="0"/>
        <pt x="160" y="551" on="0"/>
        <pt x="159" y="549" on="1"/>
        <pt x="154" y="542" on="0"/>
        <pt x="155" y="540" on="0"/>
        <pt x="154" y="538" on="1"/>
        <pt x="146" y="521" on="0"/>
        <pt x="149" y="501" on="0"/>
        <pt x="147" y="490" on="1"/>
        <pt x="153" y="485" on="0"/>
        <pt x="146" y="468" on="0"/>
        <pt x="147" y="465" on="1"/>
        <pt x="150" y="456" on="0"/>
        <pt x="156" y="433" on="0"/>
        <pt x="165" y="432" on="1"/>
        <pt x="173" y="435" on="0"/>
        <pt x="194" y="433" on="0"/>
        <pt x="205" y="433" on="1"/>
        <pt x="219" y="431" on="0"/>
        <pt x="245" y="432" on="0"/>
        <pt x="251" y="440" on="1"/>
        <pt x="260" y="443" on="0"/>
        <pt x="273" y="447" on="0"/>
        <pt x="280" y="449" on="1"/>
        <pt x="284" y="454" on="0"/>
        <pt x="297" y="456" on="0"/>
        <pt x="302" y="457" on="1"/>
        <pt x="308" y="460" on="0"/>
        <pt x="317" y="468" on="0"/>
        <pt x="322" y="473" on="1"/>
        <pt x="323" y="486" on="0"/>
        <pt x="328" y="498" on="1"/>
        <pt x="326" y="502" on="0"/>
        <pt x="325" y="511" on="0"/>
        <pt x="324" y="515" on="1"/>
        <pt x="326" y="520" on="0"/>
        <pt x="332" y="524" on="0"/>
        <pt x="333" y="529" on="1"/>
        <pt x="337" y="540" on="0"/>
        <pt x="334" y="556" on="0"/>
        <pt x="336" y="564" on="1"/>
        <pt x="330" y="575" on="0"/>
        <pt x="338" y="599" on="0"/>
        <pt x="333" y="608" on="1"/>
        <pt x="335" y="613" on="0"/>
        <pt x="334" y="629" on="0"/>
        <pt x="331" y="632" on="1"/>
      </contour>
      <contour>
        <pt x="280" y="633" on="1"/>
        <pt x="266" y="639" on="0"/>
        <pt x="262" y="651" on="1"/>
        <pt x="260" y="669" on="0"/>
        <pt x="268" y="676" on="1"/>
        <pt x="286" y="673" on="0"/>
        <pt x="292" y="665" on="1"/>
        <pt x="309" y="645" on="0"/>
        <pt x="298" y="632" on="1"/>
        <pt x="295" y="630" on="0"/>
        <pt x="286" y="628" on="0"/>
        <pt x="282" y="630" on="1"/>
      </contour>
      <contour>
        <pt x="215" y="306" on="1"/>
        <pt x="206" y="286" on="0"/>
        <pt x="186" y="280" on="1"/>
        <pt x="175" y="285" on="0"/>
        <pt x="172" y="298" on="0"/>
        <pt x="170" y="303" on="1"/>
        <pt x="172" y="318" on="0"/>
        <pt x="175" y="334" on="0"/>
        <pt x="180" y="337" on="1"/>
        <pt x="184" y="344" on="0"/>
        <pt x="195" y="346" on="0"/>
        <pt x="200" y="344" on="1"/>
        <pt x="205" y="339" on="0"/>
        <pt x="215" y="329" on="0"/>
        <pt x="215" y="321" on="1"/>
        <pt x="216" y="316" on="0"/>
        <pt x="213" y="310" on="0"/>
      </contour>
      <contour>
        <pt x="200" y="231" on="1"/>
        <pt x="179" y="231" on="0"/>
        <pt x="182" y="256" on="1"/>
        <pt x="188" y="261" on="0"/>
        <pt x="200" y="257" on="0"/>
        <pt x="207" y="247" on="0"/>
        <pt x="207" y="234" on="0"/>
      </contour>
      <contour>
        <pt x="41" y="151" on="1"/>
        <pt x="57" y="136" on="0"/>
        <pt x="52" y="111" on="1"/>
        <pt x="48" y="111" on="0"/>
        <pt x="44" y="107" on="0"/>
        <pt x="42" y="105" on="1"/>
        <pt x="28" y="104" on="0"/>
        <pt x="19" y="111" on="0"/>
        <pt x="15" y="113" on="1"/>
        <pt x="10" y="119" on="0"/>
        <pt x="12" y="128" on="1"/>
        <pt x="11" y="134" on="0"/>
        <pt x="10" y="140" on="0"/>
        <pt x="11" y="143" on="1"/>
        <pt x="13" y="153" on="0"/>
        <pt x="35" y="160" on="0"/>
      </contour>
      <contour>
        <pt x="479" y="97" on="1"/>
        <pt x="481" y="89" on="0"/>
        <pt x="475" y="82" on="0"/>
        <pt x="475" y="76" on="1"/>
        <pt x="470" y="72" on="0"/>
        <pt x="466" y="59" on="0"/>
        <pt x="459" y="57" on="1"/>
        <pt x="455" y="49" on="0"/>
        <pt x="439" y="56" on="0"/>
        <pt x="436" y="60" on="1"/>
        <pt x="434" y="69" on="0"/>
        <pt x="430" y="70" on="0"/>
        <pt x="430" y="73" on="1"/>
        <pt x="433" y="82" on="0"/>
        <pt x="435" y="86" on="1"/>
        <pt x="436" y="94" on="0"/>
        <pt x="439" y="96" on="0"/>
        <pt x="441" y="98" on="1"/>
        <pt x="443" y="102" on="0"/>
        <pt x="443" y="107" on="0"/>
        <pt x="445" y="109" on="1"/>
        <pt x="450" y="111" on="0"/>
        <pt x="459" y="113" on="0"/>
        <pt x="462" y="115" on="1"/>
        <pt x="470" y="119" on="0"/>
        <pt x="475" y="102" on="0"/>
      </contour>
      <contour>
        <pt x="419" y="14" on="1"/>
        <pt x="422" y="12" on="0"/>
        <pt x="426" y="5" on="0"/>
        <pt x="423" y="1" on="1"/>
        <pt x="416" y="-4" on="0"/>
        <pt x="398" y="-3" on="0"/>
        <pt x="394" y="4" on="1"/>
        <pt x="389" y="8" on="0"/>
        <pt x="391" y="20" on="0"/>
        <pt x="398" y="28" on="0"/>
        <pt x="408" y="32" on="0"/>
        <pt x="414" y="29" on="1"/>
        <pt x="416" y="26" on="0"/>
        <pt x="419" y="20" on="0"/>
      </contour>
    </TTGlyph>
    <TTGlyph name="Eacute" xMin="10" yMin="-14" xMax="504" yMax="1005">
      <component glyphName="E" x="0" y="0" flags="0x204"/>
      <component glyphName="acute" x="-101" y="236" flags="0x4"/>
    </TTGlyph>
    <TTGlyph name="Ecircumflex" xMin="10" yMin="-14" xMax="504" yMax="993">
      <component glyphName="E" x="0" y="0" flags="0x204"/>
      <component glyphName="circumflex" x="-60" y="236" flags="0x4"/>
    </TTGlyph>
    <TTGlyph name="Edieresis" xMin="10" yMin="-14" xMax="504" yMax="931">
      <component glyphName="E" x="0" y="0" flags="0x204"/>
      <component glyphName="dieresis" x="-71" y="205" flags="0x4"/>
    </TTGlyph>
    <TTGlyph name="Egrave" xMin="10" yMin="-14" xMax="504" yMax="1014">
      <component glyphName="E" x="0" y="0" flags="0x204"/>
      <component glyphName="grave" x="-122" y="246" flags="0x4"/>
    </TTGlyph>
    <TTGlyph name="Eth" xMin="-36" yMin="-23" xMax="507" yMax="733">
      <contour>
        <pt x="466" y="686" on="1"/>
        <pt x="469" y="681" on="0"/>
        <pt x="476" y="672" on="0"/>
        <pt x="478" y="664" on="1"/>
        <pt x="479" y="656" on="0"/>
        <pt x="471" y="649" on="0"/>
        <pt x="469" y="643" on="1"/>
        <pt x="457" y="634" on="0"/>
        <pt x="437" y="643" on="0"/>
        <pt x="429" y="647" on="1"/>
        <pt x="426" y="652" on="0"/>
        <pt x="422" y="664" on="1"/>
        <pt x="421" y="668" on="0"/>
        <pt x="417" y="674" on="0"/>
        <pt x="421" y="676" on="1"/>
        <pt x="428" y="688" on="0"/>
        <pt x="449" y="694" on="0"/>
        <pt x="462" y="689" on="1"/>
      </contour>
      <contour>
        <pt x="50" y="550" on="1"/>
        <pt x="45" y="547" on="0"/>
        <pt x="42" y="534" on="0"/>
        <pt x="35" y="532" on="1"/>
        <pt x="32" y="534" on="0"/>
        <pt x="28" y="536" on="0"/>
        <pt x="23" y="535" on="1"/>
        <pt x="18" y="540" on="0"/>
        <pt x="13" y="552" on="0"/>
        <pt x="16" y="559" on="1"/>
        <pt x="17" y="566" on="0"/>
        <pt x="22" y="574" on="0"/>
        <pt x="28" y="572" on="1"/>
        <pt x="38" y="576" on="0"/>
        <pt x="45" y="557" on="0"/>
      </contour>
      <contour>
        <pt x="216" y="221" on="1"/>
        <pt x="223" y="216" on="0"/>
        <pt x="229" y="195" on="0"/>
        <pt x="218" y="189" on="1"/>
        <pt x="204" y="186" on="0"/>
        <pt x="199" y="195" on="0"/>
        <pt x="199" y="206" on="0"/>
        <pt x="204" y="217" on="0"/>
        <pt x="208" y="219" on="1"/>
      </contour>
      <contour>
        <pt x="217" y="163" on="1"/>
        <pt x="228" y="171" on="0"/>
        <pt x="262" y="169" on="0"/>
        <pt x="268" y="156" on="1"/>
        <pt x="267" y="153" on="0"/>
        <pt x="268" y="146" on="0"/>
        <pt x="268" y="144" on="1"/>
        <pt x="266" y="136" on="0"/>
        <pt x="254" y="131" on="0"/>
        <pt x="249" y="125" on="1"/>
        <pt x="246" y="123" on="0"/>
        <pt x="238" y="124" on="0"/>
        <pt x="233" y="125" on="1"/>
        <pt x="227" y="132" on="0"/>
        <pt x="218" y="151" on="0"/>
      </contour>
      <contour>
        <pt x="281" y="-14" on="1"/>
        <pt x="280" y="-8" on="0"/>
        <pt x="283" y="-2" on="0"/>
        <pt x="284" y="2" on="1"/>
        <pt x="287" y="4" on="0"/>
        <pt x="294" y="7" on="0"/>
        <pt x="297" y="9" on="1"/>
        <pt x="306" y="9" on="0"/>
        <pt x="327" y="18" on="0"/>
        <pt x="336" y="11" on="1"/>
        <pt x="339" y="2" on="0"/>
        <pt x="332" y="-10" on="0"/>
        <pt x="317" y="-17" on="0"/>
        <pt x="299" y="-20" on="0"/>
        <pt x="291" y="-20" on="1"/>
        <pt x="289" y="-18" on="0"/>
        <pt x="283" y="-16" on="0"/>
      </contour>
      <contour>
        <pt x="452" y="568" on="1"/>
        <pt x="453" y="562" on="0"/>
        <pt x="459" y="552" on="0"/>
        <pt x="465" y="543" on="0"/>
        <pt x="470" y="532" on="0"/>
        <pt x="469" y="525" on="1"/>
        <pt x="472" y="522" on="0"/>
        <pt x="478" y="504" on="0"/>
        <pt x="476" y="496" on="1"/>
        <pt x="473" y="483" on="0"/>
        <pt x="475" y="479" on="0"/>
        <pt x="477" y="475" on="1"/>
        <pt x="478" y="470" on="0"/>
        <pt x="481" y="465" on="0"/>
        <pt x="482" y="460" on="1"/>
        <pt x="482" y="446" on="0"/>
        <pt x="487" y="438" on="0"/>
        <pt x="489" y="434" on="1"/>
        <pt x="490" y="425" on="0"/>
        <pt x="497" y="412" on="0"/>
        <pt x="501" y="406" on="1"/>
        <pt x="506" y="384" on="0"/>
        <pt x="503" y="340" on="0"/>
        <pt x="501" y="322" on="1"/>
        <pt x="507" y="311" on="0"/>
        <pt x="498" y="288" on="0"/>
        <pt x="502" y="276" on="1"/>
        <pt x="500" y="272" on="0"/>
        <pt x="499" y="265" on="0"/>
        <pt x="497" y="262" on="1"/>
        <pt x="493" y="238" on="0"/>
        <pt x="471" y="199" on="0"/>
        <pt x="463" y="178" on="1"/>
        <pt x="457" y="173" on="0"/>
        <pt x="450" y="158" on="0"/>
        <pt x="444" y="153" on="1"/>
        <pt x="439" y="150" on="0"/>
        <pt x="434" y="137" on="0"/>
        <pt x="429" y="137" on="1"/>
        <pt x="420" y="127" on="0"/>
        <pt x="414" y="115" on="0"/>
        <pt x="410" y="109" on="1"/>
        <pt x="401" y="92" on="0"/>
        <pt x="385" y="76" on="0"/>
        <pt x="380" y="62" on="1"/>
        <pt x="362" y="52" on="0"/>
        <pt x="343" y="45" on="0"/>
        <pt x="333" y="41" on="1"/>
        <pt x="313" y="39" on="0"/>
        <pt x="287" y="26" on="0"/>
        <pt x="271" y="19" on="1"/>
        <pt x="260" y="14" on="0"/>
        <pt x="257" y="8" on="0"/>
        <pt x="252" y="9" on="1"/>
        <pt x="243" y="0" on="0"/>
        <pt x="233" y="0" on="1"/>
        <pt x="228" y="-3" on="0"/>
        <pt x="214" y="-8" on="0"/>
        <pt x="208" y="-8" on="1"/>
        <pt x="203" y="-10" on="0"/>
        <pt x="189" y="-12" on="0"/>
        <pt x="184" y="-14" on="1"/>
        <pt x="174" y="-14" on="0"/>
        <pt x="153" y="-16" on="0"/>
        <pt x="145" y="-17" on="1"/>
        <pt x="136" y="-21" on="0"/>
        <pt x="124" y="-19" on="0"/>
        <pt x="120" y="-23" on="1"/>
        <pt x="114" y="-20" on="0"/>
        <pt x="100" y="-19" on="0"/>
        <pt x="86" y="-20" on="0"/>
        <pt x="73" y="-19" on="0"/>
        <pt x="68" y="-15" on="1"/>
        <pt x="64" y="-17" on="0"/>
        <pt x="53" y="-14" on="0"/>
        <pt x="48" y="-14" on="1"/>
        <pt x="41" y="-3" on="0"/>
        <pt x="25" y="19" on="0"/>
        <pt x="26" y="36" on="1"/>
        <pt x="27" y="45" on="0"/>
        <pt x="33" y="52" on="0"/>
        <pt x="35" y="57" on="1"/>
        <pt x="38" y="66" on="0"/>
        <pt x="48" y="75" on="0"/>
        <pt x="50" y="80" on="1"/>
        <pt x="55" y="82" on="0"/>
        <pt x="59" y="88" on="1"/>
        <pt x="67" y="90" on="0"/>
        <pt x="75" y="100" on="0"/>
        <pt x="81" y="103" on="1"/>
        <pt x="84" y="121" on="0"/>
        <pt x="89" y="150" on="0"/>
        <pt x="88" y="167" on="1"/>
        <pt x="91" y="179" on="0"/>
        <pt x="97" y="192" on="0"/>
        <pt x="98" y="203" on="1"/>
        <pt x="94" y="215" on="0"/>
        <pt x="97" y="238" on="0"/>
        <pt x="90" y="246" on="1"/>
        <pt x="88" y="269" on="0"/>
        <pt x="89" y="303" on="0"/>
        <pt x="87" y="324" on="1"/>
        <pt x="74" y="326" on="0"/>
        <pt x="47" y="322" on="0"/>
        <pt x="36" y="314" on="1"/>
        <pt x="24" y="315" on="0"/>
        <pt x="3" y="311" on="0"/>
        <pt x="-8" y="309" on="1"/>
        <pt x="-18" y="317" on="0"/>
        <pt x="-20" y="318" on="1"/>
        <pt x="-29" y="328" on="0"/>
        <pt x="-36" y="337" on="1"/>
        <pt x="-35" y="345" on="0"/>
        <pt x="-34" y="358" on="0"/>
        <pt x="-29" y="364" on="1"/>
        <pt x="-24" y="386" on="0"/>
        <pt x="-6" y="387" on="1"/>
        <pt x="1" y="387" on="0"/>
        <pt x="6" y="386" on="0"/>
        <pt x="8" y="386" on="1"/>
        <pt x="18" y="388" on="0"/>
        <pt x="21" y="389" on="1"/>
        <pt x="31" y="390" on="0"/>
        <pt x="32" y="390" on="0"/>
        <pt x="34" y="391" on="1"/>
        <pt x="47" y="389" on="0"/>
        <pt x="73" y="391" on="0"/>
        <pt x="85" y="396" on="1"/>
        <pt x="87" y="401" on="0"/>
        <pt x="87" y="417" on="0"/>
        <pt x="90" y="423" on="1"/>
        <pt x="89" y="428" on="0"/>
        <pt x="88" y="439" on="0"/>
        <pt x="90" y="443" on="1"/>
        <pt x="92" y="464" on="0"/>
        <pt x="98" y="480" on="1"/>
        <pt x="98" y="491" on="0"/>
        <pt x="91" y="509" on="0"/>
        <pt x="90" y="519" on="1"/>
        <pt x="89" y="525" on="0"/>
        <pt x="88" y="532" on="0"/>
        <pt x="85" y="537" on="1"/>
        <pt x="84" y="539" on="0"/>
        <pt x="81" y="550" on="0"/>
        <pt x="82" y="554" on="1"/>
        <pt x="75" y="564" on="0"/>
        <pt x="72" y="587" on="0"/>
        <pt x="70" y="598" on="1"/>
        <pt x="63" y="613" on="0"/>
        <pt x="44" y="625" on="0"/>
        <pt x="33" y="623" on="1"/>
        <pt x="23" y="635" on="0"/>
        <pt x="8" y="642" on="0"/>
        <pt x="4" y="650" on="1"/>
        <pt x="-2" y="656" on="0"/>
        <pt x="5" y="678" on="0"/>
        <pt x="8" y="684" on="1"/>
        <pt x="10" y="704" on="0"/>
        <pt x="20" y="709" on="1"/>
        <pt x="31" y="723" on="0"/>
        <pt x="49" y="730" on="0"/>
        <pt x="56" y="733" on="1"/>
        <pt x="64" y="732" on="0"/>
        <pt x="84" y="732" on="0"/>
        <pt x="90" y="728" on="1"/>
        <pt x="102" y="727" on="0"/>
        <pt x="127" y="723" on="0"/>
        <pt x="136" y="716" on="1"/>
        <pt x="148" y="715" on="0"/>
        <pt x="175" y="713" on="0"/>
        <pt x="187" y="715" on="1"/>
        <pt x="199" y="710" on="0"/>
        <pt x="233" y="703" on="0"/>
        <pt x="248" y="706" on="1"/>
        <pt x="251" y="703" on="0"/>
        <pt x="265" y="709" on="0"/>
        <pt x="268" y="706" on="1"/>
        <pt x="278" y="706" on="0"/>
        <pt x="286" y="704" on="0"/>
        <pt x="288" y="701" on="1"/>
        <pt x="295" y="701" on="0"/>
        <pt x="309" y="697" on="0"/>
        <pt x="314" y="695" on="1"/>
        <pt x="326" y="693" on="0"/>
        <pt x="332" y="689" on="1"/>
        <pt x="343" y="684" on="0"/>
        <pt x="345" y="682" on="0"/>
        <pt x="347" y="680" on="1"/>
        <pt x="352" y="678" on="0"/>
        <pt x="364" y="676" on="0"/>
        <pt x="369" y="672" on="1"/>
        <pt x="373" y="666" on="0"/>
        <pt x="381" y="655" on="0"/>
        <pt x="383" y="647" on="1"/>
        <pt x="389" y="641" on="0"/>
        <pt x="406" y="635" on="0"/>
        <pt x="413" y="629" on="1"/>
        <pt x="416" y="616" on="0"/>
        <pt x="431" y="601" on="0"/>
        <pt x="433" y="588" on="1"/>
        <pt x="436" y="582" on="0"/>
        <pt x="445" y="572" on="0"/>
        <pt x="450" y="567" on="1"/>
      </contour>
      <contour>
        <pt x="361" y="224" on="1"/>
        <pt x="369" y="227" on="0"/>
        <pt x="377" y="242" on="0"/>
        <pt x="384" y="246" on="1"/>
        <pt x="386" y="252" on="0"/>
        <pt x="394" y="262" on="0"/>
        <pt x="395" y="268" on="1"/>
        <pt x="402" y="272" on="0"/>
        <pt x="402" y="286" on="1"/>
        <pt x="409" y="297" on="0"/>
        <pt x="408" y="313" on="0"/>
        <pt x="409" y="321" on="1"/>
        <pt x="410" y="332" on="0"/>
        <pt x="414" y="354" on="0"/>
        <pt x="413" y="365" on="1"/>
        <pt x="412" y="369" on="0"/>
        <pt x="413" y="374" on="0"/>
        <pt x="413" y="377" on="1"/>
        <pt x="413" y="384" on="0"/>
        <pt x="410" y="395" on="0"/>
        <pt x="410" y="400" on="1"/>
        <pt x="410" y="413" on="0"/>
        <pt x="409" y="418" on="1"/>
        <pt x="405" y="426" on="0"/>
        <pt x="401" y="444" on="0"/>
        <pt x="398" y="452" on="1"/>
        <pt x="396" y="457" on="0"/>
        <pt x="391" y="466" on="0"/>
        <pt x="391" y="472" on="1"/>
        <pt x="389" y="474" on="0"/>
        <pt x="387" y="480" on="0"/>
        <pt x="389" y="483" on="1"/>
        <pt x="387" y="487" on="0"/>
        <pt x="387" y="499" on="0"/>
        <pt x="387" y="511" on="0"/>
        <pt x="384" y="521" on="0"/>
        <pt x="380" y="524" on="1"/>
        <pt x="376" y="535" on="0"/>
        <pt x="357" y="544" on="0"/>
        <pt x="351" y="552" on="1"/>
        <pt x="339" y="559" on="0"/>
        <pt x="331" y="561" on="0"/>
        <pt x="327" y="565" on="1"/>
        <pt x="317" y="566" on="0"/>
        <pt x="305" y="574" on="0"/>
        <pt x="298" y="578" on="1"/>
        <pt x="294" y="580" on="0"/>
        <pt x="287" y="584" on="0"/>
        <pt x="284" y="587" on="1"/>
        <pt x="280" y="586" on="0"/>
        <pt x="275" y="589" on="0"/>
        <pt x="273" y="590" on="1"/>
        <pt x="268" y="591" on="0"/>
        <pt x="259" y="591" on="0"/>
        <pt x="254" y="593" on="1"/>
        <pt x="246" y="594" on="0"/>
        <pt x="232" y="601" on="0"/>
        <pt x="225" y="599" on="1"/>
        <pt x="212" y="604" on="0"/>
        <pt x="195" y="601" on="1"/>
        <pt x="190" y="596" on="0"/>
        <pt x="190" y="585" on="0"/>
        <pt x="188" y="577" on="1"/>
        <pt x="187" y="573" on="0"/>
        <pt x="183" y="566" on="0"/>
        <pt x="182" y="562" on="1"/>
        <pt x="181" y="552" on="0"/>
        <pt x="177" y="539" on="1"/>
        <pt x="175" y="531" on="0"/>
        <pt x="175" y="507" on="0"/>
        <pt x="180" y="502" on="1"/>
        <pt x="182" y="497" on="0"/>
        <pt x="180" y="489" on="0"/>
        <pt x="182" y="485" on="1"/>
        <pt x="180" y="480" on="0"/>
        <pt x="180" y="467" on="0"/>
        <pt x="179" y="461" on="1"/>
        <pt x="177" y="454" on="0"/>
        <pt x="171" y="441" on="0"/>
        <pt x="172" y="433" on="1"/>
        <pt x="172" y="423" on="0"/>
        <pt x="168" y="410" on="0"/>
        <pt x="171" y="402" on="1"/>
        <pt x="174" y="401" on="0"/>
        <pt x="184" y="401" on="0"/>
        <pt x="185" y="404" on="1"/>
        <pt x="197" y="402" on="0"/>
        <pt x="211" y="409" on="0"/>
        <pt x="219" y="410" on="1"/>
        <pt x="232" y="411" on="0"/>
        <pt x="255" y="408" on="0"/>
        <pt x="265" y="403" on="1"/>
        <pt x="265" y="399" on="0"/>
        <pt x="270" y="393" on="0"/>
        <pt x="272" y="390" on="1"/>
        <pt x="276" y="372" on="0"/>
        <pt x="283" y="356" on="0"/>
        <pt x="282" y="351" on="1"/>
        <pt x="281" y="344" on="0"/>
        <pt x="265" y="336" on="0"/>
        <pt x="257" y="338" on="1"/>
        <pt x="250" y="333" on="0"/>
        <pt x="225" y="335" on="0"/>
        <pt x="219" y="337" on="1"/>
        <pt x="209" y="339" on="0"/>
        <pt x="178" y="336" on="0"/>
        <pt x="170" y="331" on="1"/>
        <pt x="168" y="325" on="0"/>
        <pt x="175" y="313" on="0"/>
        <pt x="173" y="308" on="1"/>
        <pt x="178" y="295" on="0"/>
        <pt x="171" y="268" on="0"/>
        <pt x="168" y="255" on="1"/>
        <pt x="169" y="247" on="0"/>
        <pt x="166" y="226" on="0"/>
        <pt x="171" y="219" on="1"/>
        <pt x="172" y="198" on="0"/>
        <pt x="189" y="167" on="0"/>
        <pt x="189" y="146" on="1"/>
        <pt x="191" y="140" on="0"/>
        <pt x="198" y="127" on="0"/>
        <pt x="196" y="121" on="1"/>
        <pt x="201" y="109" on="0"/>
        <pt x="230" y="101" on="0"/>
        <pt x="245" y="100" on="1"/>
        <pt x="254" y="106" on="0"/>
        <pt x="273" y="111" on="0"/>
        <pt x="278" y="120" on="1"/>
        <pt x="282" y="124" on="0"/>
        <pt x="289" y="124" on="1"/>
        <pt x="299" y="136" on="0"/>
        <pt x="303" y="144" on="0"/>
        <pt x="306" y="147" on="1"/>
        <pt x="315" y="158" on="0"/>
        <pt x="317" y="168" on="0"/>
        <pt x="319" y="174" on="1"/>
        <pt x="326" y="181" on="0"/>
        <pt x="328" y="186" on="1"/>
        <pt x="331" y="187" on="0"/>
        <pt x="335" y="195" on="0"/>
        <pt x="337" y="199" on="1"/>
        <pt x="347" y="211" on="0"/>
        <pt x="356" y="217" on="0"/>
        <pt x="361" y="220" on="1"/>
      </contour>
    </TTGlyph>
    <TTGlyph name="Euro" xMin="-11" yMin="26" xMax="523" yMax="706">
      <contour>
        <pt x="431" y="376" on="1"/>
        <pt x="434" y="367" on="0"/>
        <pt x="428" y="358" on="1"/>
        <pt x="421" y="355" on="0"/>
        <pt x="403" y="360" on="0"/>
        <pt x="408" y="369" on="1"/>
        <pt x="410" y="374" on="0"/>
        <pt x="427" y="377" on="0"/>
      </contour>
      <contour>
        <pt x="376" y="333" on="1"/>
        <pt x="374" y="337" on="0"/>
        <pt x="370" y="341" on="0"/>
        <pt x="371" y="346" on="1"/>
        <pt x="372" y="351" on="0"/>
        <pt x="390" y="358" on="0"/>
        <pt x="397" y="356" on="1"/>
        <pt x="401" y="354" on="0"/>
        <pt x="410" y="345" on="0"/>
        <pt x="407" y="340" on="1"/>
        <pt x="403" y="334" on="0"/>
        <pt x="384" y="328" on="0"/>
      </contour>
      <contour>
        <pt x="7" y="347" on="1"/>
        <pt x="13" y="349" on="0"/>
        <pt x="28" y="343" on="0"/>
        <pt x="32" y="338" on="1"/>
        <pt x="33" y="333" on="0"/>
        <pt x="28" y="326" on="0"/>
        <pt x="28" y="322" on="1"/>
        <pt x="24" y="319" on="0"/>
        <pt x="15" y="314" on="0"/>
        <pt x="10" y="314" on="1"/>
        <pt x="7" y="314" on="0"/>
        <pt x="2" y="317" on="0"/>
        <pt x="-2" y="316" on="1"/>
        <pt x="-11" y="322" on="0"/>
        <pt x="-10" y="332" on="1"/>
        <pt x="-4" y="342" on="0"/>
        <pt x="-3" y="343" on="1"/>
      </contour>
      <contour>
        <pt x="451" y="132" on="1"/>
        <pt x="455" y="138" on="0"/>
        <pt x="475" y="139" on="0"/>
        <pt x="478" y="132" on="1"/>
        <pt x="481" y="121" on="0"/>
        <pt x="470" y="105" on="0"/>
        <pt x="459" y="108" on="1"/>
        <pt x="457" y="110" on="0"/>
        <pt x="452" y="114" on="0"/>
        <pt x="450" y="116" on="1"/>
        <pt x="451" y="121" on="0"/>
        <pt x="449" y="127" on="0"/>
      </contour>
      <contour>
        <pt x="455" y="98" on="1"/>
        <pt x="460" y="94" on="0"/>
        <pt x="471" y="89" on="0"/>
        <pt x="473" y="82" on="1"/>
        <pt x="469" y="73" on="0"/>
        <pt x="456" y="58" on="0"/>
        <pt x="442" y="60" on="1"/>
        <pt x="440" y="62" on="0"/>
        <pt x="435" y="61" on="0"/>
        <pt x="431" y="62" on="1"/>
        <pt x="430" y="67" on="0"/>
        <pt x="425" y="69" on="0"/>
        <pt x="424" y="72" on="1"/>
        <pt x="422" y="82" on="0"/>
        <pt x="435" y="94" on="0"/>
        <pt x="443" y="92" on="1"/>
        <pt x="445" y="94" on="0"/>
        <pt x="452" y="95" on="0"/>
        <pt x="455" y="96" on="1"/>
      </contour>
      <contour>
        <pt x="120" y="119" on="1"/>
        <pt x="125" y="114" on="0"/>
        <pt x="126" y="101" on="0"/>
        <pt x="125" y="93" on="1"/>
        <pt x="123" y="89" on="0"/>
        <pt x="119" y="82" on="0"/>
        <pt x="111" y="83" on="1"/>
        <pt x="106" y="86" on="0"/>
        <pt x="97" y="93" on="0"/>
        <pt x="94" y="101" on="1"/>
        <pt x="93" y="105" on="0"/>
        <pt x="92" y="111" on="0"/>
        <pt x="94" y="116" on="1"/>
        <pt x="97" y="125" on="0"/>
        <pt x="113" y="125" on="0"/>
      </contour>
      <contour>
        <pt x="311" y="582" on="1"/>
        <pt x="312" y="565" on="0"/>
        <pt x="286" y="553" on="0"/>
        <pt x="273" y="554" on="1"/>
        <pt x="258" y="567" on="0"/>
        <pt x="274" y="584" on="0"/>
        <pt x="279" y="590" on="1"/>
        <pt x="283" y="594" on="0"/>
        <pt x="291" y="596" on="0"/>
        <pt x="294" y="598" on="1"/>
        <pt x="305" y="598" on="0"/>
        <pt x="310" y="586" on="0"/>
      </contour>
      <contour>
        <pt x="303" y="520" on="1"/>
        <pt x="301" y="522" on="0"/>
        <pt x="293" y="524" on="0"/>
        <pt x="291" y="528" on="1"/>
        <pt x="289" y="536" on="0"/>
        <pt x="307" y="544" on="0"/>
        <pt x="314" y="544" on="1"/>
        <pt x="328" y="532" on="0"/>
        <pt x="312" y="516" on="0"/>
        <pt x="306" y="518" on="1"/>
      </contour>
      <contour>
        <pt x="522" y="594" on="1"/>
        <pt x="522" y="589" on="0"/>
        <pt x="521" y="571" on="0"/>
        <pt x="519" y="566" on="1"/>
        <pt x="520" y="558" on="0"/>
        <pt x="514" y="546" on="0"/>
        <pt x="512" y="539" on="1"/>
        <pt x="510" y="533" on="0"/>
        <pt x="507" y="529" on="0"/>
        <pt x="507" y="525" on="1"/>
        <pt x="503" y="523" on="0"/>
        <pt x="499" y="515" on="0"/>
        <pt x="496" y="513" on="1"/>
        <pt x="490" y="509" on="0"/>
        <pt x="479" y="505" on="0"/>
        <pt x="474" y="501" on="1"/>
        <pt x="464" y="500" on="0"/>
        <pt x="463" y="499" on="0"/>
        <pt x="461" y="498" on="1"/>
        <pt x="459" y="500" on="0"/>
        <pt x="451" y="497" on="0"/>
        <pt x="447" y="496" on="1"/>
        <pt x="442" y="496" on="0"/>
        <pt x="433" y="500" on="0"/>
        <pt x="428" y="500" on="1"/>
        <pt x="423" y="498" on="0"/>
        <pt x="409" y="500" on="0"/>
        <pt x="402" y="498" on="1"/>
        <pt x="395" y="502" on="0"/>
        <pt x="380" y="508" on="0"/>
        <pt x="377" y="516" on="1"/>
        <pt x="367" y="524" on="0"/>
        <pt x="368" y="540" on="0"/>
        <pt x="365" y="545" on="1"/>
        <pt x="363" y="550" on="0"/>
        <pt x="366" y="557" on="0"/>
        <pt x="366" y="562" on="1"/>
        <pt x="365" y="567" on="0"/>
        <pt x="357" y="575" on="0"/>
        <pt x="357" y="582" on="1"/>
        <pt x="346" y="586" on="0"/>
        <pt x="338" y="595" on="0"/>
        <pt x="332" y="597" on="1"/>
        <pt x="327" y="605" on="0"/>
        <pt x="325" y="609" on="0"/>
        <pt x="323" y="612" on="1"/>
        <pt x="312" y="620" on="0"/>
        <pt x="293" y="611" on="0"/>
        <pt x="283" y="607" on="1"/>
        <pt x="274" y="605" on="0"/>
        <pt x="268" y="600" on="0"/>
        <pt x="263" y="602" on="1"/>
        <pt x="258" y="597" on="0"/>
        <pt x="252" y="591" on="0"/>
        <pt x="250" y="593" on="1"/>
        <pt x="236" y="581" on="0"/>
        <pt x="220" y="569" on="0"/>
        <pt x="215" y="559" on="1"/>
        <pt x="209" y="553" on="0"/>
        <pt x="197" y="539" on="0"/>
        <pt x="195" y="528" on="1"/>
        <pt x="191" y="517" on="0"/>
        <pt x="183" y="502" on="0"/>
        <pt x="181" y="492" on="1"/>
        <pt x="180" y="487" on="0"/>
        <pt x="176" y="478" on="0"/>
        <pt x="176" y="472" on="1"/>
        <pt x="171" y="455" on="0"/>
        <pt x="168" y="435" on="1"/>
        <pt x="171" y="436" on="0"/>
        <pt x="182" y="434" on="0"/>
        <pt x="187" y="436" on="1"/>
        <pt x="195" y="435" on="0"/>
        <pt x="202" y="433" on="0"/>
        <pt x="207" y="433" on="1"/>
        <pt x="217" y="434" on="0"/>
        <pt x="227" y="436" on="0"/>
        <pt x="232" y="436" on="1"/>
        <pt x="244" y="437" on="0"/>
        <pt x="255" y="439" on="0"/>
        <pt x="261" y="437" on="1"/>
        <pt x="274" y="439" on="0"/>
        <pt x="280" y="438" on="0"/>
        <pt x="283" y="438" on="1"/>
        <pt x="295" y="441" on="1"/>
        <pt x="298" y="441" on="0"/>
        <pt x="304" y="440" on="0"/>
        <pt x="308" y="440" on="1"/>
        <pt x="311" y="440" on="0"/>
        <pt x="318" y="441" on="0"/>
        <pt x="322" y="441" on="1"/>
        <pt x="329" y="441" on="0"/>
        <pt x="342" y="441" on="0"/>
        <pt x="348" y="439" on="1"/>
        <pt x="353" y="442" on="0"/>
        <pt x="362" y="439" on="0"/>
        <pt x="367" y="437" on="1"/>
        <pt x="375" y="435" on="0"/>
        <pt x="389" y="434" on="0"/>
        <pt x="391" y="426" on="1"/>
        <pt x="393" y="425" on="0"/>
        <pt x="401" y="421" on="0"/>
        <pt x="403" y="419" on="1"/>
        <pt x="402" y="414" on="0"/>
        <pt x="408" y="401" on="0"/>
        <pt x="406" y="394" on="1"/>
        <pt x="392" y="386" on="0"/>
        <pt x="367" y="367" on="0"/>
        <pt x="347" y="365" on="1"/>
        <pt x="342" y="361" on="0"/>
        <pt x="324" y="360" on="0"/>
        <pt x="317" y="357" on="1"/>
        <pt x="300" y="355" on="0"/>
        <pt x="284" y="359" on="0"/>
        <pt x="274" y="358" on="1"/>
        <pt x="260" y="357" on="0"/>
        <pt x="254" y="358" on="0"/>
        <pt x="251" y="358" on="1"/>
        <pt x="243" y="359" on="0"/>
        <pt x="228" y="357" on="0"/>
        <pt x="222" y="359" on="1"/>
        <pt x="214" y="357" on="0"/>
        <pt x="201" y="363" on="0"/>
        <pt x="195" y="361" on="1"/>
        <pt x="190" y="355" on="0"/>
        <pt x="195" y="349" on="0"/>
        <pt x="196" y="344" on="1"/>
        <pt x="198" y="340" on="0"/>
        <pt x="198" y="332" on="0"/>
        <pt x="199" y="328" on="1"/>
        <pt x="200" y="324" on="0"/>
        <pt x="202" y="312" on="0"/>
        <pt x="203" y="305" on="1"/>
        <pt x="215" y="307" on="0"/>
        <pt x="224" y="308" on="0"/>
        <pt x="227" y="306" on="1"/>
        <pt x="243" y="308" on="0"/>
        <pt x="275" y="305" on="0"/>
        <pt x="293" y="307" on="1"/>
        <pt x="298" y="307" on="0"/>
        <pt x="303" y="306" on="0"/>
        <pt x="305" y="305" on="1"/>
        <pt x="308" y="305" on="0"/>
        <pt x="316" y="306" on="0"/>
        <pt x="321" y="306" on="1"/>
        <pt x="327" y="305" on="0"/>
        <pt x="338" y="302" on="0"/>
        <pt x="342" y="299" on="1"/>
        <pt x="350" y="291" on="0"/>
        <pt x="351" y="290" on="1"/>
        <pt x="355" y="284" on="0"/>
        <pt x="352" y="268" on="0"/>
        <pt x="351" y="262" on="1"/>
        <pt x="343" y="252" on="0"/>
        <pt x="335" y="250" on="0"/>
        <pt x="333" y="245" on="1"/>
        <pt x="325" y="241" on="0"/>
        <pt x="322" y="240" on="0"/>
        <pt x="321" y="238" on="1"/>
        <pt x="313" y="239" on="0"/>
        <pt x="301" y="228" on="0"/>
        <pt x="293" y="230" on="1"/>
        <pt x="279" y="226" on="0"/>
        <pt x="264" y="229" on="0"/>
        <pt x="256" y="226" on="1"/>
        <pt x="250" y="224" on="0"/>
        <pt x="238" y="225" on="0"/>
        <pt x="233" y="225" on="1"/>
        <pt x="230" y="227" on="0"/>
        <pt x="223" y="225" on="0"/>
        <pt x="220" y="227" on="1"/>
        <pt x="222" y="214" on="0"/>
        <pt x="229" y="202" on="0"/>
        <pt x="231" y="197" on="1"/>
        <pt x="238" y="185" on="0"/>
        <pt x="238" y="177" on="0"/>
        <pt x="239" y="174" on="1"/>
        <pt x="241" y="172" on="0"/>
        <pt x="243" y="166" on="0"/>
        <pt x="245" y="164" on="1"/>
        <pt x="247" y="159" on="0"/>
        <pt x="248" y="147" on="0"/>
        <pt x="250" y="142" on="1"/>
        <pt x="254" y="129" on="1"/>
        <pt x="252" y="121" on="0"/>
        <pt x="263" y="115" on="0"/>
        <pt x="267" y="111" on="1"/>
        <pt x="277" y="109" on="0"/>
        <pt x="296" y="104" on="0"/>
        <pt x="307" y="103" on="1"/>
        <pt x="315" y="100" on="0"/>
        <pt x="327" y="105" on="0"/>
        <pt x="338" y="112" on="0"/>
        <pt x="349" y="119" on="0"/>
        <pt x="356" y="120" on="1"/>
        <pt x="367" y="123" on="0"/>
        <pt x="371" y="140" on="0"/>
        <pt x="373" y="148" on="1"/>
        <pt x="377" y="159" on="0"/>
        <pt x="379" y="161" on="1"/>
        <pt x="381" y="176" on="0"/>
        <pt x="393" y="203" on="0"/>
        <pt x="398" y="217" on="1"/>
        <pt x="400" y="219" on="0"/>
        <pt x="402" y="226" on="0"/>
        <pt x="404" y="228" on="1"/>
        <pt x="404" y="236" on="0"/>
        <pt x="414" y="246" on="0"/>
        <pt x="416" y="254" on="1"/>
        <pt x="424" y="263" on="0"/>
        <pt x="432" y="273" on="0"/>
        <pt x="437" y="278" on="1"/>
        <pt x="446" y="279" on="0"/>
        <pt x="453" y="283" on="1"/>
        <pt x="461" y="281" on="0"/>
        <pt x="468" y="281" on="0"/>
        <pt x="470" y="279" on="1"/>
        <pt x="477" y="280" on="0"/>
        <pt x="483" y="273" on="0"/>
        <pt x="489" y="271" on="1"/>
        <pt x="492" y="268" on="0"/>
        <pt x="496" y="261" on="0"/>
        <pt x="499" y="258" on="1"/>
        <pt x="502" y="247" on="0"/>
        <pt x="498" y="229" on="0"/>
        <pt x="496" y="221" on="1"/>
        <pt x="490" y="208" on="0"/>
        <pt x="489" y="199" on="0"/>
        <pt x="484" y="197" on="1"/>
        <pt x="483" y="190" on="0"/>
        <pt x="475" y="183" on="0"/>
        <pt x="472" y="178" on="1"/>
        <pt x="469" y="175" on="0"/>
        <pt x="465" y="167" on="0"/>
        <pt x="461" y="164" on="1"/>
        <pt x="457" y="162" on="0"/>
        <pt x="448" y="163" on="0"/>
        <pt x="443" y="162" on="1"/>
        <pt x="435" y="160" on="0"/>
        <pt x="433" y="157" on="1"/>
        <pt x="431" y="154" on="0"/>
        <pt x="427" y="138" on="0"/>
        <pt x="425" y="132" on="1"/>
        <pt x="421" y="124" on="0"/>
        <pt x="422" y="119" on="0"/>
        <pt x="421" y="117" on="1"/>
        <pt x="421" y="106" on="0"/>
        <pt x="416" y="99" on="1"/>
        <pt x="411" y="91" on="0"/>
        <pt x="406" y="88" on="0"/>
        <pt x="404" y="86" on="1"/>
        <pt x="402" y="81" on="0"/>
        <pt x="399" y="78" on="0"/>
        <pt x="398" y="75" on="1"/>
        <pt x="384" y="68" on="0"/>
        <pt x="364" y="44" on="0"/>
        <pt x="348" y="39" on="1"/>
        <pt x="340" y="35" on="0"/>
        <pt x="322" y="32" on="0"/>
        <pt x="313" y="30" on="1"/>
        <pt x="308" y="29" on="0"/>
        <pt x="296" y="29" on="0"/>
        <pt x="291" y="29" on="1"/>
        <pt x="277" y="26" on="0"/>
        <pt x="261" y="32" on="0"/>
        <pt x="250" y="34" on="1"/>
        <pt x="245" y="33" on="0"/>
        <pt x="233" y="33" on="0"/>
        <pt x="229" y="36" on="1"/>
        <pt x="224" y="39" on="0"/>
        <pt x="217" y="38" on="0"/>
        <pt x="214" y="39" on="1"/>
        <pt x="210" y="41" on="0"/>
        <pt x="203" y="47" on="0"/>
        <pt x="198" y="48" on="1"/>
        <pt x="192" y="58" on="0"/>
        <pt x="175" y="72" on="0"/>
        <pt x="169" y="81" on="1"/>
        <pt x="165" y="82" on="0"/>
        <pt x="161" y="86" on="0"/>
        <pt x="158" y="88" on="1"/>
        <pt x="154" y="99" on="0"/>
        <pt x="150" y="104" on="0"/>
        <pt x="148" y="108" on="1"/>
        <pt x="150" y="114" on="0"/>
        <pt x="147" y="124" on="0"/>
        <pt x="148" y="127" on="1"/>
        <pt x="143" y="130" on="0"/>
        <pt x="142" y="141" on="0"/>
        <pt x="138" y="144" on="1"/>
        <pt x="129" y="165" on="0"/>
        <pt x="123" y="195" on="0"/>
        <pt x="119" y="209" on="1"/>
        <pt x="113" y="218" on="0"/>
        <pt x="109" y="220" on="1"/>
        <pt x="105" y="218" on="0"/>
        <pt x="93" y="220" on="0"/>
        <pt x="91" y="223" on="1"/>
        <pt x="86" y="222" on="0"/>
        <pt x="73" y="227" on="0"/>
        <pt x="68" y="225" on="1"/>
        <pt x="54" y="222" on="0"/>
        <pt x="41" y="226" on="0"/>
        <pt x="36" y="229" on="1"/>
        <pt x="26" y="231" on="0"/>
        <pt x="25" y="234" on="0"/>
        <pt x="22" y="234" on="1"/>
        <pt x="16" y="243" on="0"/>
        <pt x="15" y="243" on="0"/>
        <pt x="14" y="244" on="1"/>
        <pt x="7" y="255" on="0"/>
        <pt x="7" y="259" on="1"/>
        <pt x="7" y="263" on="0"/>
        <pt x="11" y="268" on="0"/>
        <pt x="12" y="273" on="1"/>
        <pt x="14" y="275" on="0"/>
        <pt x="17" y="281" on="0"/>
        <pt x="16" y="284" on="1"/>
        <pt x="18" y="287" on="0"/>
        <pt x="25" y="291" on="0"/>
        <pt x="27" y="294" on="1"/>
        <pt x="37" y="302" on="0"/>
        <pt x="46" y="305" on="1"/>
        <pt x="61" y="316" on="0"/>
        <pt x="78" y="314" on="1"/>
        <pt x="88" y="313" on="0"/>
        <pt x="94" y="311" on="0"/>
        <pt x="96" y="311" on="1"/>
        <pt x="95" y="329" on="0"/>
        <pt x="95" y="350" on="0"/>
        <pt x="96" y="361" on="1"/>
        <pt x="92" y="361" on="0"/>
        <pt x="86" y="360" on="0"/>
        <pt x="82" y="361" on="1"/>
        <pt x="79" y="359" on="0"/>
        <pt x="70" y="357" on="1"/>
        <pt x="57" y="358" on="0"/>
        <pt x="36" y="360" on="0"/>
        <pt x="26" y="362" on="1"/>
        <pt x="25" y="367" on="0"/>
        <pt x="19" y="373" on="0"/>
        <pt x="17" y="377" on="1"/>
        <pt x="15" y="381" on="0"/>
        <pt x="12" y="386" on="0"/>
        <pt x="10" y="388" on="1"/>
        <pt x="2" y="405" on="0"/>
        <pt x="11" y="414" on="1"/>
        <pt x="13" y="420" on="0"/>
        <pt x="18" y="425" on="0"/>
        <pt x="23" y="426" on="1"/>
        <pt x="24" y="429" on="0"/>
        <pt x="29" y="431" on="0"/>
        <pt x="32" y="433" on="1"/>
        <pt x="39" y="436" on="0"/>
        <pt x="49" y="441" on="0"/>
        <pt x="57" y="441" on="1"/>
        <pt x="61" y="441" on="0"/>
        <pt x="70" y="444" on="0"/>
        <pt x="75" y="445" on="1"/>
        <pt x="82" y="445" on="0"/>
        <pt x="87" y="446" on="1"/>
        <pt x="92" y="446" on="0"/>
        <pt x="102" y="444" on="1"/>
        <pt x="103" y="450" on="0"/>
        <pt x="108" y="463" on="0"/>
        <pt x="109" y="468" on="1"/>
        <pt x="110" y="472" on="0"/>
        <pt x="110" y="480" on="1"/>
        <pt x="112" y="487" on="0"/>
        <pt x="115" y="495" on="1"/>
        <pt x="120" y="512" on="0"/>
        <pt x="120" y="518" on="1"/>
        <pt x="119" y="534" on="0"/>
        <pt x="119" y="536" on="1"/>
        <pt x="121" y="541" on="0"/>
        <pt x="122" y="549" on="0"/>
        <pt x="127" y="552" on="1"/>
        <pt x="128" y="559" on="0"/>
        <pt x="134" y="566" on="0"/>
        <pt x="135" y="572" on="1"/>
        <pt x="140" y="588" on="0"/>
        <pt x="153" y="606" on="0"/>
        <pt x="158" y="616" on="1"/>
        <pt x="163" y="620" on="0"/>
        <pt x="166" y="627" on="0"/>
        <pt x="169" y="629" on="1"/>
        <pt x="171" y="643" on="0"/>
        <pt x="188" y="654" on="0"/>
        <pt x="196" y="663" on="1"/>
        <pt x="202" y="667" on="0"/>
        <pt x="210" y="669" on="0"/>
        <pt x="214" y="673" on="1"/>
        <pt x="228" y="682" on="0"/>
        <pt x="246" y="689" on="0"/>
        <pt x="254" y="694" on="1"/>
        <pt x="259" y="697" on="0"/>
        <pt x="269" y="698" on="0"/>
        <pt x="272" y="700" on="1"/>
        <pt x="282" y="701" on="0"/>
        <pt x="292" y="703" on="0"/>
        <pt x="299" y="702" on="1"/>
        <pt x="308" y="703" on="0"/>
        <pt x="330" y="706" on="0"/>
        <pt x="338" y="703" on="1"/>
        <pt x="347" y="702" on="0"/>
        <pt x="362" y="700" on="0"/>
        <pt x="370" y="699" on="1"/>
        <pt x="374" y="695" on="0"/>
        <pt x="385" y="694" on="0"/>
        <pt x="391" y="693" on="1"/>
        <pt x="393" y="689" on="0"/>
        <pt x="399" y="686" on="0"/>
        <pt x="402" y="684" on="1"/>
        <pt x="409" y="677" on="0"/>
        <pt x="412" y="676" on="0"/>
        <pt x="414" y="674" on="1"/>
        <pt x="416" y="671" on="0"/>
        <pt x="420" y="663" on="0"/>
        <pt x="424" y="660" on="1"/>
        <pt x="426" y="655" on="0"/>
        <pt x="432" y="650" on="0"/>
        <pt x="435" y="648" on="1"/>
        <pt x="435" y="643" on="0"/>
        <pt x="441" y="637" on="0"/>
        <pt x="445" y="635" on="1"/>
        <pt x="460" y="635" on="0"/>
        <pt x="468" y="628" on="0"/>
        <pt x="473" y="626" on="1"/>
        <pt x="480" y="625" on="0"/>
        <pt x="488" y="619" on="0"/>
        <pt x="494" y="617" on="1"/>
        <pt x="503" y="614" on="0"/>
        <pt x="511" y="603" on="0"/>
        <pt x="519" y="607" on="1"/>
        <pt x="523" y="605" on="0"/>
        <pt x="522" y="598" on="0"/>
      </contour>
    </TTGlyph>
    <TTGlyph name="F" xMin="15" yMin="0" xMax="579" yMax="778">
      <contour>
        <pt x="558" y="732" on="1"/>
        <pt x="549" y="733" on="0"/>
        <pt x="542" y="746" on="0"/>
        <pt x="539" y="753" on="1"/>
        <pt x="535" y="761" on="0"/>
        <pt x="537" y="768" on="1"/>
        <pt x="545" y="773" on="0"/>
        <pt x="562" y="778" on="0"/>
        <pt x="570" y="772" on="1"/>
        <pt x="572" y="770" on="0"/>
        <pt x="578" y="763" on="0"/>
        <pt x="579" y="760" on="1"/>
        <pt x="579" y="759" on="0"/>
        <pt x="577" y="750" on="0"/>
        <pt x="575" y="749" on="1"/>
        <pt x="572" y="738" on="0"/>
        <pt x="561" y="736" on="1"/>
      </contour>
      <contour>
        <pt x="153" y="769" on="1"/>
        <pt x="163" y="770" on="0"/>
        <pt x="181" y="767" on="0"/>
        <pt x="189" y="765" on="1"/>
        <pt x="207" y="757" on="0"/>
        <pt x="229" y="748" on="0"/>
        <pt x="244" y="743" on="1"/>
        <pt x="249" y="745" on="0"/>
        <pt x="262" y="749" on="0"/>
        <pt x="266" y="753" on="1"/>
        <pt x="271" y="754" on="0"/>
        <pt x="279" y="755" on="0"/>
        <pt x="282" y="753" on="1"/>
        <pt x="286" y="755" on="0"/>
        <pt x="298" y="753" on="0"/>
        <pt x="303" y="754" on="1"/>
        <pt x="317" y="756" on="0"/>
        <pt x="345" y="754" on="0"/>
        <pt x="356" y="751" on="1"/>
        <pt x="367" y="749" on="0"/>
        <pt x="386" y="751" on="0"/>
        <pt x="396" y="751" on="1"/>
        <pt x="404" y="751" on="0"/>
        <pt x="415" y="749" on="0"/>
        <pt x="421" y="749" on="1"/>
        <pt x="424" y="750" on="0"/>
        <pt x="431" y="750" on="0"/>
        <pt x="434" y="751" on="1"/>
        <pt x="445" y="755" on="0"/>
        <pt x="451" y="755" on="0"/>
        <pt x="452" y="757" on="1"/>
        <pt x="459" y="759" on="0"/>
        <pt x="474" y="756" on="0"/>
        <pt x="482" y="754" on="1"/>
        <pt x="487" y="748" on="0"/>
        <pt x="502" y="744" on="0"/>
        <pt x="507" y="739" on="1"/>
        <pt x="516" y="729" on="0"/>
        <pt x="527" y="710" on="0"/>
        <pt x="529" y="695" on="1"/>
        <pt x="531" y="692" on="0"/>
        <pt x="533" y="685" on="0"/>
        <pt x="536" y="683" on="1"/>
        <pt x="536" y="643" on="0"/>
        <pt x="516" y="629" on="1"/>
        <pt x="516" y="625" on="0"/>
        <pt x="511" y="622" on="0"/>
        <pt x="511" y="618" on="1"/>
        <pt x="507" y="620" on="0"/>
        <pt x="505" y="612" on="0"/>
        <pt x="500" y="613" on="1"/>
        <pt x="494" y="607" on="0"/>
        <pt x="475" y="604" on="0"/>
        <pt x="468" y="599" on="1"/>
        <pt x="462" y="598" on="0"/>
        <pt x="442" y="597" on="0"/>
        <pt x="437" y="602" on="1"/>
        <pt x="433" y="609" on="0"/>
        <pt x="424" y="616" on="0"/>
        <pt x="422" y="623" on="1"/>
        <pt x="417" y="626" on="0"/>
        <pt x="410" y="636" on="0"/>
        <pt x="402" y="636" on="1"/>
        <pt x="400" y="638" on="0"/>
        <pt x="393" y="638" on="0"/>
        <pt x="391" y="640" on="1"/>
        <pt x="381" y="642" on="0"/>
        <pt x="365" y="643" on="0"/>
        <pt x="349" y="643" on="0"/>
        <pt x="334" y="645" on="0"/>
        <pt x="328" y="649" on="1"/>
        <pt x="324" y="647" on="0"/>
        <pt x="315" y="649" on="0"/>
        <pt x="310" y="648" on="1"/>
        <pt x="304" y="647" on="0"/>
        <pt x="293" y="642" on="0"/>
        <pt x="286" y="640" on="1"/>
        <pt x="281" y="638" on="0"/>
        <pt x="278" y="634" on="0"/>
        <pt x="273" y="631" on="1"/>
        <pt x="264" y="628" on="0"/>
        <pt x="261" y="625" on="0"/>
        <pt x="257" y="624" on="1"/>
        <pt x="253" y="622" on="0"/>
        <pt x="246" y="615" on="0"/>
        <pt x="241" y="615" on="1"/>
        <pt x="234" y="611" on="0"/>
        <pt x="223" y="602" on="0"/>
        <pt x="217" y="597" on="1"/>
        <pt x="213" y="593" on="0"/>
        <pt x="208" y="589" on="0"/>
        <pt x="205" y="587" on="1"/>
        <pt x="203" y="581" on="0"/>
        <pt x="199" y="572" on="0"/>
        <pt x="198" y="564" on="1"/>
        <pt x="195" y="555" on="0"/>
        <pt x="197" y="553" on="0"/>
        <pt x="197" y="551" on="1"/>
        <pt x="196" y="546" on="0"/>
        <pt x="194" y="539" on="0"/>
        <pt x="194" y="534" on="1"/>
        <pt x="197" y="523" on="0"/>
        <pt x="195" y="522" on="0"/>
        <pt x="195" y="520" on="1"/>
        <pt x="195" y="510" on="0"/>
        <pt x="198" y="488" on="0"/>
        <pt x="195" y="477" on="1"/>
        <pt x="196" y="471" on="0"/>
        <pt x="199" y="460" on="0"/>
        <pt x="204" y="457" on="1"/>
        <pt x="221" y="454" on="0"/>
        <pt x="250" y="457" on="0"/>
        <pt x="264" y="459" on="1"/>
        <pt x="272" y="456" on="0"/>
        <pt x="292" y="461" on="0"/>
        <pt x="300" y="463" on="1"/>
        <pt x="309" y="466" on="0"/>
        <pt x="313" y="469" on="0"/>
        <pt x="316" y="467" on="1"/>
        <pt x="322" y="470" on="0"/>
        <pt x="336" y="475" on="0"/>
        <pt x="342" y="477" on="1"/>
        <pt x="346" y="479" on="0"/>
        <pt x="352" y="481" on="0"/>
        <pt x="357" y="481" on="1"/>
        <pt x="367" y="477" on="0"/>
        <pt x="370" y="478" on="0"/>
        <pt x="372" y="478" on="1"/>
        <pt x="384" y="469" on="0"/>
        <pt x="394" y="467" on="0"/>
        <pt x="397" y="463" on="1"/>
        <pt x="402" y="456" on="0"/>
        <pt x="402" y="442" on="0"/>
        <pt x="403" y="435" on="1"/>
        <pt x="404" y="428" on="0"/>
        <pt x="408" y="417" on="0"/>
        <pt x="399" y="413" on="1"/>
        <pt x="390" y="397" on="0"/>
        <pt x="374" y="388" on="0"/>
        <pt x="368" y="383" on="1"/>
        <pt x="365" y="381" on="0"/>
        <pt x="361" y="376" on="0"/>
        <pt x="358" y="374" on="1"/>
        <pt x="357" y="368" on="0"/>
        <pt x="350" y="365" on="1"/>
        <pt x="346" y="355" on="0"/>
        <pt x="337" y="352" on="1"/>
        <pt x="330" y="342" on="0"/>
        <pt x="305" y="341" on="0"/>
        <pt x="291" y="339" on="1"/>
        <pt x="287" y="340" on="0"/>
        <pt x="270" y="338" on="0"/>
        <pt x="267" y="342" on="1"/>
        <pt x="259" y="343" on="0"/>
        <pt x="243" y="347" on="0"/>
        <pt x="237" y="354" on="1"/>
        <pt x="227" y="357" on="0"/>
        <pt x="206" y="359" on="0"/>
        <pt x="197" y="355" on="1"/>
        <pt x="184" y="348" on="0"/>
        <pt x="183" y="341" on="1"/>
        <pt x="183" y="337" on="0"/>
        <pt x="188" y="333" on="0"/>
        <pt x="190" y="329" on="1"/>
        <pt x="194" y="324" on="0"/>
        <pt x="197" y="305" on="0"/>
        <pt x="196" y="300" on="1"/>
        <pt x="200" y="296" on="0"/>
        <pt x="197" y="280" on="0"/>
        <pt x="198" y="273" on="1"/>
        <pt x="197" y="261" on="0"/>
        <pt x="200" y="242" on="0"/>
        <pt x="202" y="234" on="1"/>
        <pt x="200" y="229" on="0"/>
        <pt x="201" y="214" on="0"/>
        <pt x="199" y="209" on="1"/>
        <pt x="202" y="203" on="0"/>
        <pt x="199" y="189" on="0"/>
        <pt x="198" y="183" on="1"/>
        <pt x="196" y="171" on="0"/>
        <pt x="199" y="148" on="0"/>
        <pt x="202" y="136" on="1"/>
        <pt x="208" y="127" on="0"/>
        <pt x="208" y="107" on="0"/>
        <pt x="202" y="86" on="0"/>
        <pt x="194" y="65" on="0"/>
        <pt x="193" y="55" on="1"/>
        <pt x="194" y="49" on="0"/>
        <pt x="190" y="31" on="0"/>
        <pt x="187" y="26" on="1"/>
        <pt x="179" y="18" on="0"/>
        <pt x="179" y="13" on="1"/>
        <pt x="171" y="5" on="0"/>
        <pt x="163" y="5" on="1"/>
        <pt x="148" y="7" on="0"/>
        <pt x="138" y="0" on="0"/>
        <pt x="133" y="1" on="1"/>
        <pt x="126" y="4" on="0"/>
        <pt x="120" y="2" on="0"/>
        <pt x="118" y="2" on="1"/>
        <pt x="113" y="2" on="0"/>
        <pt x="107" y="6" on="0"/>
        <pt x="102" y="8" on="1"/>
        <pt x="97" y="16" on="0"/>
        <pt x="86" y="31" on="0"/>
        <pt x="84" y="41" on="1"/>
        <pt x="82" y="44" on="0"/>
        <pt x="79" y="50" on="0"/>
        <pt x="77" y="52" on="1"/>
        <pt x="76" y="57" on="0"/>
        <pt x="73" y="68" on="0"/>
        <pt x="73" y="73" on="1"/>
        <pt x="69" y="78" on="0"/>
        <pt x="68" y="92" on="0"/>
        <pt x="63" y="97" on="1"/>
        <pt x="59" y="106" on="0"/>
        <pt x="58" y="125" on="0"/>
        <pt x="60" y="133" on="1"/>
        <pt x="65" y="147" on="0"/>
        <pt x="72" y="166" on="0"/>
        <pt x="75" y="177" on="1"/>
        <pt x="81" y="200" on="0"/>
        <pt x="92" y="213" on="1"/>
        <pt x="93" y="218" on="0"/>
        <pt x="99" y="230" on="0"/>
        <pt x="101" y="236" on="1"/>
        <pt x="101" y="242" on="0"/>
        <pt x="102" y="249" on="0"/>
        <pt x="101" y="253" on="1"/>
        <pt x="104" y="259" on="0"/>
        <pt x="104" y="275" on="0"/>
        <pt x="102" y="293" on="0"/>
        <pt x="102" y="310" on="0"/>
        <pt x="105" y="317" on="1"/>
        <pt x="105" y="328" on="0"/>
        <pt x="103" y="353" on="0"/>
        <pt x="103" y="365" on="1"/>
        <pt x="100" y="368" on="0"/>
        <pt x="101" y="377" on="0"/>
        <pt x="100" y="380" on="1"/>
        <pt x="92" y="377" on="0"/>
        <pt x="73" y="386" on="0"/>
        <pt x="61" y="384" on="1"/>
        <pt x="57" y="386" on="0"/>
        <pt x="53" y="393" on="0"/>
        <pt x="50" y="395" on="1"/>
        <pt x="50" y="399" on="0"/>
        <pt x="47" y="403" on="0"/>
        <pt x="49" y="407" on="1"/>
        <pt x="46" y="409" on="0"/>
        <pt x="47" y="414" on="0"/>
        <pt x="45" y="419" on="1"/>
        <pt x="43" y="425" on="0"/>
        <pt x="41" y="430" on="0"/>
        <pt x="40" y="432" on="1"/>
        <pt x="38" y="441" on="0"/>
        <pt x="44" y="444" on="1"/>
        <pt x="43" y="452" on="0"/>
        <pt x="52" y="456" on="0"/>
        <pt x="57" y="459" on="1"/>
        <pt x="68" y="464" on="0"/>
        <pt x="78" y="462" on="0"/>
        <pt x="80" y="467" on="1"/>
        <pt x="83" y="465" on="0"/>
        <pt x="87" y="468" on="0"/>
        <pt x="91" y="468" on="1"/>
        <pt x="97" y="476" on="0"/>
        <pt x="93" y="498" on="0"/>
        <pt x="95" y="506" on="1"/>
        <pt x="93" y="513" on="0"/>
        <pt x="92" y="523" on="0"/>
        <pt x="94" y="527" on="1"/>
        <pt x="94" y="542" on="0"/>
        <pt x="95" y="555" on="0"/>
        <pt x="97" y="563" on="1"/>
        <pt x="99" y="573" on="0"/>
        <pt x="99" y="574" on="1"/>
        <pt x="98" y="579" on="0"/>
        <pt x="99" y="587" on="0"/>
        <pt x="97" y="591" on="1"/>
        <pt x="96" y="597" on="0"/>
        <pt x="98" y="609" on="0"/>
        <pt x="95" y="611" on="1"/>
        <pt x="97" y="619" on="0"/>
        <pt x="89" y="629" on="0"/>
        <pt x="87" y="634" on="1"/>
        <pt x="85" y="637" on="0"/>
        <pt x="79" y="643" on="0"/>
        <pt x="80" y="647" on="1"/>
        <pt x="75" y="653" on="0"/>
        <pt x="64" y="669" on="0"/>
        <pt x="66" y="678" on="1"/>
        <pt x="62" y="692" on="0"/>
        <pt x="58" y="711" on="0"/>
        <pt x="59" y="718" on="1"/>
        <pt x="60" y="725" on="0"/>
        <pt x="70" y="735" on="0"/>
        <pt x="72" y="740" on="1"/>
        <pt x="81" y="748" on="0"/>
        <pt x="86" y="758" on="0"/>
        <pt x="91" y="762" on="1"/>
        <pt x="101" y="763" on="0"/>
        <pt x="102" y="763" on="1"/>
        <pt x="107" y="763" on="0"/>
        <pt x="112" y="766" on="0"/>
        <pt x="114" y="767" on="1"/>
        <pt x="129" y="769" on="1"/>
        <pt x="137" y="773" on="0"/>
        <pt x="146" y="771" on="0"/>
        <pt x="152" y="772" on="1"/>
      </contour>
      <contour>
        <pt x="32" y="588" on="1"/>
        <pt x="29" y="588" on="0"/>
        <pt x="22" y="594" on="0"/>
        <pt x="23" y="596" on="1"/>
        <pt x="18" y="599" on="0"/>
        <pt x="15" y="612" on="0"/>
        <pt x="17" y="625" on="0"/>
        <pt x="25" y="636" on="0"/>
        <pt x="30" y="638" on="1"/>
        <pt x="45" y="646" on="0"/>
        <pt x="60" y="628" on="0"/>
        <pt x="60" y="618" on="1"/>
        <pt x="61" y="605" on="0"/>
        <pt x="45" y="587" on="0"/>
      </contour>
      <contour>
        <pt x="260" y="578" on="1"/>
        <pt x="261" y="573" on="0"/>
        <pt x="265" y="568" on="0"/>
        <pt x="266" y="565" on="1"/>
        <pt x="264" y="563" on="0"/>
        <pt x="263" y="555" on="0"/>
        <pt x="261" y="551" on="1"/>
        <pt x="252" y="546" on="0"/>
        <pt x="248" y="539" on="0"/>
        <pt x="243" y="535" on="0"/>
        <pt x="236" y="535" on="0"/>
        <pt x="232" y="540" on="1"/>
        <pt x="231" y="545" on="0"/>
        <pt x="231" y="554" on="0"/>
        <pt x="231" y="559" on="1"/>
        <pt x="233" y="567" on="0"/>
        <pt x="249" y="583" on="0"/>
      </contour>
      <contour>
        <pt x="232" y="488" on="1"/>
        <pt x="226" y="495" on="0"/>
        <pt x="226" y="505" on="0"/>
        <pt x="230" y="504" on="1"/>
        <pt x="231" y="509" on="0"/>
        <pt x="241" y="514" on="0"/>
        <pt x="246" y="513" on="1"/>
        <pt x="254" y="511" on="0"/>
        <pt x="254" y="498" on="0"/>
        <pt x="248" y="493" on="1"/>
        <pt x="240" y="489" on="0"/>
        <pt x="237" y="487" on="0"/>
      </contour>
      <contour>
        <pt x="421" y="325" on="1"/>
        <pt x="416" y="320" on="0"/>
        <pt x="407" y="317" on="0"/>
        <pt x="402" y="314" on="1"/>
        <pt x="400" y="317" on="0"/>
        <pt x="395" y="319" on="0"/>
        <pt x="392" y="323" on="1"/>
        <pt x="390" y="325" on="0"/>
        <pt x="388" y="331" on="0"/>
        <pt x="386" y="333" on="1"/>
        <pt x="381" y="340" on="0"/>
        <pt x="383" y="347" on="0"/>
        <pt x="384" y="349" on="1"/>
        <pt x="390" y="358" on="0"/>
        <pt x="392" y="359" on="1"/>
        <pt x="398" y="365" on="0"/>
        <pt x="399" y="368" on="0"/>
        <pt x="400" y="369" on="1"/>
        <pt x="415" y="377" on="0"/>
        <pt x="435" y="376" on="0"/>
        <pt x="438" y="368" on="1"/>
        <pt x="440" y="353" on="0"/>
        <pt x="426" y="335" on="0"/>
      </contour>
      <contour>
        <pt x="247" y="70" on="1"/>
        <pt x="247" y="62" on="0"/>
        <pt x="242" y="47" on="0"/>
        <pt x="237" y="44" on="1"/>
        <pt x="233" y="42" on="0"/>
        <pt x="228" y="37" on="0"/>
        <pt x="225" y="37" on="1"/>
        <pt x="217" y="38" on="0"/>
        <pt x="212" y="58" on="0"/>
        <pt x="217" y="63" on="1"/>
        <pt x="216" y="69" on="0"/>
        <pt x="222" y="72" on="0"/>
        <pt x="223" y="76" on="1"/>
        <pt x="238" y="81" on="0"/>
        <pt x="245" y="75" on="0"/>
      </contour>
    </TTGlyph>
</ttFont>
